<?xml version="1.0" encoding="utf-8"?>
<!-- Generator: Adobe Illustrator 16.0.0, SVG Export Plug-In . SVG Version: 6.00 Build 0)  -->
<!DOCTYPE svg PUBLIC "-//W3C//DTD SVG 1.1//EN" "http://www.w3.org/Graphics/SVG/1.1/DTD/svg11.dtd">
<svg version="1.1" id="Layer_1" xmlns="http://www.w3.org/2000/svg" xmlns:xlink="http://www.w3.org/1999/xlink" x="0px" y="0px"
	 width="166px" height="166px" viewBox="0 0 166 166" enable-background="new 0 0 166 166" xml:space="preserve">
<g>
	<defs>
		<rect id="SVGID_1_" width="166" height="166"/>
	</defs>
	<clipPath id="SVGID_2_">
		<use xlink:href="#SVGID_1_"  overflow="visible"/>
	</clipPath>
	<path clip-path="url(#SVGID_2_)" fill="#9C182F" d="M159.9,96.4c-0.1,0-0.2,1.2-0.3,1.5c-0.8,3.2-1.1,6.8-1.3,10
		c-0.3,4.4-0.6,8.7-2.4,11.8c-1.9,3.2-5.3,5.6-9,8.1c-2.6,1.8-5.4,3.6-7.6,5.9c-2.3,2.3-4.1,5-5.9,7.7c-2.5,3.7-4.8,7.2-8,9
		c-3.1,1.8-7.3,2.1-11.7,2.4c-3.2,0.2-6.5,0.4-9.7,1.3c-3,0.8-5.9,2.2-8.7,3.6c-4,2-7.8,3.8-11.6,3.8c-3.8,0-7.6-1.9-11.6-3.8
		c-2.8-1.4-5.7-2.8-8.7-3.6c-3.2-0.8-6.5-1.1-9.7-1.3c-4.4-0.3-8.5-0.6-11.7-2.4c-3.2-1.9-5.5-5.3-8-9c-1.8-2.6-3.6-5.4-5.9-7.7
		c-2.3-2.3-5-4.1-7.7-5.9c-3.7-2.5-7.1-4.8-9-8c-1.8-3.1-2.1-7.3-2.4-11.7c-0.2-3.2-0.4-7.1-1.3-10.3c-0.1-0.3-0.2-1.5-0.3-1.5h-2
		c0.2,0,0.3,1.6,0.4,2c0.8,3,1,6.5,1.2,9.6c0.3,4.6,0.6,9.2,2.7,12.7c2.1,3.6,5.7,6.1,9.6,8.7c2.6,1.7,5.2,3.5,7.4,5.7
		c2.1,2.1,3.9,4.8,5.6,7.4c2.6,3.9,5,7.6,8.7,9.6c3.6,2.1,7.9,2.4,12.6,2.7c3.1,0.2,6.3,0.4,9.3,1.2c2.8,0.8,5.7,2.1,8.4,3.5
		c4.2,2.1,8.2,4.1,12.5,4.1c4.3,0,8.3-2,12.5-4c2.7-1.3,5.5-2.7,8.4-3.5c3-0.8,6.2-1,9.3-1.2c4.6-0.3,9-0.6,12.5-2.7
		c3.6-2.1,6.1-5.8,8.7-9.6c1.7-2.6,3.5-5.2,5.6-7.4c2.1-2.1,4.8-3.9,7.3-5.6c3.9-2.6,7.5-5.1,9.6-8.7c2.1-3.5,2.4-7.9,2.7-12.6
		c0.2-3.1,0.4-7,1.2-10c0.1-0.4,0.2-1.9,0.4-1.9H159.9z"/>
	<path clip-path="url(#SVGID_2_)" fill="#266141" d="M8.4,97.6c0.9,3.2,1.1,6.9,1.3,10.1c0.3,4.3,0.6,8.5,2.3,11.5
		c1.8,3,5.2,5.4,8.8,7.8c2.7,1.8,5.5,3.7,7.8,6c2.3,2.3,4.2,5.1,6,7.8c2.4,3.6,4.7,7,7.7,8.8c3,1.7,7,2,11.3,2.3
		c3.2,0.2,6.6,0.5,9.8,1.3c3.1,0.8,6,2.3,8.9,3.7c3.9,1.9,7.6,3.8,11.3,3.8c3.7,0,7.4-1.8,11.3-3.8c2.8-1.4,5.8-2.8,8.9-3.7
		c3.2-0.9,6.6-1.1,9.8-1.3c4.3-0.3,8.4-0.6,11.3-2.3c3.1-1.8,5.3-5.2,7.7-8.8c1.8-2.7,3.6-5.4,6-7.8c2.3-2.3,5.1-4.2,7.8-6
		c3.6-2.4,7-4.7,8.8-7.7c1.7-3,2-7,2.3-11.3c0.2-3.2,0.5-7.2,1.3-10.5c0.1-0.2,0.1-1.3,0.2-1.3H8.2C8.3,96.4,8.4,97.4,8.4,97.6"/>
	<path clip-path="url(#SVGID_2_)" fill="#FFFFFF" d="M77.6,139.9l3.7-4.8H79l3.1-4h-1.7l3.2-4.5l3.2,4.5h-1.7l3.1,4H86l3.7,4.8H77.6
		z M88.5,133.8l0.8-1.1l1.8,2.9h-1.4l2.6,4.3h-1.5l0.8,1h2.5l-2.7-4.3h1.4l-3.5-5.7l-1.5,2.1L88.5,133.8z M88.6,144.2h1.5v-2.6h-1.5
		V144.2z M79.4,133l-1.5-2.1l-3.5,5.7h1.4l-2.7,4.3h2.5l0.7-1H75l2.6-4.3h-1.4l1.8-2.9l0.8,1.1L79.4,133z M78.7,141.5h-1.5v2.6h1.5
		V141.5z M84.6,140.8h-1.9v3.4h1.9V140.8z M83.1,124.3l-1.2,0.2l0.9,0.8l-0.2,1.2l1.1-0.6l1.1,0.6l-0.2-1.2l0.9-0.8l-1.2-0.2
		l-0.5-1.1L83.1,124.3z"/>
	<path clip-path="url(#SVGID_2_)" fill="#FFFFFF" d="M52.1,107.6v0.4c0,0.5,0.6,0.7,1.2,0.7c0.7,0,1.3-0.4,1.3-1
		c0-0.7-0.7-1-1.4-1.3c-0.7-0.3-1.5-0.6-1.5-1.6s0.8-1.5,1.7-1.5c0.8,0,1.6,0.3,1.6,0.9v0.6h-0.5v-0.4c0-0.4-0.6-0.5-1.1-0.5
		c-0.6,0-1.1,0.3-1.1,0.9c0,0.7,0.6,0.9,1.3,1.2c0.8,0.3,1.6,0.6,1.6,1.6c0,1-0.8,1.6-1.8,1.6c-0.8,0-1.8-0.4-1.8-1.1v-0.5H52.1z"/>
	<polygon clip-path="url(#SVGID_2_)" fill="#FFFFFF" points="57.2,108.7 57.9,108.7 57.9,104 56.4,104 56.4,105 55.9,105 
		55.9,103.6 60.6,103.6 60.6,105 60.1,105 60.1,104 58.5,104 58.5,108.7 59.2,108.7 59.2,109.2 57.2,109.2 	"/>
	<path clip-path="url(#SVGID_2_)" fill="#FFFFFF" d="M60.5,108.7h0.6l1.9-5.1h0.6l1.9,5.1H66v0.5h-1.8v-0.5h0.6l-0.5-1.4h-2.2
		l-0.5,1.4h0.6v0.5h-1.8V108.7z M64.2,106.8l-0.8-2.3c-0.1-0.2-0.1-0.4-0.1-0.4h0c0,0,0,0.2-0.1,0.4l-0.9,2.3H64.2z"/>
	<path clip-path="url(#SVGID_2_)" fill="#FFFFFF" d="M66.5,108.7h0.7V104h-0.7v-0.5h2.4c0.4,0,0.7,0,1,0.1c0.5,0.2,0.9,0.7,0.9,1.4
		c0,0.8-0.5,1.5-1.2,1.6v0c0,0,0.1,0.1,0.2,0.2l0.9,1.6c0.1,0.2,0.2,0.2,0.4,0.2h0.2v0.5H71c-0.5,0-0.6-0.1-0.8-0.4l-0.9-1.6
		c-0.2-0.3-0.3-0.3-0.6-0.3h-0.8v1.9h0.7v0.5h-2V108.7z M69.1,106.3c0.7,0,1.1-0.5,1.1-1.2c0-0.5-0.2-0.8-0.6-1
		c-0.2-0.1-0.5-0.1-0.7-0.1h-1.1v2.3H69.1z"/>
	<polygon clip-path="url(#SVGID_2_)" fill="#FFFFFF" points="73.1,108.7 73.8,108.7 73.8,104 72.3,104 72.3,105 71.8,105 
		71.8,103.6 76.5,103.6 76.5,105 76,105 76,104 74.4,104 74.4,108.7 75.1,108.7 75.1,109.2 73.1,109.2 	"/>
	<path clip-path="url(#SVGID_2_)" fill="#FFFFFF" d="M78.8,108.7h0.6l1.9-5.1h0.6l1.9,5.1h0.6v0.5h-1.8v-0.5h0.6l-0.5-1.4h-2.2
		l-0.5,1.4h0.6v0.5h-1.8V108.7z M82.5,106.8l-0.8-2.3c-0.1-0.2-0.1-0.4-0.1-0.4h0c0,0,0,0.2-0.1,0.4l-0.9,2.3H82.5z"/>
	<polygon clip-path="url(#SVGID_2_)" fill="#FFFFFF" points="86.8,108.7 87.6,108.7 87.6,104 86.8,104 86.8,103.6 90.6,103.6 
		90.6,104.8 90.1,104.8 90.1,104.1 88.1,104.1 88.1,106.2 90.2,106.2 90.2,106.7 88.1,106.7 88.1,108.7 88.9,108.7 88.9,109.2 
		86.8,109.2 	"/>
	<path clip-path="url(#SVGID_2_)" fill="#FFFFFF" d="M90.7,108.7h0.6l1.9-5.1h0.6l1.9,5.1h0.6v0.5h-1.8v-0.5h0.6l-0.5-1.4h-2.2
		l-0.5,1.4h0.6v0.5h-1.8V108.7z M94.4,106.8l-0.8-2.3c-0.1-0.2-0.1-0.4-0.1-0.4h0c0,0,0,0.2-0.1,0.4l-0.9,2.3H94.4z"/>
	<path clip-path="url(#SVGID_2_)" fill="#FFFFFF" d="M96.6,108.7h0.7l0.4-4.7H97v-0.5h1.3l1.6,3.7c0.1,0.2,0.1,0.3,0.1,0.3h0
		c0,0,0-0.1,0.1-0.3l1.6-3.7h1.3v0.5h-0.7l0.4,4.7h0.7v0.5h-2v-0.5h0.7l-0.3-3.9c0-0.1,0-0.4,0-0.4h0c0,0-0.1,0.2-0.1,0.4l-1.5,3.3
		h-0.5l-1.5-3.3c-0.1-0.1-0.1-0.4-0.1-0.4h0c0,0,0,0.3,0,0.4l-0.3,3.9h0.7v0.5h-2V108.7z"/>
	<polygon clip-path="url(#SVGID_2_)" fill="#FFFFFF" points="104.2,108.7 105,108.7 105,104 104.2,104 104.2,103.6 106.3,103.6 
		106.3,104 105.5,104 105.5,108.7 106.3,108.7 106.3,109.2 104.2,109.2 	"/>
	<polygon clip-path="url(#SVGID_2_)" fill="#FFFFFF" points="107.1,108.7 107.8,108.7 107.8,104 107.1,104 107.1,103.6 109.1,103.6 
		109.1,104 108.4,104 108.4,108.7 110.6,108.7 110.6,107.8 111.2,107.8 111.2,109.2 107.1,109.2 	"/>
	<path clip-path="url(#SVGID_2_)" fill="#FFFFFF" d="M112.6,108.7h0.7v-1.9l-1.6-2.7h-0.6v-0.5h1.8v0.5h-0.6l1.2,2
		c0.1,0.1,0.1,0.2,0.1,0.2h0c0,0,0-0.1,0.1-0.2l1.2-2h-0.6v-0.5h1.8v0.5h-0.5l-1.7,2.7v1.9h0.7v0.5h-2V108.7z"/>
	<polygon clip-path="url(#SVGID_2_)" fill="#FFFFFF" points="46.9,118.3 47.6,118.3 47.6,113.6 46,113.6 46,114.5 45.5,114.5 
		45.5,113.1 50.2,113.1 50.2,114.5 49.7,114.5 49.7,113.6 48.1,113.6 48.1,118.3 48.9,118.3 48.9,118.7 46.9,118.7 	"/>
	<path clip-path="url(#SVGID_2_)" fill="#FFFFFF" d="M50.9,118.3h0.7v-4.7h-0.7v-0.5h2.4c0.4,0,0.7,0,1,0.1c0.5,0.2,0.9,0.7,0.9,1.4
		c0,0.8-0.5,1.5-1.2,1.6v0c0,0,0.1,0.1,0.2,0.2l0.9,1.6c0.1,0.2,0.2,0.2,0.4,0.2h0.2v0.5h-0.3c-0.5,0-0.6-0.1-0.8-0.4l-0.9-1.6
		c-0.2-0.3-0.3-0.3-0.6-0.3h-0.8v1.9h0.7v0.5h-2V118.3z M53.5,115.9c0.7,0,1.1-0.5,1.1-1.2c0-0.5-0.2-0.8-0.6-1
		c-0.2-0.1-0.5-0.1-0.7-0.1h-1.1v2.3H53.5z"/>
	<path clip-path="url(#SVGID_2_)" fill="#FFFFFF" d="M56,118.3h0.6l1.9-5.1h0.6l1.9,5.1h0.6v0.5h-1.8v-0.5h0.6l-0.5-1.4h-2.2
		l-0.5,1.4h0.6v0.5H56V118.3z M59.7,116.4l-0.8-2.3c-0.1-0.2-0.1-0.4-0.1-0.4h0c0,0,0,0.2-0.1,0.4l-0.9,2.3H59.7z"/>
	<path clip-path="url(#SVGID_2_)" fill="#FFFFFF" d="M62.1,118.3h0.7v-4.7h-0.7v-0.5h2.4c0.5,0,0.8,0,1.2,0.1
		c1.1,0.3,1.7,1.3,1.7,2.7c0,1.4-0.7,2.3-1.8,2.7c-0.4,0.1-0.7,0.1-1.1,0.1h-2.4V118.3z M64.4,118.3c0.4,0,0.7,0,1-0.1
		c0.9-0.3,1.4-1.1,1.4-2.2c0-1.1-0.5-1.9-1.4-2.2c-0.3-0.1-0.6-0.1-1-0.1h-1v4.6H64.4z"/>
	<polygon clip-path="url(#SVGID_2_)" fill="#FFFFFF" points="68.2,118.3 68.9,118.3 68.9,113.6 68.2,113.6 68.2,113.1 70.2,113.1 
		70.2,113.6 69.5,113.6 69.5,118.3 70.2,118.3 70.2,118.7 68.2,118.7 	"/>
	<polygon clip-path="url(#SVGID_2_)" fill="#FFFFFF" points="72.3,118.3 73,118.3 73,113.6 71.4,113.6 71.4,114.5 70.9,114.5 
		70.9,113.1 75.6,113.1 75.6,114.5 75.1,114.5 75.1,113.6 73.6,113.6 73.6,118.3 74.3,118.3 74.3,118.7 72.3,118.7 	"/>
	<polygon clip-path="url(#SVGID_2_)" fill="#FFFFFF" points="76.3,118.3 77,118.3 77,113.6 76.3,113.6 76.3,113.1 78.3,113.1 
		78.3,113.6 77.6,113.6 77.6,118.3 78.3,118.3 78.3,118.7 76.3,118.7 	"/>
	<path clip-path="url(#SVGID_2_)" fill="#FFFFFF" d="M82,113c1.6,0,2.9,1.3,2.9,2.9c0,1.6-1.3,2.9-2.9,2.9c-1.6,0-2.9-1.3-2.9-2.9
		C79.1,114.3,80.4,113,82,113 M82,118.3c1.3,0,2.3-1.1,2.3-2.4c0-1.3-1-2.4-2.3-2.4c-1.3,0-2.3,1-2.3,2.4
		C79.7,117.3,80.7,118.3,82,118.3"/>
	<path clip-path="url(#SVGID_2_)" fill="#FFFFFF" d="M85.7,118.3h0.7v-4.7h-0.7v-0.5h1.3l3.1,4.4c0.1,0.1,0.2,0.3,0.2,0.3h0
		c0,0,0-0.2,0-0.4v-3.9h-0.7v-0.5h2v0.5h-0.7v5.1h-0.5l-3.1-4.4c-0.1-0.1-0.2-0.3-0.2-0.3h0c0,0,0,0.2,0,0.4v3.9h0.7v0.5h-2V118.3z"
		/>
	<polygon clip-path="url(#SVGID_2_)" fill="#FFFFFF" points="95.5,118.3 96.2,118.3 96.2,113.6 94.6,113.6 94.6,114.5 94.1,114.5 
		94.1,113.1 98.8,113.1 98.8,114.5 98.3,114.5 98.3,113.6 96.7,113.6 96.7,118.3 97.5,118.3 97.5,118.7 95.5,118.7 	"/>
	<path clip-path="url(#SVGID_2_)" fill="#FFFFFF" d="M102.4,113c1.6,0,2.9,1.3,2.9,2.9c0,1.6-1.3,2.9-2.9,2.9
		c-1.6,0-2.9-1.3-2.9-2.9C99.5,114.3,100.8,113,102.4,113 M102.4,118.3c1.3,0,2.3-1.1,2.3-2.4c0-1.3-1-2.4-2.3-2.4
		c-1.3,0-2.3,1-2.3,2.4C100.1,117.3,101.1,118.3,102.4,118.3"/>
	<path clip-path="url(#SVGID_2_)" fill="#FFFFFF" d="M106,118.3h0.7v-4.7H106v-0.5h2.4c0.5,0,0.8,0,1.2,0.1c1.1,0.3,1.7,1.3,1.7,2.7
		c0,1.4-0.7,2.3-1.8,2.7c-0.4,0.1-0.7,0.1-1.1,0.1H106V118.3z M108.3,118.3c0.4,0,0.7,0,1-0.1c0.9-0.3,1.4-1.1,1.4-2.2
		c0-1.1-0.5-1.9-1.4-2.2c-0.3-0.1-0.6-0.1-1-0.1h-1v4.6H108.3z"/>
	<path clip-path="url(#SVGID_2_)" fill="#FFFFFF" d="M111.7,118.3h0.6l1.9-5.1h0.6l1.9,5.1h0.6v0.5h-1.8v-0.5h0.6l-0.5-1.4h-2.2
		l-0.5,1.4h0.6v0.5h-1.8V118.3z M115.4,116.4l-0.8-2.3c-0.1-0.2-0.1-0.4-0.1-0.4h0c0,0,0,0.2-0.1,0.4l-0.9,2.3H115.4z"/>
	<path clip-path="url(#SVGID_2_)" fill="#FFFFFF" d="M118.4,118.3h0.7v-1.9l-1.6-2.7H117v-0.5h1.8v0.5h-0.6l1.2,2
		c0.1,0.1,0.1,0.2,0.1,0.2h0c0,0,0-0.1,0.1-0.2l1.2-2h-0.6v-0.5h1.8v0.5h-0.5l-1.7,2.7v1.9h0.7v0.5h-2V118.3z"/>
	<path clip-path="url(#SVGID_2_)" fill="#9C182F" d="M104,14.4c3.2,0.8,6.5,1.1,9.7,1.3c4.4,0.3,8.5,0.6,11.7,2.4
		c3.2,1.9,5.5,5.3,8,9c1.8,2.6,3.6,5.4,5.9,7.7c2.3,2.3,5,4.1,7.7,5.9c3.7,2.5,7.2,4.8,9,8c1.8,3.1,2.1,7.3,2.4,11.7
		c0.2,3.2,0.4,7.3,1.3,10.4c0.1,0.3,0.2,1.6,0.2,1.6h2.1c-0.2-1.8-0.3-1.7-0.4-2.1c-0.8-3-1-6.6-1.2-9.7c-0.3-4.6-0.6-9.2-2.7-12.7
		c-2.1-3.6-5.8-6.2-9.6-8.7c-2.6-1.7-5.2-3.5-7.4-5.7c-2.1-2.1-3.9-4.8-5.6-7.4c-2.6-3.9-5-7.6-8.7-9.6c-3.6-2.1-7.9-2.4-12.6-2.7
		c-3.1-0.2-6.3-0.4-9.3-1.2c-2.8-0.8-5.7-2.1-8.4-3.5c-1.7-0.8-3.3-1.6-4.9-2.3c0.4,0.8,0.7,1.7,0.9,2.6c1,0.5,2.1,1,3.1,1.5
		C98.1,12.2,101,13.6,104,14.4"/>
	<path clip-path="url(#SVGID_2_)" fill="#9C182F" d="M8.9,60.3c0.3-4.4,0.6-8.5,2.4-11.7c1.9-3.2,5.3-5.5,9-8
		c2.6-1.8,5.4-3.6,7.6-5.9c2.3-2.3,4.1-5,5.9-7.7c2.5-3.7,4.8-7.1,8-9c3.1-1.8,7.3-2.1,11.7-2.4c3.2-0.2,6.5-0.4,9.7-1.3
		c3-0.8,5.9-2.2,8.7-3.6c1.2-0.6,2.4-1.2,3.5-1.7c0.2-0.9,0.5-1.8,1-2.6C74.7,7.2,73,8.1,71.1,9c-2.7,1.3-5.5,2.7-8.4,3.5
		c-3,0.8-6.2,1-9.3,1.2c-4.6,0.3-9,0.6-12.5,2.7c-3.6,2.1-6.1,5.8-8.7,9.6c-1.7,2.6-3.5,5.2-5.6,7.4c-2.1,2.1-4.8,3.9-7.3,5.6
		c-3.9,2.6-7.5,5.1-9.6,8.7C7.6,51.2,7.3,55.6,7,60.2c-0.2,3.1-0.4,7.1-1.2,10.1c-0.1,0.4-0.2,0.2-0.4,2.1h2.1
		c0.1,0,0.2-1.3,0.2-1.6C8.5,67.6,8.7,63.5,8.9,60.3"/>
	<path clip-path="url(#SVGID_2_)" fill="#266141" d="M61.9,54.7l17.4-36.8c-2.3-1.5-3.9-4.1-3.9-7.1c0-0.3,0-0.5,0-0.7
		c-1,0.5-2,1-3,1.5c-2.8,1.4-5.8,2.8-8.9,3.7c-3.2,0.9-6.6,1.1-9.8,1.3c-4.3,0.3-8.4,0.6-11.3,2.3c-3.1,1.8-5.3,5.2-7.7,8.8
		c-1.8,2.7-3.6,5.4-6,7.8c-2.3,2.3-5.1,4.2-7.8,6c-3.6,2.4-7,4.7-8.8,7.7c-1.7,3-2,7-2.3,11.3C9.5,63.6,9.3,67.8,8.4,71
		c-0.1,0.2-0.1,1.4-0.2,1.4h47.4c-3.3-4.6-7.4-12.8-8.3-21.9C53.2,52.7,58.4,53.6,61.9,54.7"/>
	<path clip-path="url(#SVGID_2_)" fill="#266141" d="M100.4,56.1l-9.5,0l-11.3,5.7l0.6-4.3l-7.7,2.7l2.6-4l-7.7,0
		c-2.3,3.2-3.6,7.8-3.6,12c0,1.2,0.1,2.4,0.3,4.2h39.5c0.2-1.8,0.3-3,0.3-4.2C104,64,102.7,59.3,100.4,56.1 M76.2,69.6
		c-1.9,0-3.4-1.5-3.4-3.4c0-1.9,1.5-3.4,3.4-3.4c1.9,0,3.4,1.5,3.4,3.4C79.6,68.1,78.1,69.6,76.2,69.6 M91.5,69.6
		c-1.9,0-3.4-1.5-3.4-3.4c0-1.9,1.5-3.4,3.4-3.4c1.9,0,3.4,1.5,3.4,3.4C94.8,68.1,93.3,69.6,91.5,69.6"/>
	<path clip-path="url(#SVGID_2_)" fill="#266141" d="M88.4,17.9L106,54.6c3.5-1.1,8.6-2,14.3-4.2c-0.9,9.2-5,17.4-8.3,22h47
		c-0.1,0-0.1-1.2-0.2-1.4c-0.9-3.2-1.1-7-1.3-10.2c-0.3-4.3-0.6-8.6-2.3-11.5c-1.8-3.1-5.2-5.4-8.8-7.8c-2.7-1.8-5.5-3.7-7.8-6
		c-2.3-2.3-4.2-5.1-6-7.8c-2.4-3.6-4.7-7-7.7-8.8c-3-1.7-7-2-11.3-2.3c-3.2-0.2-6.6-0.5-9.8-1.3c-3.1-0.8-6-2.3-8.9-3.7
		c-0.9-0.4-1.8-0.9-2.7-1.3c0,0.2,0,0.4,0,0.6C92.3,13.8,90.7,16.4,88.4,17.9"/>
	<path clip-path="url(#SVGID_2_)" fill="#266141" d="M83.8,13.8c1.7,0,3-1.4,3-3c0-1.7-1.4-3-3-3c-1.7,0-3,1.4-3,3
		C80.8,12.4,82.2,13.8,83.8,13.8"/>
	<path clip-path="url(#SVGID_2_)" fill="#266141" d="M112.7,58.2c-1.7,0.6-3.2,1.1-4.5,1.5c0.6,1.7,0.9,3.5,1.1,5.4
		C110.5,63.1,111.7,60.8,112.7,58.2"/>
	<polygon clip-path="url(#SVGID_2_)" fill="#266141" points="83.8,20.9 74.3,41 93.5,41 	"/>
	<path clip-path="url(#SVGID_2_)" fill="#266141" d="M58.5,65.3c0.2-1.9,0.5-3.8,1.1-5.6c-1.4-0.4-2.9-1-4.7-1.6
		C56,60.9,57.3,63.3,58.5,65.3"/>
	<polygon clip-path="url(#SVGID_2_)" fill="#266141" points="95.8,45.6 72.1,45.6 69.8,50.6 98.1,50.6 	"/>
	<path clip-path="url(#SVGID_2_)" fill="#FFFFFF" d="M111.7,149.5c-0.1,0-0.1,0-0.2,0c-7.6-3-17.4-4.6-27.8-4.6
		c-0.3,0-0.6-0.3-0.6-0.6c0-0.3,0.3-0.6,0.6-0.6c10.5,0,20.6,1.7,28.3,4.7c0.3,0.1,0.5,0.5,0.3,0.8
		C112.1,149.3,111.9,149.5,111.7,149.5"/>
	<path clip-path="url(#SVGID_2_)" fill="#FFFFFF" d="M55.7,149.5c-0.2,0-0.5-0.1-0.6-0.4c-0.1-0.3,0-0.7,0.3-0.8
		c7.7-3,17.7-4.7,28.3-4.7c0.3,0,0.6,0.3,0.6,0.6c0,0.3-0.3,0.6-0.6,0.6c-10.4,0-20.3,1.6-27.8,4.6
		C55.9,149.5,55.8,149.5,55.7,149.5"/>
	<polygon clip-path="url(#SVGID_2_)" fill="#9C182F" points="6.8,87.9 8,87.9 8,80.9 6.1,80.9 6.1,82.3 4.6,82.3 4.6,79.4 
		13.3,79.4 13.3,82.3 11.7,82.3 11.7,80.9 9.8,80.9 9.8,87.9 11,87.9 11,89.3 6.8,89.3 	"/>
	<polygon clip-path="url(#SVGID_2_)" fill="#9C182F" points="14.3,87.9 15.5,87.9 15.5,80.8 14.3,80.8 14.3,79.4 18.6,79.4 
		18.6,80.8 17.4,80.8 17.4,83.6 21.9,83.6 21.9,80.8 20.7,80.8 20.7,79.4 24.9,79.4 24.9,80.8 23.7,80.8 23.7,87.9 24.9,87.9 
		24.9,89.3 20.7,89.3 20.7,87.9 21.9,87.9 21.9,85.1 17.4,85.1 17.4,87.9 18.6,87.9 18.6,89.3 14.3,89.3 	"/>
	<polygon clip-path="url(#SVGID_2_)" fill="#9C182F" points="26.3,87.9 27.5,87.9 27.5,80.8 26.3,80.8 26.3,79.4 33.6,79.4 
		33.6,81.9 32.1,81.9 32.1,80.9 29.3,80.9 29.3,83.6 32.5,83.6 32.5,85 29.3,85 29.3,87.8 32.3,87.8 32.3,86.7 33.8,86.7 33.8,89.3 
		26.3,89.3 	"/>
	<path clip-path="url(#SVGID_2_)" fill="#9C182F" d="M43.7,79.2c1.2,0,3.9,0.4,3.9,2v1.3h-1.7v-0.8c0-0.7-1.3-1-2.1-1
		c-1.9,0-3.3,1.3-3.3,3.4c0,2.2,1.5,3.7,3.4,3.7c0.6,0,2.1-0.2,2.1-1v-0.8h1.7v1.4c0,1.5-2.6,2-3.9,2c-3,0-5.2-2.3-5.2-5.2
		C38.6,81.4,40.8,79.2,43.7,79.2"/>
	<polygon clip-path="url(#SVGID_2_)" fill="#9C182F" points="49.1,87.9 50.3,87.9 50.3,80.8 49.1,80.8 49.1,79.4 53.3,79.4 
		53.3,80.8 52.1,80.8 52.1,83.6 56.6,83.6 56.6,80.8 55.4,80.8 55.4,79.4 59.6,79.4 59.6,80.8 58.4,80.8 58.4,87.9 59.6,87.9 
		59.6,89.3 55.4,89.3 55.4,87.9 56.6,87.9 56.6,85.1 52.1,85.1 52.1,87.9 53.3,87.9 53.3,89.3 49.1,89.3 	"/>
	<path clip-path="url(#SVGID_2_)" fill="#9C182F" d="M61,87.9h1.2v-7.2H61v-1.4h4.4c0.7,0,1.3,0,1.9,0.2c1.1,0.4,1.8,1.3,1.8,2.7
		c0,1.4-0.7,2.4-1.9,2.7v0c0,0,0.3,0.2,0.5,0.5l1.1,2.1c0.1,0.3,0.3,0.3,0.7,0.3h0.3v1.4h-1.2c-0.8,0-1.1-0.2-1.4-0.7L65.9,86
		c-0.2-0.4-0.4-0.5-1-0.5H64v2.4h1.1v1.4H61V87.9z M65.7,84c1,0,1.6-0.6,1.6-1.6c0-0.6-0.2-1.1-0.8-1.4c-0.3-0.1-0.7-0.2-1.1-0.2H64
		V84H65.7z"/>
	<polygon clip-path="url(#SVGID_2_)" fill="#9C182F" points="70.9,87.9 72.1,87.9 72.1,80.8 70.9,80.8 70.9,79.4 75.1,79.4 
		75.1,80.8 73.9,80.8 73.9,87.9 75.1,87.9 75.1,89.3 70.9,89.3 	"/>
	<path clip-path="url(#SVGID_2_)" fill="#9C182F" d="M78.2,86.1v0.7c0,0.6,0.8,1,1.7,1c1,0,1.7-0.4,1.7-1.2c0-1-1.1-1.3-2.3-1.8
		c-1.3-0.5-2.6-1.1-2.6-2.9c0-2,1.6-2.8,3.3-2.8c1.6,0,3.1,0.6,3.1,1.7v1.3h-1.7v-0.7c0-0.5-0.7-0.8-1.5-0.8c-0.8,0-1.5,0.3-1.5,1.1
		c0,0.9,0.9,1.2,2,1.6c1.5,0.5,3,1.1,3,3c0,2-1.7,3-3.6,3c-1.6,0-3.4-0.7-3.4-2.2v-1.1H78.2z"/>
	<polygon clip-path="url(#SVGID_2_)" fill="#9C182F" points="86.8,87.9 88,87.9 88,80.9 86.1,80.9 86.1,82.3 84.5,82.3 84.5,79.4 
		93.2,79.4 93.2,82.3 91.7,82.3 91.7,80.9 89.8,80.9 89.8,87.9 91,87.9 91,89.3 86.8,89.3 	"/>
	<path clip-path="url(#SVGID_2_)" fill="#9C182F" d="M94.1,87.9h1.2l0.6-7.2h-1.2v-1.4h3.2l2.2,5.6c0.2,0.5,0.2,0.8,0.2,0.8h0
		c0,0,0.1-0.3,0.3-0.8l2.2-5.6h3.2v1.4h-1.2l0.6,7.2h1.2v1.4h-4.1v-1.4h1.1l-0.4-5c0-0.3,0-0.9,0-0.9h0c0,0-0.1,0.5-0.2,0.9
		l-1.9,4.6h-1.6l-1.9-4.6c-0.1-0.3-0.2-0.9-0.2-0.9h-0.1c0,0,0.1,0.6,0,0.9l-0.4,5h1.1v1.4h-4.1V87.9z"/>
	<path clip-path="url(#SVGID_2_)" fill="#9C182F" d="M107.3,87.9h0.9l3-8.5h2.1l3,8.5h0.9v1.4h-3.7v-1.4h1l-0.6-1.9h-3.1l-0.6,1.9h1
		v1.4h-3.7V87.9z M113.3,84.6l-0.9-2.8c-0.2-0.5-0.2-0.9-0.2-0.9h0c0,0,0,0.4-0.2,0.9l-0.9,2.8H113.3z"/>
	<path clip-path="url(#SVGID_2_)" fill="#9C182F" d="M119.6,86.1v0.7c0,0.6,0.8,1,1.7,1c1,0,1.7-0.4,1.7-1.2c0-1-1.1-1.3-2.3-1.8
		c-1.3-0.5-2.6-1.1-2.6-2.9c0-2,1.6-2.8,3.3-2.8c1.6,0,3.1,0.6,3.1,1.7v1.3H123v-0.7c0-0.5-0.7-0.8-1.5-0.8c-0.8,0-1.5,0.3-1.5,1.1
		c0,0.9,0.9,1.2,2,1.6c1.5,0.5,3,1.1,3,3c0,2-1.7,3-3.6,3c-1.6,0-3.4-0.7-3.4-2.2v-1.1H119.6z"/>
	<polygon clip-path="url(#SVGID_2_)" fill="#9C182F" points="129.8,87.9 131,87.9 131,80.8 129.8,80.8 129.8,79.4 137.1,79.4 
		137.1,81.9 135.6,81.9 135.6,80.9 132.8,80.9 132.8,83.6 136,83.6 136,85 132.8,85 132.8,87.8 135.8,87.8 135.8,86.7 137.3,86.7 
		137.3,89.3 129.8,89.3 	"/>
	<polygon clip-path="url(#SVGID_2_)" fill="#9C182F" points="138.7,87.9 139.9,87.9 139.9,80.9 138.7,80.9 138.7,79.4 142.9,79.4 
		142.9,80.9 141.7,80.9 141.7,87.8 144.7,87.8 144.7,86.3 146.2,86.3 146.2,89.3 138.7,89.3 	"/>
	<polygon clip-path="url(#SVGID_2_)" fill="#9C182F" points="147.3,87.9 148.4,87.9 148.4,80.8 147.3,80.8 147.3,79.4 154.3,79.4 
		154.3,82 152.8,82 152.8,80.9 150.3,80.9 150.3,83.8 153.5,83.8 153.5,85.2 150.3,85.2 150.3,87.9 151.6,87.9 151.6,89.3 
		147.3,89.3 	"/>
	<path clip-path="url(#SVGID_2_)" fill="#9C182F" d="M157.1,86.1v0.7c0,0.6,0.8,1,1.7,1c1,0,1.7-0.4,1.7-1.2c0-1-1.1-1.3-2.3-1.8
		c-1.3-0.5-2.6-1.1-2.6-2.9c0-2,1.6-2.8,3.3-2.8c1.6,0,3.1,0.6,3.1,1.7v1.3h-1.7v-0.7c0-0.5-0.7-0.8-1.5-0.8c-0.8,0-1.5,0.3-1.5,1.1
		c0,0.9,0.9,1.2,2,1.6c1.5,0.5,3,1.1,3,3c0,2-1.7,3-3.6,3c-1.6,0-3.4-0.7-3.4-2.2v-1.1H157.1z"/>
</g>
<g>
	<defs>
		<rect id="SVGID_3_" width="166" height="166"/>
	</defs>
	<clipPath id="SVGID_4_">
		<use xlink:href="#SVGID_3_"  overflow="visible"/>
	</clipPath>
	<path clip-path="url(#SVGID_4_)" fill="#9C182F" d="M5.7,98.4c0.8,3,1,6.5,1.2,9.6c0.3,4.6,0.6,9.2,2.7,12.7
		c2.1,3.6,5.8,6.1,9.6,8.7c2.6,1.7,5.2,3.5,7.4,5.7c2.1,2.1,3.9,4.8,5.6,7.4c2.6,3.9,5,7.5,8.7,9.6c3.6,2.1,7.9,2.4,12.6,2.7
		c3.1,0.2,6.3,0.4,9.3,1.2c2.8,0.8,5.7,2.1,8.4,3.5c4.2,2.1,8.2,4.1,12.5,4.1c4.3,0,8.3-2,12.5-4.1c2.7-1.3,5.5-2.7,8.4-3.5
		c3-0.8,6.2-1,9.3-1.2c4.6-0.3,9-0.6,12.5-2.7c3.6-2.1,6.1-5.8,8.7-9.6c1.7-2.6,3.5-5.2,5.6-7.4c2.1-2.1,4.8-3.9,7.3-5.6
		c3.9-2.6,7.5-5.1,9.6-8.7c2.1-3.5,2.4-7.9,2.7-12.6c0.2-3.1,0.4-7,1.2-10c0.1-0.4,0.2-1.9,0.4-1.9H5.3C5.5,96.4,5.6,98,5.7,98.4"/>
	<path clip-path="url(#SVGID_4_)" fill="#FFFFFF" d="M7.1,96.6c0.2,0.7,0.4,1.3,0.6,1.9c0.8,3.2,1.1,6.5,1.3,9.7
		c0.3,4.4,0.6,8.5,2.4,11.7c1.9,3.2,5.3,5.5,9,8c2.6,1.8,5.4,3.6,7.7,5.9c2.3,2.3,4.1,5,5.9,7.7c2.5,3.7,4.8,7.2,8,9
		c3.2,1.8,7.3,2.1,11.7,2.4c3.2,0.2,6.5,0.4,9.7,1.3c3,0.8,5.9,2.2,8.7,3.6c4,2,7.8,3.8,11.6,3.8c3.8,0,7.6-1.9,11.6-3.8
		c2.8-1.4,5.7-2.8,8.7-3.6c3.2-0.8,6.5-1.1,9.7-1.3c4.4-0.3,8.5-0.6,11.7-2.4c3.2-1.9,5.5-5.3,8-9c1.8-2.6,3.6-5.4,5.9-7.7
		c2.3-2.3,5-4.1,7.6-5.9c3.7-2.5,7.2-4.8,9-8c1.8-3.1,2.1-7.3,2.4-11.7c0.2-3.2,0.4-6.5,1.3-9.7c0.2-0.6,0.3-1.2,0.6-1.9H7.1z"/>
	<path clip-path="url(#SVGID_4_)" fill="#266141" d="M8.4,97.6c0.9,3.2,1.1,6.9,1.3,10.1c0.3,4.3,0.6,8.5,2.3,11.5
		c1.8,3,5.2,5.4,8.8,7.8c2.7,1.8,5.5,3.7,7.8,6c2.3,2.3,4.2,5.1,6,7.8c2.4,3.6,4.7,7,7.7,8.8c3,1.7,7,2,11.3,2.3
		c3.2,0.2,6.6,0.5,9.8,1.3c3.1,0.8,6,2.3,8.9,3.7c3.9,1.9,7.6,3.8,11.3,3.8c3.7,0,7.4-1.8,11.3-3.8c2.8-1.4,5.8-2.8,8.9-3.7
		c3.2-0.9,6.6-1.1,9.8-1.3c4.3-0.3,8.4-0.6,11.3-2.3c3.1-1.8,5.3-5.2,7.7-8.8c1.8-2.7,3.6-5.4,6-7.8c2.3-2.3,5.1-4.2,7.8-6
		c3.6-2.4,7-4.7,8.8-7.7c1.7-3,2-7,2.3-11.3c0.2-3.2,0.5-7.2,1.3-10.5c0.1-0.2,0.1-1.3,0.2-1.3H8.2C8.3,96.4,8.4,97.4,8.4,97.6"/>
	<path clip-path="url(#SVGID_4_)" fill="#FFFFFF" d="M77.6,139.9l3.7-4.8H79l3.1-4h-1.7l3.2-4.5l3.2,4.5h-1.7l3.1,4H86l3.7,4.8H77.6
		z M88.5,133.8l0.8-1.1l1.8,2.9h-1.4l2.6,4.3h-1.5l0.8,1h2.5l-2.7-4.3h1.4l-3.5-5.7l-1.5,2.1L88.5,133.8z M88.6,144.2h1.5v-2.6h-1.5
		V144.2z M79.4,133l-1.5-2.1l-3.5,5.7h1.4l-2.7,4.3h2.5l0.7-1H75l2.6-4.3h-1.4l1.8-2.9l0.8,1.1L79.4,133z M78.7,141.5h-1.5v2.6h1.5
		V141.5z M84.6,140.8h-1.9v3.4h1.9V140.8z M83.1,124.3l-1.2,0.2l0.9,0.8l-0.2,1.2l1.1-0.6l1.1,0.6l-0.2-1.2l0.9-0.8l-1.2-0.2
		l-0.5-1.1L83.1,124.3z"/>
	<path clip-path="url(#SVGID_4_)" fill="#FFFFFF" d="M52.1,107.6v0.4c0,0.5,0.6,0.7,1.2,0.7c0.7,0,1.3-0.4,1.3-1
		c0-0.7-0.7-1-1.4-1.3c-0.7-0.3-1.5-0.6-1.5-1.6s0.8-1.5,1.7-1.5c0.8,0,1.6,0.3,1.6,0.9v0.6h-0.5v-0.4c0-0.4-0.6-0.5-1.1-0.5
		c-0.6,0-1.1,0.3-1.1,0.9c0,0.7,0.6,0.9,1.3,1.2c0.8,0.3,1.6,0.6,1.6,1.6c0,1-0.8,1.6-1.8,1.6c-0.8,0-1.8-0.4-1.8-1.1v-0.5H52.1z"/>
	<polygon clip-path="url(#SVGID_4_)" fill="#FFFFFF" points="57.2,108.7 57.9,108.7 57.9,104 56.4,104 56.4,105 55.9,105 
		55.9,103.6 60.6,103.6 60.6,105 60.1,105 60.1,104 58.5,104 58.5,108.7 59.2,108.7 59.2,109.2 57.2,109.2 	"/>
	<path clip-path="url(#SVGID_4_)" fill="#FFFFFF" d="M60.5,108.7h0.6l1.9-5.1h0.6l1.9,5.1H66v0.5h-1.8v-0.5h0.6l-0.5-1.4h-2.2
		l-0.5,1.4h0.6v0.5h-1.8V108.7z M64.2,106.8l-0.8-2.3c-0.1-0.2-0.1-0.4-0.1-0.4h0c0,0,0,0.2-0.1,0.4l-0.9,2.3H64.2z"/>
	<path clip-path="url(#SVGID_4_)" fill="#FFFFFF" d="M66.5,108.7h0.7V104h-0.7v-0.5h2.4c0.4,0,0.7,0,1,0.1c0.5,0.2,0.9,0.7,0.9,1.4
		c0,0.8-0.5,1.5-1.2,1.6v0c0,0,0.1,0.1,0.2,0.2l0.9,1.6c0.1,0.2,0.2,0.2,0.4,0.2h0.2v0.5H71c-0.5,0-0.6-0.1-0.8-0.4l-0.9-1.6
		c-0.2-0.3-0.3-0.3-0.6-0.3h-0.8v1.9h0.7v0.5h-2V108.7z M69.1,106.3c0.7,0,1.1-0.5,1.1-1.2c0-0.5-0.2-0.8-0.6-1
		c-0.2-0.1-0.5-0.1-0.7-0.1h-1.1v2.3H69.1z"/>
	<polygon clip-path="url(#SVGID_4_)" fill="#FFFFFF" points="73.1,108.7 73.8,108.7 73.8,104 72.3,104 72.3,105 71.8,105 
		71.8,103.6 76.5,103.6 76.5,105 76,105 76,104 74.4,104 74.4,108.7 75.1,108.7 75.1,109.2 73.1,109.2 	"/>
	<path clip-path="url(#SVGID_4_)" fill="#FFFFFF" d="M78.8,108.7h0.6l1.9-5.1h0.6l1.9,5.1h0.6v0.5h-1.8v-0.5h0.6l-0.5-1.4h-2.2
		l-0.5,1.4h0.6v0.5h-1.8V108.7z M82.5,106.8l-0.8-2.3c-0.1-0.2-0.1-0.4-0.1-0.4h0c0,0,0,0.2-0.1,0.4l-0.9,2.3H82.5z"/>
	<polygon clip-path="url(#SVGID_4_)" fill="#FFFFFF" points="86.8,108.7 87.6,108.7 87.6,104 86.8,104 86.8,103.6 90.6,103.6 
		90.6,104.8 90.1,104.8 90.1,104.1 88.1,104.1 88.1,106.2 90.2,106.2 90.2,106.7 88.1,106.7 88.1,108.7 88.9,108.7 88.9,109.2 
		86.8,109.2 	"/>
	<path clip-path="url(#SVGID_4_)" fill="#FFFFFF" d="M90.7,108.7h0.6l1.9-5.1h0.6l1.9,5.1h0.6v0.5h-1.8v-0.5h0.6l-0.5-1.4h-2.2
		l-0.5,1.4h0.6v0.5h-1.8V108.7z M94.4,106.8l-0.8-2.3c-0.1-0.2-0.1-0.4-0.1-0.4h0c0,0,0,0.2-0.1,0.4l-0.9,2.3H94.4z"/>
	<path clip-path="url(#SVGID_4_)" fill="#FFFFFF" d="M96.6,108.7h0.7l0.4-4.7H97v-0.5h1.3l1.6,3.7c0.1,0.2,0.1,0.3,0.1,0.3h0
		c0,0,0-0.1,0.1-0.3l1.6-3.7h1.3v0.5h-0.7l0.4,4.7h0.7v0.5h-2v-0.5h0.7l-0.3-3.9c0-0.1,0-0.4,0-0.4h0c0,0-0.1,0.2-0.1,0.4l-1.5,3.3
		h-0.5l-1.5-3.3c-0.1-0.1-0.1-0.4-0.1-0.4h0c0,0,0,0.3,0,0.4l-0.3,3.9h0.7v0.5h-2V108.7z"/>
	<polygon clip-path="url(#SVGID_4_)" fill="#FFFFFF" points="104.2,108.7 105,108.7 105,104 104.2,104 104.2,103.6 106.3,103.6 
		106.3,104 105.5,104 105.5,108.7 106.3,108.7 106.3,109.2 104.2,109.2 	"/>
	<polygon clip-path="url(#SVGID_4_)" fill="#FFFFFF" points="107.1,108.7 107.8,108.7 107.8,104 107.1,104 107.1,103.6 109.1,103.6 
		109.1,104 108.4,104 108.4,108.7 110.6,108.7 110.6,107.8 111.2,107.8 111.2,109.2 107.1,109.2 	"/>
	<path clip-path="url(#SVGID_4_)" fill="#FFFFFF" d="M112.6,108.7h0.7v-1.9l-1.6-2.7h-0.6v-0.5h1.8v0.5h-0.6l1.2,2
		c0.1,0.1,0.1,0.2,0.1,0.2h0c0,0,0-0.1,0.1-0.2l1.2-2h-0.6v-0.5h1.8v0.5h-0.5l-1.7,2.7v1.9h0.7v0.5h-2V108.7z"/>
	<polygon clip-path="url(#SVGID_4_)" fill="#FFFFFF" points="46.9,118.3 47.6,118.3 47.6,113.6 46,113.6 46,114.5 45.5,114.5 
		45.5,113.1 50.2,113.1 50.2,114.5 49.7,114.5 49.7,113.6 48.1,113.6 48.1,118.3 48.9,118.3 48.9,118.7 46.9,118.7 	"/>
	<path clip-path="url(#SVGID_4_)" fill="#FFFFFF" d="M50.9,118.3h0.7v-4.7h-0.7v-0.5h2.4c0.4,0,0.7,0,1,0.1c0.5,0.2,0.9,0.7,0.9,1.4
		c0,0.8-0.5,1.5-1.2,1.6v0c0,0,0.1,0.1,0.2,0.2l0.9,1.6c0.1,0.2,0.2,0.2,0.4,0.2h0.2v0.5h-0.3c-0.5,0-0.6-0.1-0.8-0.4l-0.9-1.6
		c-0.2-0.3-0.3-0.3-0.6-0.3h-0.8v1.9h0.7v0.5h-2V118.3z M53.5,115.9c0.7,0,1.1-0.5,1.1-1.2c0-0.5-0.2-0.8-0.6-1
		c-0.2-0.1-0.5-0.1-0.7-0.1h-1.1v2.3H53.5z"/>
	<path clip-path="url(#SVGID_4_)" fill="#FFFFFF" d="M56,118.3h0.6l1.9-5.1h0.6l1.9,5.1h0.6v0.5h-1.8v-0.5h0.6l-0.5-1.4h-2.2
		l-0.5,1.4h0.6v0.5H56V118.3z M59.7,116.4l-0.8-2.3c-0.1-0.2-0.1-0.4-0.1-0.4h0c0,0,0,0.2-0.1,0.4l-0.9,2.3H59.7z"/>
	<path clip-path="url(#SVGID_4_)" fill="#FFFFFF" d="M62.1,118.3h0.7v-4.7h-0.7v-0.5h2.4c0.5,0,0.8,0,1.2,0.1
		c1.1,0.3,1.7,1.3,1.7,2.7c0,1.4-0.7,2.3-1.8,2.7c-0.4,0.1-0.7,0.1-1.1,0.1h-2.4V118.3z M64.4,118.3c0.4,0,0.7,0,1-0.1
		c0.9-0.3,1.4-1.1,1.4-2.2c0-1.1-0.5-1.9-1.4-2.2c-0.3-0.1-0.6-0.1-1-0.1h-1v4.6H64.4z"/>
	<polygon clip-path="url(#SVGID_4_)" fill="#FFFFFF" points="68.2,118.3 68.9,118.3 68.9,113.6 68.2,113.6 68.2,113.1 70.2,113.1 
		70.2,113.6 69.5,113.6 69.5,118.3 70.2,118.3 70.2,118.7 68.2,118.7 	"/>
	<polygon clip-path="url(#SVGID_4_)" fill="#FFFFFF" points="72.3,118.3 73,118.3 73,113.6 71.4,113.6 71.4,114.5 70.9,114.5 
		70.9,113.1 75.6,113.1 75.6,114.5 75.1,114.5 75.1,113.6 73.6,113.6 73.6,118.3 74.3,118.3 74.3,118.7 72.3,118.7 	"/>
	<polygon clip-path="url(#SVGID_4_)" fill="#FFFFFF" points="76.3,118.3 77,118.3 77,113.6 76.3,113.6 76.3,113.1 78.3,113.1 
		78.3,113.6 77.6,113.6 77.6,118.3 78.3,118.3 78.3,118.7 76.3,118.7 	"/>
	<path clip-path="url(#SVGID_4_)" fill="#FFFFFF" d="M82,113c1.6,0,2.9,1.3,2.9,2.9c0,1.6-1.3,2.9-2.9,2.9c-1.6,0-2.9-1.3-2.9-2.9
		C79.1,114.3,80.4,113,82,113 M82,118.3c1.3,0,2.3-1.1,2.3-2.4c0-1.3-1-2.4-2.3-2.4c-1.3,0-2.3,1-2.3,2.4
		C79.7,117.3,80.7,118.3,82,118.3"/>
	<path clip-path="url(#SVGID_4_)" fill="#FFFFFF" d="M85.7,118.3h0.7v-4.7h-0.7v-0.5h1.3l3.1,4.4c0.1,0.1,0.2,0.3,0.2,0.3h0
		c0,0,0-0.2,0-0.4v-3.9h-0.7v-0.5h2v0.5h-0.7v5.1h-0.5l-3.1-4.4c-0.1-0.1-0.2-0.3-0.2-0.3h0c0,0,0,0.2,0,0.4v3.9h0.7v0.5h-2V118.3z"
		/>
	<polygon clip-path="url(#SVGID_4_)" fill="#FFFFFF" points="95.5,118.3 96.2,118.3 96.2,113.6 94.6,113.6 94.6,114.5 94.1,114.5 
		94.1,113.1 98.8,113.1 98.8,114.5 98.3,114.5 98.3,113.6 96.7,113.6 96.7,118.3 97.5,118.3 97.5,118.7 95.5,118.7 	"/>
	<path clip-path="url(#SVGID_4_)" fill="#FFFFFF" d="M102.4,113c1.6,0,2.9,1.3,2.9,2.9c0,1.6-1.3,2.9-2.9,2.9
		c-1.6,0-2.9-1.3-2.9-2.9C99.5,114.3,100.8,113,102.4,113 M102.4,118.3c1.3,0,2.3-1.1,2.3-2.4c0-1.3-1-2.4-2.3-2.4
		c-1.3,0-2.3,1-2.3,2.4C100.1,117.3,101.1,118.3,102.4,118.3"/>
	<path clip-path="url(#SVGID_4_)" fill="#FFFFFF" d="M106,118.3h0.7v-4.7H106v-0.5h2.4c0.5,0,0.8,0,1.2,0.1c1.1,0.3,1.7,1.3,1.7,2.7
		c0,1.4-0.7,2.3-1.8,2.7c-0.4,0.1-0.7,0.1-1.1,0.1H106V118.3z M108.3,118.3c0.4,0,0.7,0,1-0.1c0.9-0.3,1.4-1.1,1.4-2.2
		c0-1.1-0.5-1.9-1.4-2.2c-0.3-0.1-0.6-0.1-1-0.1h-1v4.6H108.3z"/>
	<path clip-path="url(#SVGID_4_)" fill="#FFFFFF" d="M111.7,118.3h0.6l1.9-5.1h0.6l1.9,5.1h0.6v0.5h-1.8v-0.5h0.6l-0.5-1.4h-2.2
		l-0.5,1.4h0.6v0.5h-1.8V118.3z M115.4,116.4l-0.8-2.3c-0.1-0.2-0.1-0.4-0.1-0.4h0c0,0,0,0.2-0.1,0.4l-0.9,2.3H115.4z"/>
	<path clip-path="url(#SVGID_4_)" fill="#FFFFFF" d="M118.4,118.3h0.7v-1.9l-1.6-2.7H117v-0.5h1.8v0.5h-0.6l1.2,2
		c0.1,0.1,0.1,0.2,0.1,0.2h0c0,0,0-0.1,0.1-0.2l1.2-2h-0.6v-0.5h1.8v0.5h-0.5l-1.7,2.7v1.9h0.7v0.5h-2V118.3z"/>
	<path clip-path="url(#SVGID_4_)" fill="#9C182F" d="M161.5,70.3c-0.8-3-1-6.6-1.2-9.7c-0.3-4.6-0.6-9.2-2.7-12.7
		c-2.1-3.6-5.8-6.2-9.6-8.7c-2.6-1.7-5.2-3.5-7.4-5.7c-2.1-2.1-3.9-4.8-5.6-7.4c-2.6-3.9-5-7.6-8.7-9.6c-3.6-2.1-7.9-2.4-12.6-2.7
		c-3.1-0.2-6.3-0.4-9.3-1.2c-2.8-0.8-5.7-2.1-8.4-3.5c-4.2-2.1-8.2-4.1-12.5-4.1c-4.3,0-8.3,2-12.5,4c-2.7,1.3-5.5,2.7-8.4,3.5
		c-3,0.8-6.2,1-9.3,1.2c-4.6,0.3-9,0.6-12.5,2.7c-3.6,2.1-6.1,5.8-8.7,9.6c-1.7,2.6-3.5,5.2-5.6,7.4c-2.1,2.1-4.8,3.9-7.3,5.6
		c-3.9,2.6-7.5,5.1-9.6,8.7C7.6,51.2,7.3,55.6,7,60.2c-0.2,3.1-0.4,7.1-1.2,10.1c-0.1,0.4-0.2,0.2-0.4,2.1h156.6
		C161.8,70.5,161.7,70.7,161.5,70.3"/>
	<path clip-path="url(#SVGID_4_)" fill="#FFFFFF" d="M160.2,71.9c-0.2-0.7-0.4-1.3-0.6-1.9c-0.8-3.2-1.1-6.5-1.3-9.7
		c-0.3-4.4-0.6-8.6-2.4-11.7c-1.9-3.2-5.3-5.5-9-8c-2.6-1.8-5.4-3.6-7.7-5.9c-2.3-2.3-4.1-5-5.9-7.7c-2.5-3.7-4.8-7.2-8-9
		c-3.2-1.8-7.3-2.1-11.7-2.4c-3.2-0.2-6.5-0.4-9.7-1.3c-3-0.8-5.9-2.2-8.7-3.6c-4-2-7.8-3.8-11.6-3.8S76,8.8,72,10.8
		c-2.8,1.4-5.7,2.8-8.7,3.6c-3.2,0.8-6.5,1.1-9.7,1.3c-4.4,0.3-8.5,0.6-11.7,2.4c-3.2,1.9-5.5,5.3-8,9c-1.8,2.6-3.6,5.4-5.9,7.7
		c-2.3,2.3-5,4.1-7.6,5.9c-3.7,2.5-7.2,4.8-9,8C9.5,51.8,9.2,56,8.9,60.3c-0.2,3.2-0.4,6.5-1.3,9.7c-0.1,0.6-0.3,1.2-0.6,1.9H160.2z
		"/>
	<path clip-path="url(#SVGID_4_)" fill="#266141" d="M158.8,71c-0.9-3.2-1.1-7-1.3-10.2c-0.3-4.3-0.6-8.6-2.3-11.5
		c-1.8-3.1-5.2-5.4-8.8-7.8c-2.7-1.8-5.5-3.7-7.8-6c-2.3-2.3-4.2-5.1-6-7.8c-2.4-3.6-4.7-7-7.7-8.8c-3-1.7-7-2-11.3-2.3
		c-3.2-0.2-6.6-0.5-9.8-1.3c-3.1-0.8-6-2.3-8.9-3.7C91,9.6,87.3,7.7,83.6,7.7c-3.7,0-7.4,1.8-11.3,3.8c-2.8,1.4-5.8,2.8-8.9,3.7
		c-3.2,0.9-6.6,1.1-9.8,1.3c-4.3,0.3-8.4,0.6-11.3,2.3c-3.1,1.8-5.3,5.2-7.7,8.8c-1.8,2.7-3.6,5.4-6,7.8c-2.3,2.3-5.1,4.2-7.8,6
		c-3.6,2.4-7,4.7-8.8,7.7c-1.7,3-2,7-2.3,11.3C9.5,63.6,9.3,67.8,8.4,71c-0.1,0.2-0.1,1.4-0.2,1.4H159C159,72.4,158.9,71.2,158.8,71
		"/>
</g>
<g>
	<defs>
		<rect id="SVGID_5_" x="43" width="79.3" height="72.4"/>
	</defs>
	<clipPath id="SVGID_6_">
		<use xlink:href="#SVGID_5_"  overflow="visible"/>
	</clipPath>
	<path clip-path="url(#SVGID_6_)" fill="#FFFFFF" d="M76.2,62.9c-1.9,0-3.4,1.5-3.4,3.4c0,1.9,1.5,3.4,3.4,3.4
		c1.9,0,3.4-1.5,3.4-3.4C79.6,64.4,78.1,62.9,76.2,62.9"/>
	<path clip-path="url(#SVGID_6_)" fill="#FFFFFF" d="M91.5,62.9c-1.9,0-3.4,1.5-3.4,3.4c0,1.9,1.5,3.4,3.4,3.4
		c1.9,0,3.4-1.5,3.4-3.4C94.8,64.4,93.3,62.9,91.5,62.9"/>
	<path clip-path="url(#SVGID_6_)" fill="#FFFFFF" d="M83.9,82.7c2.9,0,5.2-2.9,5.2-4.8H78.6C78.6,79.8,81,82.7,83.9,82.7"/>
	<path clip-path="url(#SVGID_6_)" fill="#FFFFFF" d="M106,54.6L88.4,17.9c2.3-1.5,3.9-4.1,3.9-7.1c0-4.7-3.8-8.5-8.5-8.5
		s-8.5,3.8-8.5,8.5c0,3,1.6,5.6,3.9,7.1L61.9,54.7c-3.5-1.1-8.7-2.8-14.5-5c1.6,15.7,12.6,26.4,12.6,26.4h0
		c3.5,8.3,12.9,16.6,24,16.6c11.2,0,20.6-7.1,24.1-17c1.7-1.7,10.9-11.8,12.3-26C114.6,51.8,109.5,53.5,106,54.6 M58.5,65.3
		c-1.2-2-2.5-4.4-3.6-7.1c1.7,0.6,3.3,1.1,4.7,1.6C59.1,61.5,58.7,63.4,58.5,65.3 M83.8,7.7c1.7,0,3,1.4,3,3c0,1.7-1.4,3-3,3
		c-1.7,0-3-1.4-3-3C80.8,9.1,82.2,7.7,83.8,7.7 M83.8,20.9L93.5,41H74.3L83.8,20.9z M72.1,45.6h23.7l2.3,4.9l-28.3,0L72.1,45.6z
		 M84,87.2c-11.1,0-20.1-8.9-20.1-19.8c0-4.2,1.3-8.1,3.6-11.3l7.7,0l-2.6,4l7.7-2.7l-0.6,4.3l11.3-5.7l9.5,0
		c2.3,3.2,3.6,7.1,3.6,11.3C104,78.3,95,87.2,84,87.2 M108.2,59.7c1.3-0.4,2.8-0.9,4.5-1.5c-1,2.6-2.2,4.9-3.4,6.9
		C109.2,63.2,108.8,61.4,108.2,59.7"/>
</g>
<g>
	<defs>
		<rect id="SVGID_7_" width="166" height="166"/>
	</defs>
	<clipPath id="SVGID_8_">
		<use xlink:href="#SVGID_7_"  overflow="visible"/>
	</clipPath>
	<path clip-path="url(#SVGID_8_)" fill="#FFFFFF" d="M111.7,149.5c-0.1,0-0.1,0-0.2,0c-7.6-3-17.4-4.6-27.8-4.6
		c-0.3,0-0.6-0.3-0.6-0.6c0-0.3,0.3-0.6,0.6-0.6c10.5,0,20.6,1.7,28.3,4.7c0.3,0.1,0.5,0.5,0.3,0.8
		C112.1,149.3,111.9,149.5,111.7,149.5"/>
	<path clip-path="url(#SVGID_8_)" fill="#FFFFFF" d="M55.7,149.5c-0.2,0-0.5-0.1-0.6-0.4c-0.1-0.3,0-0.7,0.3-0.8
		c7.7-3,17.7-4.7,28.3-4.7c0.3,0,0.6,0.3,0.6,0.6c0,0.3-0.3,0.6-0.6,0.6c-10.4,0-20.3,1.6-27.8,4.6
		C55.9,149.5,55.8,149.5,55.7,149.5"/>
	<rect x="0.6" y="72.4" clip-path="url(#SVGID_8_)" fill="#FFFFFF" width="165.1" height="24"/>
	<polygon clip-path="url(#SVGID_8_)" fill="#9C182F" points="6.8,87.9 8,87.9 8,80.9 6.1,80.9 6.1,82.3 4.6,82.3 4.6,79.4 
		13.3,79.4 13.3,82.3 11.7,82.3 11.7,80.9 9.8,80.9 9.8,87.9 11,87.9 11,89.3 6.8,89.3 	"/>
	<polygon clip-path="url(#SVGID_8_)" fill="#9C182F" points="14.3,87.9 15.5,87.9 15.5,80.8 14.3,80.8 14.3,79.4 18.6,79.4 
		18.6,80.8 17.4,80.8 17.4,83.6 21.9,83.6 21.9,80.8 20.7,80.8 20.7,79.4 24.9,79.4 24.9,80.8 23.7,80.8 23.7,87.9 24.9,87.9 
		24.9,89.3 20.7,89.3 20.7,87.9 21.9,87.9 21.9,85.1 17.4,85.1 17.4,87.9 18.6,87.9 18.6,89.3 14.3,89.3 	"/>
	<polygon clip-path="url(#SVGID_8_)" fill="#9C182F" points="26.3,87.9 27.5,87.9 27.5,80.8 26.3,80.8 26.3,79.4 33.6,79.4 
		33.6,81.9 32.1,81.9 32.1,80.9 29.3,80.9 29.3,83.6 32.5,83.6 32.5,85 29.3,85 29.3,87.8 32.3,87.8 32.3,86.7 33.8,86.7 33.8,89.3 
		26.3,89.3 	"/>
	<path clip-path="url(#SVGID_8_)" fill="#9C182F" d="M43.7,79.2c1.2,0,3.9,0.4,3.9,2v1.3h-1.7v-0.8c0-0.7-1.3-1-2.1-1
		c-1.9,0-3.3,1.3-3.3,3.4c0,2.2,1.5,3.7,3.4,3.7c0.6,0,2.1-0.2,2.1-1v-0.8h1.7v1.4c0,1.5-2.6,2-3.9,2c-3,0-5.2-2.3-5.2-5.2
		C38.6,81.4,40.8,79.2,43.7,79.2"/>
	<polygon clip-path="url(#SVGID_8_)" fill="#9C182F" points="49.1,87.9 50.3,87.9 50.3,80.8 49.1,80.8 49.1,79.4 53.3,79.4 
		53.3,80.8 52.1,80.8 52.1,83.6 56.6,83.6 56.6,80.8 55.4,80.8 55.4,79.4 59.6,79.4 59.6,80.8 58.4,80.8 58.4,87.9 59.6,87.9 
		59.6,89.3 55.4,89.3 55.4,87.9 56.6,87.9 56.6,85.1 52.1,85.1 52.1,87.9 53.3,87.9 53.3,89.3 49.1,89.3 	"/>
	<path clip-path="url(#SVGID_8_)" fill="#9C182F" d="M61,87.9h1.2v-7.2H61v-1.4h4.4c0.7,0,1.3,0,1.9,0.2c1.1,0.4,1.8,1.3,1.8,2.7
		c0,1.4-0.7,2.4-1.9,2.7v0c0,0,0.3,0.2,0.5,0.5l1.1,2.1c0.1,0.3,0.3,0.3,0.7,0.3h0.3v1.4h-1.2c-0.8,0-1.1-0.2-1.4-0.7L65.9,86
		c-0.2-0.4-0.4-0.5-1-0.5H64v2.4h1.1v1.4H61V87.9z M65.7,84c1,0,1.6-0.6,1.6-1.6c0-0.6-0.2-1.1-0.8-1.4c-0.3-0.1-0.7-0.2-1.1-0.2H64
		V84H65.7z"/>
	<polygon clip-path="url(#SVGID_8_)" fill="#9C182F" points="70.9,87.9 72.1,87.9 72.1,80.8 70.9,80.8 70.9,79.4 75.1,79.4 
		75.1,80.8 73.9,80.8 73.9,87.9 75.1,87.9 75.1,89.3 70.9,89.3 	"/>
	<path clip-path="url(#SVGID_8_)" fill="#9C182F" d="M78.2,86.1v0.7c0,0.6,0.8,1,1.7,1c1,0,1.7-0.4,1.7-1.2c0-1-1.1-1.3-2.3-1.8
		c-1.3-0.5-2.6-1.1-2.6-2.9c0-2,1.6-2.8,3.3-2.8c1.6,0,3.1,0.6,3.1,1.7v1.3h-1.7v-0.7c0-0.5-0.7-0.8-1.5-0.8c-0.8,0-1.5,0.3-1.5,1.1
		c0,0.9,0.9,1.2,2,1.6c1.5,0.5,3,1.1,3,3c0,2-1.7,3-3.6,3c-1.6,0-3.4-0.7-3.4-2.2v-1.1H78.2z"/>
	<polygon clip-path="url(#SVGID_8_)" fill="#9C182F" points="86.8,87.9 88,87.9 88,80.9 86.1,80.9 86.1,82.3 84.5,82.3 84.5,79.4 
		93.2,79.4 93.2,82.3 91.7,82.3 91.7,80.9 89.8,80.9 89.8,87.9 91,87.9 91,89.3 86.8,89.3 	"/>
	<path clip-path="url(#SVGID_8_)" fill="#9C182F" d="M94.1,87.9h1.2l0.6-7.2h-1.2v-1.4h3.2l2.2,5.6c0.2,0.5,0.2,0.8,0.2,0.8h0
		c0,0,0.1-0.3,0.3-0.8l2.2-5.6h3.2v1.4h-1.2l0.6,7.2h1.2v1.4h-4.1v-1.4h1.1l-0.4-5c0-0.3,0-0.9,0-0.9h0c0,0-0.1,0.5-0.2,0.9
		l-1.9,4.6h-1.6l-1.9-4.6c-0.1-0.3-0.2-0.9-0.2-0.9h-0.1c0,0,0.1,0.6,0,0.9l-0.4,5h1.1v1.4h-4.1V87.9z"/>
	<path clip-path="url(#SVGID_8_)" fill="#9C182F" d="M107.3,87.9h0.9l3-8.5h2.1l3,8.5h0.9v1.4h-3.7v-1.4h1l-0.6-1.9h-3.1l-0.6,1.9h1
		v1.4h-3.7V87.9z M113.3,84.6l-0.9-2.8c-0.2-0.5-0.2-0.9-0.2-0.9h0c0,0,0,0.4-0.2,0.9l-0.9,2.8H113.3z"/>
	<path clip-path="url(#SVGID_8_)" fill="#9C182F" d="M119.6,86.1v0.7c0,0.6,0.8,1,1.7,1c1,0,1.7-0.4,1.7-1.2c0-1-1.1-1.3-2.3-1.8
		c-1.3-0.5-2.6-1.1-2.6-2.9c0-2,1.6-2.8,3.3-2.8c1.6,0,3.1,0.6,3.1,1.7v1.3H123v-0.7c0-0.5-0.7-0.8-1.5-0.8c-0.8,0-1.5,0.3-1.5,1.1
		c0,0.9,0.9,1.2,2,1.6c1.5,0.5,3,1.1,3,3c0,2-1.7,3-3.6,3c-1.6,0-3.4-0.7-3.4-2.2v-1.1H119.6z"/>
	<polygon clip-path="url(#SVGID_8_)" fill="#9C182F" points="129.8,87.9 131,87.9 131,80.8 129.8,80.8 129.8,79.4 137.1,79.4 
		137.1,81.9 135.6,81.9 135.6,80.9 132.8,80.9 132.8,83.6 136,83.6 136,85 132.8,85 132.8,87.8 135.8,87.8 135.8,86.7 137.3,86.7 
		137.3,89.3 129.8,89.3 	"/>
	<polygon clip-path="url(#SVGID_8_)" fill="#9C182F" points="138.7,87.9 139.9,87.9 139.9,80.9 138.7,80.9 138.7,79.4 142.9,79.4 
		142.9,80.9 141.7,80.9 141.7,87.8 144.7,87.8 144.7,86.3 146.2,86.3 146.2,89.3 138.7,89.3 	"/>
	<polygon clip-path="url(#SVGID_8_)" fill="#9C182F" points="147.3,87.9 148.4,87.9 148.4,80.8 147.3,80.8 147.3,79.4 154.3,79.4 
		154.3,82 152.8,82 152.8,80.9 150.3,80.9 150.3,83.8 153.5,83.8 153.5,85.2 150.3,85.2 150.3,87.9 151.6,87.9 151.6,89.3 
		147.3,89.3 	"/>
	<path clip-path="url(#SVGID_8_)" fill="#9C182F" d="M157.1,86.1v0.7c0,0.6,0.8,1,1.7,1c1,0,1.7-0.4,1.7-1.2c0-1-1.1-1.3-2.3-1.8
		c-1.3-0.5-2.6-1.1-2.6-2.9c0-2,1.6-2.8,3.3-2.8c1.6,0,3.1,0.6,3.1,1.7v1.3h-1.7v-0.7c0-0.5-0.7-0.8-1.5-0.8c-0.8,0-1.5,0.3-1.5,1.1
		c0,0.9,0.9,1.2,2,1.6c1.5,0.5,3,1.1,3,3c0,2-1.7,3-3.6,3c-1.6,0-3.4-0.7-3.4-2.2v-1.1H157.1z"/>
</g>
</svg>
