<?xml version="1.0" encoding="utf-8"?>
<!-- Generator: Adobe Illustrator 16.0.0, SVG Export Plug-In . SVG Version: 6.00 Build 0)  -->
<!DOCTYPE svg PUBLIC "-//W3C//DTD SVG 1.1//EN" "http://www.w3.org/Graphics/SVG/1.1/DTD/svg11.dtd">
<svg version="1.1" id="Layer_1" xmlns="http://www.w3.org/2000/svg" xmlns:xlink="http://www.w3.org/1999/xlink" x="0px" y="0px"
	 width="180px" height="180px" viewBox="0 0 180 180" enable-background="new 0 0 180 180" xml:space="preserve">
<g>
	<defs>
		<rect id="SVGID_1_" width="180" height="180"/>
	</defs>
	<clipPath id="SVGID_2_">
		<use xlink:href="#SVGID_1_"  overflow="visible"/>
	</clipPath>
	<path clip-path="url(#SVGID_2_)" fill="#9C182F" d="M173.373,104.5c-0.107,0-0.204,1.318-0.288,1.633
		c-0.92,3.438-1.165,7.349-1.402,10.818c-0.326,4.762-0.634,9.42-2.61,12.834c-2.015,3.482-5.789,6.088-9.785,8.761
		c-2.86,1.915-5.82,3.937-8.294,6.41c-2.479,2.477-4.461,5.462-6.378,8.329c-2.668,3.987-5.188,7.763-8.673,9.779
		c-3.415,1.977-7.912,2.288-12.674,2.614c-3.469,0.237-7.055,0.486-10.493,1.404c-3.293,0.881-6.436,2.433-9.475,3.932
		c-4.346,2.145-8.445,4.168-12.606,4.168c-4.162,0-8.268-2.025-12.616-4.171c-3.037-1.499-6.172-3.046-9.466-3.926
		c-3.435-0.918-7.017-1.164-10.482-1.401c-4.773-0.326-9.268-0.634-12.685-2.61c-3.488-2.02-6.009-5.789-8.678-9.779
		c-1.919-2.868-3.9-5.829-6.373-8.3c-2.472-2.473-5.44-4.459-8.311-6.379c-3.987-2.669-7.753-5.189-9.768-8.67
		c-1.973-3.412-2.282-7.915-2.61-12.685c-0.239-3.474-0.485-7.696-1.402-11.129c-0.084-0.314-0.18-1.633-0.288-1.633h-2.22
		c0.168,0,0.307,1.723,0.421,2.149c0.863,3.232,1.102,7.054,1.333,10.422c0.346,5.023,0.673,9.94,2.896,13.786
		c2.267,3.915,6.234,6.655,10.437,9.469c2.783,1.862,5.661,3.831,7.985,6.155c2.324,2.321,4.246,5.216,6.105,7.994
		c2.812,4.205,5.468,8.188,9.391,10.458c3.851,2.229,8.596,2.559,13.619,2.901c3.362,0.23,6.838,0.471,10.072,1.336
		c3.087,0.825,6.128,2.326,9.069,3.778c4.58,2.259,8.905,4.394,13.571,4.394c4.665,0,8.987-2.132,13.565-4.391
		c2.943-1.452,5.988-2.954,9.072-3.779c3.237-0.865,6.719-1.103,10.084-1.334c5.019-0.343,9.759-0.667,13.608-2.895
		c3.92-2.269,6.575-6.238,9.387-10.44c1.859-2.78,3.781-5.655,6.11-7.982c2.323-2.324,5.193-4.247,7.969-6.105
		c4.21-2.816,8.187-5.482,10.452-9.399c2.228-3.849,2.552-8.6,2.896-13.618c0.229-3.367,0.469-7.558,1.335-10.796
		c0.113-0.425,0.251-2.103,0.417-2.103H173.373z"/>
	<path clip-path="url(#SVGID_2_)" fill="#266141" d="M9.139,105.869c0.939,3.517,1.188,7.486,1.428,10.992
		c0.322,4.679,0.625,9.242,2.496,12.48c1.915,3.308,5.6,5.859,9.501,8.47c2.909,1.946,5.91,3.997,8.441,6.529
		c2.535,2.532,4.541,5.552,6.481,8.452c2.613,3.907,5.078,7.604,8.393,9.523c3.239,1.873,7.638,2.182,12.296,2.5
		c3.511,0.24,7.14,0.49,10.661,1.432c3.372,0.902,6.549,2.47,9.62,3.985c4.26,2.102,8.276,4.085,12.239,4.085
		c3.96,0,7.973-1.98,12.223-4.077c3.077-1.519,6.259-3.087,9.634-3.99c3.52-0.94,7.148-1.189,10.658-1.429
		c4.66-0.319,9.06-0.621,12.3-2.496c3.311-1.915,5.776-5.601,8.387-9.502c1.94-2.902,3.948-5.902,6.485-8.439
		c2.532-2.532,5.528-4.538,8.425-6.477c3.915-2.618,7.604-5.086,9.519-8.396c1.875-3.239,2.176-7.641,2.495-12.299
		c0.24-3.514,0.489-7.829,1.431-11.345c0.061-0.23,0.131-1.369,0.199-1.369H8.939C9.008,104.5,9.078,105.639,9.139,105.869"/>
	<path clip-path="url(#SVGID_2_)" fill="#FFFFFF" d="M84.141,151.752l3.99-5.231h-2.418l3.348-4.375h-1.844l3.477-4.826l3.477,4.826
		h-1.845l3.349,4.375h-2.418l3.989,5.231H84.141z M95.944,145.055l0.87-1.145l1.966,3.149h-1.552l2.864,4.635h-1.61l0.813,1.065
		h2.751l-2.877-4.636h1.542l-3.842-6.225l-1.604,2.268L95.944,145.055z M96.061,156.309h1.619v-2.829h-1.619V156.309z
		 M86.121,144.167l-1.604-2.268l-3.841,6.225h1.542l-2.877,4.636h2.751l0.812-1.065h-1.61l2.864-4.635h-1.552l1.966-3.149
		l0.87,1.145L86.121,144.167z M85.326,153.479h-1.619v2.829h1.619V153.479z M91.744,152.677h-2.102v3.673h2.102V152.677z
		 M90.116,134.746l-1.309,0.182l0.953,0.916l-0.233,1.301l1.166-0.624l1.165,0.624l-0.232-1.301l0.952-0.916l-1.309-0.182
		l-0.576-1.188L90.116,134.746z"/>
	<path clip-path="url(#SVGID_2_)" fill="#FFFFFF" d="M56.499,116.685v0.441c0,0.51,0.631,0.804,1.331,0.804
		c0.787,0,1.357-0.389,1.357-1.098c0-0.795-0.734-1.072-1.521-1.366c-0.795-0.302-1.625-0.622-1.625-1.686s0.856-1.583,1.85-1.583
		c0.864,0,1.755,0.339,1.755,0.951v0.649h-0.579v-0.45c0-0.389-0.632-0.596-1.176-0.596c-0.692,0-1.228,0.337-1.228,0.984
		c0,0.735,0.657,0.969,1.392,1.254c0.882,0.328,1.755,0.665,1.755,1.781c0,1.071-0.856,1.711-1.98,1.711
		c-0.873,0-1.91-0.389-1.91-1.219v-0.579H56.499z"/>
	<polygon clip-path="url(#SVGID_2_)" fill="#FFFFFF" points="62.03,117.878 62.825,117.878 62.825,112.82 61.122,112.82 
		61.122,113.806 60.578,113.806 60.578,112.302 65.678,112.302 65.678,113.806 65.125,113.806 65.125,112.82 63.43,112.82 
		63.43,117.878 64.226,117.878 64.226,118.379 62.03,118.379 	"/>
	<path clip-path="url(#SVGID_2_)" fill="#FFFFFF" d="M65.582,117.878h0.623l2.048-5.576h0.666l2.049,5.576h0.622v0.501h-1.945
		v-0.501h0.7l-0.579-1.564h-2.368l-0.571,1.564h0.7v0.501h-1.945V117.878z M69.602,115.803l-0.908-2.489
		c-0.069-0.199-0.095-0.39-0.095-0.39h-0.026c0,0-0.017,0.19-0.086,0.39l-0.925,2.489H69.602z"/>
	<path clip-path="url(#SVGID_2_)" fill="#FFFFFF" d="M72.15,117.877h0.795v-5.073H72.15v-0.502h2.602
		c0.415,0,0.744,0.025,1.081,0.139c0.596,0.216,0.985,0.717,0.985,1.521c0,0.908-0.518,1.574-1.348,1.722v0.017
		c0,0,0.112,0.077,0.207,0.251l1.012,1.729c0.095,0.173,0.207,0.198,0.432,0.198h0.173v0.503h-0.329
		c-0.527,0-0.622-0.078-0.838-0.46l-1.02-1.745c-0.165-0.294-0.286-0.371-0.683-0.371h-0.873v2.073h0.786v0.503H72.15V117.877z
		 M74.977,115.284c0.735,0,1.228-0.502,1.228-1.279c0-0.554-0.242-0.907-0.666-1.071c-0.208-0.078-0.493-0.113-0.804-0.113h-1.184
		v2.464H74.977z"/>
	<polygon clip-path="url(#SVGID_2_)" fill="#FFFFFF" points="79.264,117.878 80.059,117.878 80.059,112.82 78.355,112.82 
		78.355,113.806 77.812,113.806 77.812,112.302 82.912,112.302 82.912,113.806 82.358,113.806 82.358,112.82 80.664,112.82 
		80.664,117.878 81.459,117.878 81.459,118.379 79.264,118.379 	"/>
	<path clip-path="url(#SVGID_2_)" fill="#FFFFFF" d="M85.443,117.878h0.622l2.049-5.576h0.665l2.049,5.576h0.623v0.501h-1.946
		v-0.501h0.701l-0.579-1.564h-2.369l-0.571,1.564h0.701v0.501h-1.945V117.878z M89.462,115.803l-0.908-2.489
		c-0.069-0.199-0.094-0.39-0.094-0.39h-0.026c0,0-0.018,0.19-0.087,0.39l-0.925,2.489H89.462z"/>
	<polygon clip-path="url(#SVGID_2_)" fill="#FFFFFF" points="94.172,117.878 94.967,117.878 94.967,112.804 94.172,112.804 
		94.172,112.302 98.261,112.302 98.261,113.599 97.716,113.599 97.716,112.838 95.572,112.838 95.572,115.129 97.794,115.129 
		97.794,115.647 95.572,115.647 95.572,117.878 96.42,117.878 96.42,118.379 94.172,118.379 	"/>
	<path clip-path="url(#SVGID_2_)" fill="#FFFFFF" d="M98.32,117.878h0.623l2.049-5.576h0.665l2.049,5.576h0.623v0.501h-1.946v-0.501
		h0.701l-0.579-1.564h-2.369l-0.57,1.564h0.699v0.501H98.32V117.878z M102.34,115.803l-0.908-2.489
		c-0.068-0.199-0.095-0.39-0.095-0.39h-0.025c0,0-0.018,0.19-0.087,0.39l-0.925,2.489H102.34z"/>
	<path clip-path="url(#SVGID_2_)" fill="#FFFFFF" d="M104.733,117.878h0.795l0.407-5.074h-0.805v-0.502h1.461l1.764,3.977
		c0.078,0.198,0.121,0.354,0.121,0.354h0.018c0,0,0.043-0.156,0.129-0.354l1.764-3.977h1.452v0.502h-0.795l0.397,5.074h0.796v0.501
		h-2.17v-0.501h0.777l-0.328-4.193c-0.009-0.155,0.018-0.432,0.018-0.432h-0.018c0,0-0.069,0.26-0.13,0.406l-1.616,3.562h-0.563
		l-1.625-3.562c-0.061-0.146-0.121-0.406-0.121-0.406h-0.025c0,0,0.025,0.276,0.018,0.432l-0.329,4.193h0.778v0.501h-2.17V117.878z"
		/>
	<polygon clip-path="url(#SVGID_2_)" fill="#FFFFFF" points="113.021,117.878 113.816,117.878 113.816,112.804 113.021,112.804 
		113.021,112.302 115.218,112.302 115.218,112.804 114.423,112.804 114.423,117.878 115.218,117.878 115.218,118.379 
		113.021,118.379 	"/>
	<polygon clip-path="url(#SVGID_2_)" fill="#FFFFFF" points="116.15,117.878 116.945,117.878 116.945,112.82 116.15,112.82 
		116.15,112.302 118.347,112.302 118.347,112.82 117.551,112.82 117.551,117.86 119.979,117.86 119.979,116.849 120.533,116.849 
		120.533,118.379 116.15,118.379 	"/>
	<path clip-path="url(#SVGID_2_)" fill="#FFFFFF" d="M122.097,117.878h0.795v-2.109l-1.789-2.965h-0.597v-0.502h1.919v0.502h-0.674
		l1.313,2.213c0.061,0.104,0.121,0.233,0.121,0.233h0.019c0,0,0.051-0.121,0.12-0.233l1.322-2.213h-0.674v-0.502h1.91v0.502h-0.596
		l-1.79,2.965v2.109h0.796v0.501h-2.196V117.878z"/>
	<polygon clip-path="url(#SVGID_2_)" fill="#FFFFFF" points="50.803,128.249 51.598,128.249 51.598,123.192 49.895,123.192 
		49.895,124.177 49.351,124.177 49.351,122.673 54.451,122.673 54.451,124.177 53.898,124.177 53.898,123.192 52.203,123.192 
		52.203,128.249 52.999,128.249 52.999,128.75 50.803,128.75 	"/>
	<path clip-path="url(#SVGID_2_)" fill="#FFFFFF" d="M55.193,128.249h0.795v-5.074h-0.795v-0.502h2.602
		c0.415,0,0.744,0.026,1.081,0.139c0.596,0.216,0.985,0.717,0.985,1.521c0,0.908-0.518,1.574-1.348,1.721v0.017
		c0,0,0.112,0.077,0.207,0.252l1.012,1.729c0.095,0.172,0.207,0.198,0.432,0.198h0.173v0.502h-0.329
		c-0.527,0-0.622-0.078-0.838-0.459l-1.02-1.746c-0.165-0.294-0.286-0.371-0.683-0.371h-0.873v2.074h0.786v0.502h-2.187V128.249z
		 M58.02,125.656c0.735,0,1.228-0.503,1.228-1.28c0-0.553-0.242-0.907-0.666-1.071c-0.208-0.079-0.493-0.113-0.804-0.113h-1.184
		v2.465H58.02z"/>
	<path clip-path="url(#SVGID_2_)" fill="#FFFFFF" d="M60.75,128.249h0.623l2.048-5.575h0.666l2.049,5.575h0.622v0.501h-1.945v-0.501
		h0.7l-0.579-1.564h-2.368l-0.571,1.564h0.7v0.501H60.75V128.249z M64.77,126.175l-0.908-2.49c-0.069-0.199-0.095-0.39-0.095-0.39
		h-0.026c0,0-0.017,0.19-0.086,0.39l-0.925,2.49H64.77z"/>
	<path clip-path="url(#SVGID_2_)" fill="#FFFFFF" d="M67.318,128.249h0.796v-5.074h-0.796v-0.502h2.568
		c0.519,0,0.89,0.035,1.297,0.156c1.149,0.372,1.876,1.418,1.876,2.887c0,1.496-0.744,2.523-1.954,2.888
		c-0.381,0.121-0.77,0.147-1.219,0.147h-2.568V128.249z M69.834,128.231c0.406,0,0.744-0.035,1.081-0.146
		c0.925-0.303,1.512-1.142,1.512-2.369c0-1.21-0.561-2.066-1.469-2.386c-0.355-0.12-0.7-0.139-1.124-0.139h-1.115v5.04H69.834z"/>
	<polygon clip-path="url(#SVGID_2_)" fill="#FFFFFF" points="73.965,128.249 74.76,128.249 74.76,123.175 73.965,123.175 
		73.965,122.673 76.161,122.673 76.161,123.175 75.365,123.175 75.365,128.249 76.161,128.249 76.161,128.75 73.965,128.75 	"/>
	<polygon clip-path="url(#SVGID_2_)" fill="#FFFFFF" points="78.356,128.249 79.151,128.249 79.151,123.192 77.448,123.192 
		77.448,124.177 76.904,124.177 76.904,122.673 82.004,122.673 82.004,124.177 81.451,124.177 81.451,123.192 79.756,123.192 
		79.756,128.249 80.552,128.249 80.552,128.75 78.356,128.75 	"/>
	<polygon clip-path="url(#SVGID_2_)" fill="#FFFFFF" points="82.746,128.249 83.541,128.249 83.541,123.175 82.746,123.175 
		82.746,122.673 84.942,122.673 84.942,123.175 84.146,123.175 84.146,128.249 84.942,128.249 84.942,128.75 82.746,128.75 	"/>
	<path clip-path="url(#SVGID_2_)" fill="#FFFFFF" d="M88.91,122.57c1.729,0,3.103,1.356,3.103,3.103
		c0,1.781-1.374,3.181-3.103,3.181c-1.72,0-3.095-1.399-3.095-3.181C85.814,123.927,87.189,122.57,88.91,122.57 M88.91,128.301
		c1.366,0,2.472-1.141,2.472-2.628c0-1.452-1.106-2.55-2.472-2.55c-1.357,0-2.464,1.098-2.464,2.55
		C86.445,127.16,87.553,128.301,88.91,128.301"/>
	<path clip-path="url(#SVGID_2_)" fill="#FFFFFF" d="M92.885,128.249h0.795v-5.074h-0.795v-0.502h1.383l3.406,4.798
		c0.086,0.139,0.181,0.372,0.181,0.372h0.018c0,0-0.035-0.26-0.025-0.424v-4.244h-0.805v-0.502h2.204v0.502h-0.795v5.575h-0.588
		l-3.406-4.797c-0.086-0.139-0.181-0.372-0.181-0.372h-0.018c0,0,0.034,0.259,0.025,0.415v4.253h0.805v0.501h-2.204V128.249z"/>
	<polygon clip-path="url(#SVGID_2_)" fill="#FFFFFF" points="103.507,128.249 104.302,128.249 104.302,123.192 102.599,123.192 
		102.599,124.177 102.055,124.177 102.055,122.673 107.154,122.673 107.154,124.177 106.602,124.177 106.602,123.192 
		104.907,123.192 104.907,128.249 105.702,128.249 105.702,128.75 103.507,128.75 	"/>
	<path clip-path="url(#SVGID_2_)" fill="#FFFFFF" d="M110.991,122.57c1.729,0,3.103,1.356,3.103,3.103
		c0,1.781-1.374,3.181-3.103,3.181c-1.72,0-3.095-1.399-3.095-3.181C107.896,123.927,109.271,122.57,110.991,122.57
		 M110.991,128.301c1.366,0,2.473-1.141,2.473-2.628c0-1.452-1.106-2.55-2.473-2.55c-1.357,0-2.464,1.098-2.464,2.55
		C108.527,127.16,109.634,128.301,110.991,128.301"/>
	<path clip-path="url(#SVGID_2_)" fill="#FFFFFF" d="M114.966,128.249h0.795v-5.074h-0.795v-0.502h2.568
		c0.519,0,0.89,0.035,1.296,0.156c1.15,0.372,1.877,1.418,1.877,2.887c0,1.496-0.744,2.523-1.954,2.888
		c-0.381,0.121-0.77,0.147-1.219,0.147h-2.568V128.249z M117.482,128.231c0.405,0,0.744-0.035,1.08-0.146
		c0.925-0.303,1.513-1.142,1.513-2.369c0-1.21-0.562-2.066-1.469-2.386c-0.355-0.12-0.7-0.139-1.124-0.139h-1.115v5.04H117.482z"/>
	<path clip-path="url(#SVGID_2_)" fill="#FFFFFF" d="M121.146,128.249h0.622l2.049-5.575h0.666l2.049,5.575h0.622v0.501h-1.944
		v-0.501h0.7l-0.579-1.564h-2.369l-0.57,1.564h0.7v0.501h-1.945V128.249z M125.166,126.175l-0.908-2.49
		c-0.069-0.199-0.095-0.39-0.095-0.39h-0.026c0,0-0.017,0.19-0.086,0.39l-0.925,2.49H125.166z"/>
	<path clip-path="url(#SVGID_2_)" fill="#FFFFFF" d="M128.432,128.249h0.795v-2.109l-1.788-2.965h-0.598v-0.502h1.919v0.502h-0.674
		l1.314,2.213c0.06,0.104,0.121,0.233,0.121,0.233h0.018c0,0,0.051-0.121,0.12-0.233l1.323-2.213h-0.675v-0.502h1.91v0.502h-0.596
		l-1.79,2.965v2.109h0.796v0.501h-2.196V128.249z"/>
	<path clip-path="url(#SVGID_2_)" fill="#9C182F" d="M112.773,15.619c3.436,0.918,7.017,1.164,10.482,1.401
		c4.772,0.327,9.268,0.634,12.685,2.61c3.489,2.02,6.009,5.789,8.678,9.78c1.919,2.868,3.9,5.829,6.373,8.299
		c2.473,2.473,5.44,4.46,8.312,6.38c3.986,2.668,7.753,5.189,9.768,8.67c1.974,3.411,2.282,7.915,2.611,12.683
		c0.238,3.475,0.483,7.887,1.4,11.318c0.077,0.29,0.165,1.74,0.264,1.74h2.245c-0.168-2-0.308-1.871-0.42-2.297
		c-0.864-3.232-1.104-7.128-1.334-10.496c-0.347-5.024-0.674-9.977-2.896-13.822c-2.266-3.915-6.234-6.675-10.437-9.487
		c-2.783-1.863-5.661-3.841-7.985-6.165c-2.324-2.322-4.246-5.221-6.105-8c-2.812-4.204-5.468-8.189-9.391-10.46
		c-3.851-2.228-8.596-2.559-13.619-2.902c-3.362-0.23-6.838-0.472-10.072-1.336c-3.087-0.825-6.127-2.327-9.068-3.779
		c-1.796-0.886-3.554-1.752-5.309-2.478c0.47,0.856,0.804,1.795,0.98,2.789c1.111,0.511,2.234,1.064,3.373,1.626
		C106.345,13.192,109.48,14.739,112.773,15.619"/>
	<path clip-path="url(#SVGID_2_)" fill="#9C182F" d="M9.704,65.432c0.326-4.762,0.634-9.259,2.61-12.673
		c2.015-3.483,5.789-6.007,9.785-8.68c2.862-1.915,5.821-3.896,8.294-6.37c2.479-2.478,4.461-5.442,6.379-8.308
		c2.667-3.988,5.187-7.753,8.672-9.77c3.415-1.976,7.912-2.284,12.674-2.61c3.469-0.237,7.055-0.483,10.493-1.402
		c3.293-0.881,6.436-2.431,9.475-3.93c1.295-0.639,2.568-1.266,3.828-1.834c0.206-1.005,0.577-1.95,1.08-2.808
		c-1.94,0.769-3.879,1.725-5.867,2.706c-2.944,1.452-5.989,2.954-9.073,3.779c-3.237,0.865-6.718,1.104-10.084,1.334
		c-5.018,0.343-9.758,0.667-13.608,2.895c-3.92,2.269-6.575,6.238-9.387,10.441c-1.859,2.779-3.781,5.655-6.11,7.982
		c-2.323,2.324-5.193,4.247-7.968,6.105c-4.21,2.816-8.187,5.482-10.453,9.399c-2.228,3.849-2.552,8.6-2.896,13.62
		c-0.23,3.367-0.469,7.703-1.335,10.941C6.1,76.675,5.961,76.5,5.795,78.5h2.243c0.097,0,0.185-1.45,0.262-1.739
		C9.221,73.323,9.466,68.902,9.704,65.432"/>
	<path clip-path="url(#SVGID_2_)" fill="#266141" d="M67.109,59.321l18.848-39.917c-2.542-1.631-4.228-4.481-4.228-7.725
		c0-0.273,0.017-0.542,0.041-0.808c-1.087,0.5-2.186,1.042-3.302,1.592c-3.077,1.518-6.259,3.088-9.634,3.991
		c-3.519,0.94-7.148,1.189-10.658,1.429c-4.66,0.319-9.06,0.621-12.299,2.496c-3.311,1.915-5.777,5.6-8.388,9.502
		c-1.94,2.901-3.948,5.902-6.485,8.439c-2.532,2.532-5.527,4.537-8.425,6.477c-3.915,2.618-7.603,5.086-9.518,8.395
		c-1.875,3.24-2.176,7.641-2.495,12.299c-0.241,3.514-0.49,7.977-1.431,11.493C9.074,77.213,9.004,78.5,8.936,78.5h51.407
		c-3.546-5-7.99-13.872-8.981-23.785C57.728,57.12,63.312,58.104,67.109,59.321"/>
	<path clip-path="url(#SVGID_2_)" fill="#266141" d="M108.873,60.843l-10.259,0.011L86.363,67l0.606-4.674l-8.3,2.934l2.803-4.389
		l-8.306,0.009c-2.451,3.467-3.893,8.507-3.893,13.042c0,1.278,0.12,2.578,0.339,4.578h42.844c0.219-2,0.339-3.3,0.339-4.578
		C112.795,69.37,111.34,64.317,108.873,60.843 M82.645,75.52c-2.026,0-3.669-1.643-3.669-3.669c0-2.027,1.643-3.67,3.669-3.67
		c2.027,0,3.67,1.643,3.67,3.67C86.315,73.876,84.672,75.52,82.645,75.52 M99.163,75.52c-2.027,0-3.669-1.643-3.669-3.669
		c0-2.027,1.642-3.67,3.669-3.67c2.026,0,3.669,1.643,3.669,3.67C102.832,73.876,101.189,75.52,99.163,75.52"/>
	<path clip-path="url(#SVGID_2_)" fill="#266141" d="M95.854,19.403l19.13,39.842c3.79-1.219,9.276-2.218,15.509-4.573
		c-0.995,9.959-5.475,18.828-9.028,23.828h50.982c-0.067,0-0.138-1.287-0.198-1.516c-0.94-3.517-1.188-7.56-1.43-11.066
		c-0.321-4.679-0.624-9.28-2.496-12.517c-1.915-3.308-5.599-5.878-9.501-8.489c-2.907-1.946-5.91-4.007-8.44-6.539
		c-2.534-2.532-4.54-5.557-6.481-8.456c-2.612-3.907-5.078-7.607-8.392-9.525c-3.239-1.874-7.639-2.183-12.296-2.502
		c-3.512-0.24-7.142-0.491-10.661-1.433c-3.373-0.901-6.549-2.469-9.62-3.985c-0.973-0.479-1.932-0.952-2.882-1.398
		c0.013,0.201,0.031,0.401,0.031,0.605C100.08,14.923,98.395,17.771,95.854,19.403"/>
	<path clip-path="url(#SVGID_2_)" fill="#266141" d="M90.904,14.955c1.806,0,3.276-1.47,3.276-3.276
		c0-1.806-1.471-3.276-3.276-3.276c-1.806,0-3.276,1.47-3.276,3.276C87.628,13.485,89.098,14.955,90.904,14.955"/>
	<path clip-path="url(#SVGID_2_)" fill="#266141" d="M122.248,63.09c-1.811,0.619-3.45,1.162-4.88,1.627
		c0.604,1.855,1.015,3.797,1.205,5.802C119.865,68.4,121.17,65.901,122.248,63.09"/>
	<polygon clip-path="url(#SVGID_2_)" fill="#266141" points="90.907,22.692 80.605,44.5 101.388,44.5 	"/>
	<path clip-path="url(#SVGID_2_)" fill="#266141" d="M63.471,70.828c0.174-2.092,0.586-4.117,1.211-6.048
		c-1.476-0.478-3.182-1.043-5.075-1.69C60.738,66.038,62.118,68.646,63.471,70.828"/>
	<polygon clip-path="url(#SVGID_2_)" fill="#266141" points="103.845,49.5 78.19,49.5 75.687,54.876 106.373,54.833 	"/>
	<path clip-path="url(#SVGID_2_)" fill="#FFFFFF" d="M121.103,162.077c-0.08,0-0.16-0.015-0.238-0.046
		c-8.199-3.246-18.913-5.034-30.17-5.034c-0.357,0-0.647-0.29-0.647-0.647c0-0.358,0.29-0.648,0.647-0.648
		c11.416,0,22.3,1.82,30.646,5.125c0.333,0.132,0.496,0.508,0.364,0.841C121.604,161.922,121.36,162.077,121.103,162.077"/>
	<path clip-path="url(#SVGID_2_)" fill="#FFFFFF" d="M60.445,162.077c-0.258,0-0.502-0.155-0.603-0.41
		c-0.132-0.333,0.031-0.709,0.364-0.841c8.347-3.305,19.231-5.125,30.647-5.125c0.357,0,0.647,0.29,0.647,0.648
		c0,0.357-0.29,0.647-0.647,0.647c-11.257,0-21.971,1.788-30.17,5.034C60.605,162.063,60.524,162.077,60.445,162.077"/>
	<polygon clip-path="url(#SVGID_2_)" fill="#9C182F" points="7.403,95.343 8.689,95.343 8.689,87.674 6.662,87.674 6.662,89.293 
		4.983,89.293 4.983,86.086 14.391,86.086 14.391,89.293 12.712,89.293 12.712,87.674 10.67,87.674 10.67,95.343 11.971,95.343 
		11.971,96.826 7.403,96.826 	"/>
	<polygon clip-path="url(#SVGID_2_)" fill="#9C182F" points="15.555,95.343 16.841,95.343 16.841,87.583 15.555,87.583 
		15.555,86.086 20.123,86.086 20.123,87.583 18.822,87.583 18.822,90.684 23.708,90.684 23.708,87.583 22.407,87.583 22.407,86.086 
		26.975,86.086 26.975,87.583 25.69,87.583 25.69,95.343 26.975,95.343 26.975,96.826 22.407,96.826 22.407,95.343 23.708,95.343 
		23.708,92.271 18.822,92.271 18.822,95.343 20.123,95.343 20.123,96.826 15.555,96.826 	"/>
	<polygon clip-path="url(#SVGID_2_)" fill="#9C182F" points="28.486,95.343 29.772,95.343 29.772,87.583 28.486,87.583 
		28.486,86.086 36.458,86.086 36.458,88.854 34.764,88.854 34.764,87.674 31.753,87.674 31.753,90.624 35.293,90.624 35.293,92.212 
		31.753,92.212 31.753,95.236 34.99,95.236 34.99,94.026 36.686,94.026 36.686,96.826 28.486,96.826 	"/>
	<path clip-path="url(#SVGID_2_)" fill="#9C182F" d="M47.378,85.904c1.301,0,4.19,0.454,4.19,2.148v1.452h-1.8v-0.832
		c0-0.802-1.422-1.074-2.299-1.074c-2.073,0-3.585,1.452-3.585,3.721c0,2.42,1.573,3.994,3.691,3.994c0.65,0,2.329-0.212,2.329-1.06
		v-0.832h1.8v1.467c0,1.604-2.768,2.118-4.25,2.118c-3.252,0-5.612-2.466-5.612-5.597C41.842,88.233,44.262,85.904,47.378,85.904"/>
	<polygon clip-path="url(#SVGID_2_)" fill="#9C182F" points="53.215,95.343 54.501,95.343 54.501,87.583 53.215,87.583 
		53.215,86.086 57.783,86.086 57.783,87.583 56.482,87.583 56.482,90.684 61.368,90.684 61.368,87.583 60.067,87.583 60.067,86.086 
		64.635,86.086 64.635,87.583 63.351,87.583 63.351,95.343 64.635,95.343 64.635,96.826 60.067,96.826 60.067,95.343 61.368,95.343 
		61.368,92.271 56.482,92.271 56.482,95.343 57.783,95.343 57.783,96.826 53.215,96.826 	"/>
	<path clip-path="url(#SVGID_2_)" fill="#9C182F" d="M66.147,95.343h1.286v-7.76h-1.286v-1.497h4.734
		c0.787,0,1.437,0.045,2.042,0.227c1.195,0.393,1.982,1.361,1.982,2.874c0,1.497-0.787,2.557-2.027,2.98v0.029
		c0,0,0.318,0.166,0.529,0.561l1.241,2.238c0.151,0.272,0.363,0.348,0.726,0.348h0.348v1.483h-1.256
		c-0.892,0-1.164-0.183-1.497-0.803l-1.528-2.768c-0.227-0.409-0.423-0.545-1.044-0.545h-0.983v2.632h1.24v1.483h-4.507V95.343z
		 M71.199,91.123c1.044,0,1.724-0.62,1.724-1.771c0-0.696-0.257-1.24-0.847-1.482c-0.302-0.136-0.711-0.197-1.21-0.197h-1.452v3.449
		H71.199z"/>
	<polygon clip-path="url(#SVGID_2_)" fill="#9C182F" points="76.916,95.343 78.202,95.343 78.202,87.583 76.916,87.583 
		76.916,86.086 81.484,86.086 81.484,87.583 80.183,87.583 80.183,95.343 81.484,95.343 81.484,96.826 76.916,96.826 	"/>
	<path clip-path="url(#SVGID_2_)" fill="#9C182F" d="M84.781,93.361v0.802c0,0.695,0.877,1.104,1.891,1.104
		c1.089,0,1.86-0.469,1.86-1.331c0-1.089-1.225-1.438-2.465-1.921c-1.437-0.545-2.844-1.195-2.844-3.116
		c0-2.164,1.755-2.995,3.6-2.995c1.694,0,3.403,0.65,3.403,1.89v1.407h-1.799v-0.726c0-0.544-0.802-0.832-1.604-0.832
		c-0.877,0-1.603,0.363-1.603,1.18c0,0.983,0.998,1.331,2.117,1.755c1.604,0.574,3.207,1.21,3.207,3.222
		c0,2.193-1.845,3.207-3.872,3.207c-1.785,0-3.691-0.802-3.691-2.421v-1.225H84.781z"/>
	<polygon clip-path="url(#SVGID_2_)" fill="#9C182F" points="94.083,95.343 95.368,95.343 95.368,87.674 93.342,87.674 
		93.342,89.293 91.663,89.293 91.663,86.086 101.071,86.086 101.071,89.293 99.392,89.293 99.392,87.674 97.35,87.674 97.35,95.343 
		98.651,95.343 98.651,96.826 94.083,96.826 	"/>
	<path clip-path="url(#SVGID_2_)" fill="#9C182F" d="M102.053,95.343h1.271l0.635-7.76h-1.301v-1.497h3.494l2.39,6.065
		c0.182,0.529,0.258,0.893,0.258,0.893h0.03c0,0,0.076-0.363,0.271-0.893l2.375-6.065h3.494v1.497h-1.286l0.621,7.76h1.271v1.483
		h-4.402v-1.483h1.195l-0.394-5.415c-0.029-0.378,0.046-0.999,0.046-0.999h-0.046c0,0-0.12,0.59-0.257,0.953l-2.057,4.947h-1.695
		l-2.057-4.947c-0.136-0.363-0.242-0.953-0.242-0.953h-0.06c0,0,0.075,0.621,0.045,0.999l-0.394,5.415h1.21v1.483h-4.417V95.343z"/>
	<path clip-path="url(#SVGID_2_)" fill="#9C182F" d="M116.331,95.343h0.983l3.222-9.258h2.254l3.222,9.258h0.983v1.482h-4.039
		v-1.482h1.06l-0.666-2.012h-3.389l-0.665,2.012h1.059v1.482h-4.023V95.343z M122.896,91.788l-1.013-3.04
		c-0.167-0.53-0.197-0.938-0.197-0.938h-0.045c0,0-0.046,0.408-0.197,0.938l-1.028,3.04H122.896z"/>
	<path clip-path="url(#SVGID_2_)" fill="#9C182F" d="M129.701,93.361v0.802c0,0.695,0.877,1.104,1.892,1.104
		c1.089,0,1.859-0.469,1.859-1.331c0-1.089-1.225-1.438-2.466-1.921c-1.437-0.545-2.843-1.195-2.843-3.116
		c0-2.164,1.755-2.995,3.6-2.995c1.694,0,3.403,0.65,3.403,1.89v1.407h-1.8v-0.726c0-0.544-0.802-0.832-1.604-0.832
		c-0.877,0-1.604,0.363-1.604,1.18c0,0.983,0.999,1.331,2.118,1.755c1.604,0.574,3.207,1.21,3.207,3.222
		c0,2.193-1.846,3.207-3.872,3.207c-1.785,0-3.691-0.802-3.691-2.421v-1.225H129.701z"/>
	<polygon clip-path="url(#SVGID_2_)" fill="#9C182F" points="140.712,95.343 141.998,95.343 141.998,87.583 140.712,87.583 
		140.712,86.086 148.684,86.086 148.684,88.854 146.989,88.854 146.989,87.674 143.979,87.674 143.979,90.624 147.519,90.624 
		147.519,92.212 143.979,92.212 143.979,95.236 147.216,95.236 147.216,94.026 148.911,94.026 148.911,96.826 140.712,96.826 	"/>
	<polygon clip-path="url(#SVGID_2_)" fill="#9C182F" points="150.407,95.343 151.693,95.343 151.693,87.674 150.407,87.674 
		150.407,86.086 154.975,86.086 154.975,87.674 153.674,87.674 153.674,95.236 156.851,95.236 156.851,93.573 158.545,93.573 
		158.545,96.826 150.407,96.826 	"/>
	<polygon clip-path="url(#SVGID_2_)" fill="#9C182F" points="159.678,95.343 160.964,95.343 160.964,87.583 159.678,87.583 
		159.678,86.086 167.347,86.086 167.347,88.869 165.653,88.869 165.653,87.765 162.946,87.765 162.946,90.85 166.44,90.85 
		166.44,92.438 162.946,92.438 162.946,95.343 164.367,95.343 164.367,96.826 159.678,96.826 	"/>
	<path clip-path="url(#SVGID_2_)" fill="#9C182F" d="M170.342,93.361v0.802c0,0.695,0.877,1.104,1.891,1.104
		c1.089,0,1.86-0.469,1.86-1.331c0-1.089-1.226-1.438-2.465-1.921c-1.438-0.545-2.845-1.195-2.845-3.116
		c0-2.164,1.755-2.995,3.601-2.995c1.693,0,3.403,0.65,3.403,1.89v1.407h-1.8v-0.726c0-0.544-0.802-0.832-1.604-0.832
		c-0.877,0-1.604,0.363-1.604,1.18c0,0.983,0.998,1.331,2.118,1.755c1.604,0.574,3.206,1.21,3.206,3.222
		c0,2.193-1.845,3.207-3.872,3.207c-1.785,0-3.691-0.802-3.691-2.421v-1.225H170.342z"/>
</g>
<g>
	<defs>
		<rect id="SVGID_3_" width="180" height="180"/>
	</defs>
	<clipPath id="SVGID_4_">
		<use xlink:href="#SVGID_3_"  overflow="visible"/>
	</clipPath>
	<path clip-path="url(#SVGID_4_)" fill="#9C182F" d="M6.216,106.649c0.863,3.232,1.102,7.054,1.334,10.422
		c0.345,5.024,0.672,9.94,2.895,13.786c2.267,3.915,6.235,6.656,10.437,9.468c2.783,1.863,5.661,3.831,7.985,6.156
		c2.324,2.322,4.246,5.216,6.105,7.995c2.812,4.204,5.468,8.186,9.392,10.458c3.85,2.227,8.596,2.557,13.619,2.9
		c3.361,0.23,6.838,0.472,10.071,1.335c3.087,0.825,6.128,2.327,9.069,3.778c4.58,2.26,8.906,4.396,13.571,4.396
		c4.666,0,8.986-2.133,13.565-4.392c2.944-1.453,5.988-2.954,9.073-3.778c3.236-0.865,6.717-1.104,10.083-1.335
		c5.019-0.343,9.759-0.667,13.608-2.896c3.921-2.268,6.575-6.237,9.387-10.44c1.859-2.778,3.782-5.654,6.111-7.982
		c2.322-2.323,5.191-4.247,7.968-6.104c4.21-2.816,8.187-5.481,10.453-9.398c2.227-3.85,2.552-8.601,2.895-13.62
		c0.231-3.367,0.469-7.556,1.335-10.794c0.114-0.425,0.251-2.104,0.417-2.104H5.796C5.963,104.5,6.102,106.224,6.216,106.649"/>
	<path clip-path="url(#SVGID_4_)" fill="#FFFFFF" d="M7.672,104.753c0.26,0.747,0.467,1.409,0.632,2.024
		c0.916,3.432,1.162,7.011,1.401,10.485c0.328,4.768,0.638,9.271,2.61,12.683c2.016,3.482,5.781,6.002,9.768,8.67
		c2.871,1.921,5.839,3.907,8.311,6.38c2.473,2.471,4.455,5.433,6.374,8.3c2.668,3.99,5.189,7.76,8.678,9.779
		c3.416,1.978,7.911,2.284,12.684,2.61c3.465,0.238,7.047,0.482,10.482,1.4c3.294,0.882,6.429,2.429,9.467,3.928
		c4.347,2.145,8.453,4.171,12.615,4.171c4.161,0,8.261-2.023,12.605-4.167c3.04-1.499,6.183-3.05,9.476-3.932
		c3.438-0.918,7.023-1.163,10.494-1.401c4.761-0.325,9.258-0.633,12.673-2.609c3.485-2.017,6.005-5.783,8.673-9.77
		c1.917-2.866,3.9-5.831,6.378-8.31c2.473-2.473,5.433-4.454,8.294-6.369c3.996-2.673,7.771-5.197,9.785-8.681
		c1.976-3.414,2.284-7.911,2.61-12.672c0.237-3.47,0.483-7.058,1.403-10.497c0.163-0.611,0.369-1.273,0.63-2.023H7.672z"/>
	<path clip-path="url(#SVGID_4_)" fill="#266141" d="M9.139,105.869c0.939,3.517,1.188,7.486,1.428,10.992
		c0.322,4.679,0.625,9.242,2.496,12.48c1.915,3.308,5.6,5.859,9.501,8.47c2.909,1.946,5.91,3.997,8.441,6.529
		c2.535,2.532,4.541,5.552,6.481,8.452c2.613,3.907,5.078,7.604,8.393,9.523c3.239,1.873,7.638,2.182,12.296,2.5
		c3.511,0.24,7.14,0.49,10.661,1.432c3.372,0.902,6.549,2.47,9.62,3.985c4.26,2.102,8.276,4.085,12.239,4.085
		c3.96,0,7.973-1.98,12.223-4.077c3.077-1.519,6.259-3.087,9.634-3.99c3.52-0.94,7.148-1.189,10.658-1.429
		c4.66-0.319,9.06-0.621,12.3-2.496c3.311-1.915,5.776-5.601,8.387-9.502c1.94-2.902,3.948-5.902,6.485-8.439
		c2.532-2.532,5.528-4.538,8.425-6.477c3.915-2.618,7.604-5.086,9.519-8.396c1.875-3.239,2.176-7.641,2.495-12.299
		c0.24-3.514,0.489-7.829,1.431-11.345c0.061-0.23,0.131-1.369,0.199-1.369H8.939C9.008,104.5,9.078,105.639,9.139,105.869"/>
	<path clip-path="url(#SVGID_4_)" fill="#FFFFFF" d="M84.141,151.752l3.99-5.231h-2.418l3.348-4.375h-1.844l3.477-4.826l3.477,4.826
		h-1.845l3.349,4.375h-2.418l3.989,5.231H84.141z M95.944,145.055l0.87-1.145l1.966,3.149h-1.552l2.864,4.635h-1.61l0.813,1.065
		h2.751l-2.877-4.636h1.542l-3.842-6.225l-1.604,2.268L95.944,145.055z M96.061,156.309h1.619v-2.829h-1.619V156.309z
		 M86.121,144.167l-1.604-2.268l-3.841,6.225h1.542l-2.877,4.636h2.751l0.812-1.065h-1.61l2.864-4.635h-1.552l1.966-3.149
		l0.87,1.145L86.121,144.167z M85.326,153.479h-1.619v2.829h1.619V153.479z M91.744,152.677h-2.102v3.673h2.102V152.677z
		 M90.116,134.746l-1.309,0.182l0.953,0.916l-0.233,1.301l1.166-0.624l1.165,0.624l-0.232-1.301l0.952-0.916l-1.309-0.182
		l-0.576-1.188L90.116,134.746z"/>
	<path clip-path="url(#SVGID_4_)" fill="#FFFFFF" d="M56.499,116.685v0.441c0,0.51,0.631,0.804,1.331,0.804
		c0.787,0,1.357-0.389,1.357-1.098c0-0.795-0.734-1.072-1.521-1.366c-0.795-0.302-1.625-0.622-1.625-1.686s0.856-1.583,1.85-1.583
		c0.864,0,1.755,0.339,1.755,0.951v0.649h-0.579v-0.45c0-0.389-0.632-0.596-1.176-0.596c-0.692,0-1.228,0.337-1.228,0.984
		c0,0.735,0.657,0.969,1.392,1.254c0.882,0.328,1.755,0.665,1.755,1.781c0,1.071-0.856,1.711-1.98,1.711
		c-0.873,0-1.91-0.389-1.91-1.219v-0.579H56.499z"/>
	<polygon clip-path="url(#SVGID_4_)" fill="#FFFFFF" points="62.03,117.878 62.825,117.878 62.825,112.82 61.122,112.82 
		61.122,113.806 60.578,113.806 60.578,112.302 65.678,112.302 65.678,113.806 65.125,113.806 65.125,112.82 63.43,112.82 
		63.43,117.878 64.226,117.878 64.226,118.379 62.03,118.379 	"/>
	<path clip-path="url(#SVGID_4_)" fill="#FFFFFF" d="M65.582,117.878h0.623l2.048-5.576h0.666l2.049,5.576h0.622v0.501h-1.945
		v-0.501h0.7l-0.579-1.564h-2.368l-0.571,1.564h0.7v0.501h-1.945V117.878z M69.602,115.803l-0.908-2.489
		c-0.069-0.199-0.095-0.39-0.095-0.39h-0.026c0,0-0.017,0.19-0.086,0.39l-0.925,2.489H69.602z"/>
	<path clip-path="url(#SVGID_4_)" fill="#FFFFFF" d="M72.15,117.877h0.795v-5.073H72.15v-0.502h2.602
		c0.415,0,0.744,0.025,1.081,0.139c0.596,0.216,0.985,0.717,0.985,1.521c0,0.908-0.518,1.574-1.348,1.722v0.017
		c0,0,0.112,0.077,0.207,0.251l1.012,1.729c0.095,0.173,0.207,0.198,0.432,0.198h0.173v0.503h-0.329
		c-0.527,0-0.622-0.078-0.838-0.46l-1.02-1.745c-0.165-0.294-0.286-0.371-0.683-0.371h-0.873v2.073h0.786v0.503H72.15V117.877z
		 M74.977,115.284c0.735,0,1.228-0.502,1.228-1.279c0-0.554-0.242-0.907-0.666-1.071c-0.208-0.078-0.493-0.113-0.804-0.113h-1.184
		v2.464H74.977z"/>
	<polygon clip-path="url(#SVGID_4_)" fill="#FFFFFF" points="79.264,117.878 80.059,117.878 80.059,112.82 78.355,112.82 
		78.355,113.806 77.812,113.806 77.812,112.302 82.912,112.302 82.912,113.806 82.358,113.806 82.358,112.82 80.664,112.82 
		80.664,117.878 81.459,117.878 81.459,118.379 79.264,118.379 	"/>
	<path clip-path="url(#SVGID_4_)" fill="#FFFFFF" d="M85.443,117.878h0.622l2.049-5.576h0.665l2.049,5.576h0.623v0.501h-1.946
		v-0.501h0.701l-0.579-1.564h-2.369l-0.571,1.564h0.701v0.501h-1.945V117.878z M89.462,115.803l-0.908-2.489
		c-0.069-0.199-0.094-0.39-0.094-0.39h-0.026c0,0-0.018,0.19-0.087,0.39l-0.925,2.489H89.462z"/>
	<polygon clip-path="url(#SVGID_4_)" fill="#FFFFFF" points="94.172,117.878 94.967,117.878 94.967,112.804 94.172,112.804 
		94.172,112.302 98.261,112.302 98.261,113.599 97.716,113.599 97.716,112.838 95.572,112.838 95.572,115.129 97.794,115.129 
		97.794,115.647 95.572,115.647 95.572,117.878 96.42,117.878 96.42,118.379 94.172,118.379 	"/>
	<path clip-path="url(#SVGID_4_)" fill="#FFFFFF" d="M98.32,117.878h0.623l2.049-5.576h0.665l2.049,5.576h0.623v0.501h-1.946v-0.501
		h0.701l-0.579-1.564h-2.369l-0.57,1.564h0.699v0.501H98.32V117.878z M102.34,115.803l-0.908-2.489
		c-0.068-0.199-0.095-0.39-0.095-0.39h-0.025c0,0-0.018,0.19-0.087,0.39l-0.925,2.489H102.34z"/>
	<path clip-path="url(#SVGID_4_)" fill="#FFFFFF" d="M104.733,117.878h0.795l0.407-5.074h-0.805v-0.502h1.461l1.764,3.977
		c0.078,0.198,0.121,0.354,0.121,0.354h0.018c0,0,0.043-0.156,0.129-0.354l1.764-3.977h1.452v0.502h-0.795l0.397,5.074h0.796v0.501
		h-2.17v-0.501h0.777l-0.328-4.193c-0.009-0.155,0.018-0.432,0.018-0.432h-0.018c0,0-0.069,0.26-0.13,0.406l-1.616,3.562h-0.563
		l-1.625-3.562c-0.061-0.146-0.121-0.406-0.121-0.406h-0.025c0,0,0.025,0.276,0.018,0.432l-0.329,4.193h0.778v0.501h-2.17V117.878z"
		/>
	<polygon clip-path="url(#SVGID_4_)" fill="#FFFFFF" points="113.021,117.878 113.816,117.878 113.816,112.804 113.021,112.804 
		113.021,112.302 115.218,112.302 115.218,112.804 114.423,112.804 114.423,117.878 115.218,117.878 115.218,118.379 
		113.021,118.379 	"/>
	<polygon clip-path="url(#SVGID_4_)" fill="#FFFFFF" points="116.15,117.878 116.945,117.878 116.945,112.82 116.15,112.82 
		116.15,112.302 118.347,112.302 118.347,112.82 117.551,112.82 117.551,117.86 119.979,117.86 119.979,116.849 120.533,116.849 
		120.533,118.379 116.15,118.379 	"/>
	<path clip-path="url(#SVGID_4_)" fill="#FFFFFF" d="M122.097,117.878h0.795v-2.109l-1.789-2.965h-0.597v-0.502h1.919v0.502h-0.674
		l1.313,2.213c0.061,0.104,0.121,0.233,0.121,0.233h0.019c0,0,0.051-0.121,0.12-0.233l1.322-2.213h-0.674v-0.502h1.91v0.502h-0.596
		l-1.79,2.965v2.109h0.796v0.501h-2.196V117.878z"/>
	<polygon clip-path="url(#SVGID_4_)" fill="#FFFFFF" points="50.803,128.249 51.598,128.249 51.598,123.192 49.895,123.192 
		49.895,124.177 49.351,124.177 49.351,122.673 54.451,122.673 54.451,124.177 53.898,124.177 53.898,123.192 52.203,123.192 
		52.203,128.249 52.999,128.249 52.999,128.75 50.803,128.75 	"/>
	<path clip-path="url(#SVGID_4_)" fill="#FFFFFF" d="M55.193,128.249h0.795v-5.074h-0.795v-0.502h2.602
		c0.415,0,0.744,0.026,1.081,0.139c0.596,0.216,0.985,0.717,0.985,1.521c0,0.908-0.518,1.574-1.348,1.721v0.017
		c0,0,0.112,0.077,0.207,0.252l1.012,1.729c0.095,0.172,0.207,0.198,0.432,0.198h0.173v0.502h-0.329
		c-0.527,0-0.622-0.078-0.838-0.459l-1.02-1.746c-0.165-0.294-0.286-0.371-0.683-0.371h-0.873v2.074h0.786v0.502h-2.187V128.249z
		 M58.02,125.656c0.735,0,1.228-0.503,1.228-1.28c0-0.553-0.242-0.907-0.666-1.071c-0.208-0.079-0.493-0.113-0.804-0.113h-1.184
		v2.465H58.02z"/>
	<path clip-path="url(#SVGID_4_)" fill="#FFFFFF" d="M60.75,128.249h0.623l2.048-5.575h0.666l2.049,5.575h0.622v0.501h-1.945v-0.501
		h0.7l-0.579-1.564h-2.368l-0.571,1.564h0.7v0.501H60.75V128.249z M64.77,126.175l-0.908-2.49c-0.069-0.199-0.095-0.39-0.095-0.39
		h-0.026c0,0-0.017,0.19-0.086,0.39l-0.925,2.49H64.77z"/>
	<path clip-path="url(#SVGID_4_)" fill="#FFFFFF" d="M67.318,128.249h0.796v-5.074h-0.796v-0.502h2.568
		c0.519,0,0.89,0.035,1.297,0.156c1.149,0.372,1.876,1.418,1.876,2.887c0,1.496-0.744,2.523-1.954,2.888
		c-0.381,0.121-0.77,0.147-1.219,0.147h-2.568V128.249z M69.834,128.231c0.406,0,0.744-0.035,1.081-0.146
		c0.925-0.303,1.512-1.142,1.512-2.369c0-1.21-0.561-2.066-1.469-2.386c-0.355-0.12-0.7-0.139-1.124-0.139h-1.115v5.04H69.834z"/>
	<polygon clip-path="url(#SVGID_4_)" fill="#FFFFFF" points="73.965,128.249 74.76,128.249 74.76,123.175 73.965,123.175 
		73.965,122.673 76.161,122.673 76.161,123.175 75.365,123.175 75.365,128.249 76.161,128.249 76.161,128.75 73.965,128.75 	"/>
	<polygon clip-path="url(#SVGID_4_)" fill="#FFFFFF" points="78.356,128.249 79.151,128.249 79.151,123.192 77.448,123.192 
		77.448,124.177 76.904,124.177 76.904,122.673 82.004,122.673 82.004,124.177 81.451,124.177 81.451,123.192 79.756,123.192 
		79.756,128.249 80.552,128.249 80.552,128.75 78.356,128.75 	"/>
	<polygon clip-path="url(#SVGID_4_)" fill="#FFFFFF" points="82.746,128.249 83.541,128.249 83.541,123.175 82.746,123.175 
		82.746,122.673 84.942,122.673 84.942,123.175 84.146,123.175 84.146,128.249 84.942,128.249 84.942,128.75 82.746,128.75 	"/>
	<path clip-path="url(#SVGID_4_)" fill="#FFFFFF" d="M88.91,122.57c1.729,0,3.103,1.356,3.103,3.103
		c0,1.781-1.374,3.181-3.103,3.181c-1.72,0-3.095-1.399-3.095-3.181C85.814,123.927,87.189,122.57,88.91,122.57 M88.91,128.301
		c1.366,0,2.472-1.141,2.472-2.628c0-1.452-1.106-2.55-2.472-2.55c-1.357,0-2.464,1.098-2.464,2.55
		C86.445,127.16,87.553,128.301,88.91,128.301"/>
	<path clip-path="url(#SVGID_4_)" fill="#FFFFFF" d="M92.885,128.249h0.795v-5.074h-0.795v-0.502h1.383l3.406,4.798
		c0.086,0.139,0.181,0.372,0.181,0.372h0.018c0,0-0.035-0.26-0.025-0.424v-4.244h-0.805v-0.502h2.204v0.502h-0.795v5.575h-0.588
		l-3.406-4.797c-0.086-0.139-0.181-0.372-0.181-0.372h-0.018c0,0,0.034,0.259,0.025,0.415v4.253h0.805v0.501h-2.204V128.249z"/>
	<polygon clip-path="url(#SVGID_4_)" fill="#FFFFFF" points="103.507,128.249 104.302,128.249 104.302,123.192 102.599,123.192 
		102.599,124.177 102.055,124.177 102.055,122.673 107.154,122.673 107.154,124.177 106.602,124.177 106.602,123.192 
		104.907,123.192 104.907,128.249 105.702,128.249 105.702,128.75 103.507,128.75 	"/>
	<path clip-path="url(#SVGID_4_)" fill="#FFFFFF" d="M110.991,122.57c1.729,0,3.103,1.356,3.103,3.103
		c0,1.781-1.374,3.181-3.103,3.181c-1.72,0-3.095-1.399-3.095-3.181C107.896,123.927,109.271,122.57,110.991,122.57
		 M110.991,128.301c1.366,0,2.473-1.141,2.473-2.628c0-1.452-1.106-2.55-2.473-2.55c-1.357,0-2.464,1.098-2.464,2.55
		C108.527,127.16,109.634,128.301,110.991,128.301"/>
	<path clip-path="url(#SVGID_4_)" fill="#FFFFFF" d="M114.966,128.249h0.795v-5.074h-0.795v-0.502h2.568
		c0.519,0,0.89,0.035,1.296,0.156c1.15,0.372,1.877,1.418,1.877,2.887c0,1.496-0.744,2.523-1.954,2.888
		c-0.381,0.121-0.77,0.147-1.219,0.147h-2.568V128.249z M117.482,128.231c0.405,0,0.744-0.035,1.08-0.146
		c0.925-0.303,1.513-1.142,1.513-2.369c0-1.21-0.562-2.066-1.469-2.386c-0.355-0.12-0.7-0.139-1.124-0.139h-1.115v5.04H117.482z"/>
	<path clip-path="url(#SVGID_4_)" fill="#FFFFFF" d="M121.146,128.249h0.622l2.049-5.575h0.666l2.049,5.575h0.622v0.501h-1.944
		v-0.501h0.7l-0.579-1.564h-2.369l-0.57,1.564h0.7v0.501h-1.945V128.249z M125.166,126.175l-0.908-2.49
		c-0.069-0.199-0.095-0.39-0.095-0.39h-0.026c0,0-0.017,0.19-0.086,0.39l-0.925,2.49H125.166z"/>
	<path clip-path="url(#SVGID_4_)" fill="#FFFFFF" d="M128.432,128.249h0.795v-2.109l-1.788-2.965h-0.598v-0.502h1.919v0.502h-0.674
		l1.314,2.213c0.06,0.104,0.121,0.233,0.121,0.233h0.018c0,0,0.051-0.121,0.12-0.233l1.323-2.213h-0.675v-0.502h1.91v0.502h-0.596
		l-1.79,2.965v2.109h0.796v0.501h-2.196V128.249z"/>
	<path clip-path="url(#SVGID_4_)" fill="#9C182F" d="M175.17,76.203c-0.863-3.232-1.102-7.128-1.334-10.495
		c-0.345-5.024-0.672-9.978-2.895-13.823c-2.268-3.915-6.235-6.675-10.438-9.487c-2.783-1.863-5.661-3.841-7.984-6.165
		c-2.324-2.322-4.246-5.221-6.105-7.999c-2.812-4.205-5.468-8.19-9.392-10.461c-3.851-2.227-8.597-2.558-13.619-2.902
		c-3.361-0.23-6.838-0.472-10.071-1.336c-3.087-0.825-6.128-2.327-9.069-3.778c-4.579-2.26-8.905-4.395-13.57-4.395
		c-4.667,0-8.987,2.132-13.566,4.391c-2.944,1.452-5.988,2.954-9.073,3.779c-3.236,0.865-6.717,1.103-10.083,1.334
		c-5.019,0.343-9.759,0.667-13.608,2.895c-3.921,2.268-6.576,6.238-9.387,10.44c-1.86,2.78-3.782,5.655-6.111,7.983
		c-2.323,2.324-5.192,4.247-7.968,6.105c-4.21,2.816-8.187,5.482-10.453,9.399c-2.227,3.848-2.552,8.6-2.895,13.619
		c-0.231,3.367-0.469,7.704-1.335,10.942C6.099,76.674,5.961,76.5,5.796,78.5H175.59C175.423,76.5,175.284,76.629,175.17,76.203"/>
	<path clip-path="url(#SVGID_4_)" fill="#FFFFFF" d="M173.714,77.952c-0.26-0.747-0.467-1.409-0.632-2.024
		c-0.916-3.432-1.162-7.011-1.401-10.485c-0.328-4.768-0.638-9.272-2.609-12.683c-2.017-3.482-5.782-6.002-9.769-8.67
		c-2.871-1.921-5.839-3.907-8.311-6.38c-2.474-2.47-4.455-5.432-6.374-8.3c-2.668-3.99-5.189-7.759-8.678-9.779
		c-3.416-1.976-7.911-2.284-12.685-2.61c-3.465-0.238-7.047-0.483-10.481-1.401c-3.294-0.881-6.43-2.428-9.468-3.927
		c-4.347-2.145-8.453-4.171-12.614-4.171s-8.261,2.023-12.606,4.167c-3.04,1.499-6.182,3.05-9.475,3.931
		c-3.438,0.918-7.024,1.164-10.494,1.402c-4.761,0.325-9.258,0.633-12.673,2.609c-3.486,2.017-6.005,5.783-8.673,9.77
		c-1.917,2.866-3.9,5.831-6.378,8.309c-2.473,2.473-5.433,4.454-8.294,6.369c-3.996,2.673-7.771,5.198-9.785,8.681
		c-1.976,3.414-2.284,7.911-2.61,12.672C9.466,68.902,9.22,72.49,8.3,75.929c-0.163,0.611-0.369,1.273-0.63,2.023H173.714z"/>
	<path clip-path="url(#SVGID_4_)" fill="#266141" d="M172.247,76.983c-0.938-3.517-1.188-7.559-1.428-11.065
		c-0.322-4.68-0.625-9.281-2.496-12.518c-1.915-3.308-5.6-5.878-9.501-8.489c-2.909-1.946-5.91-4.006-8.441-6.538
		c-2.535-2.532-4.541-5.557-6.48-8.457c-2.613-3.907-5.078-7.606-8.394-9.525c-3.238-1.873-7.638-2.183-12.296-2.502
		c-3.511-0.24-7.14-0.491-10.661-1.432c-3.372-0.902-6.549-2.47-9.619-3.985c-4.261-2.102-8.276-4.086-12.239-4.086
		c-3.96,0-7.973,1.98-12.223,4.077c-3.077,1.518-6.259,3.088-9.634,3.991c-3.519,0.94-7.148,1.188-10.658,1.429
		c-4.66,0.319-9.06,0.62-12.3,2.495c-3.31,1.916-5.776,5.6-8.387,9.502c-1.94,2.902-3.948,5.903-6.485,8.44
		c-2.532,2.532-5.528,4.537-8.425,6.476c-3.915,2.619-7.603,5.087-9.518,8.396c-1.875,3.24-2.176,7.64-2.496,12.298
		c-0.24,3.515-0.489,7.977-1.43,11.493C9.074,77.213,9.004,78.5,8.936,78.5h163.511C172.378,78.5,172.309,77.213,172.247,76.983"/>
</g>
<g>
	<defs>
		<rect id="SVGID_5_" x="46.598" width="85.999" height="78.5"/>
	</defs>
	<clipPath id="SVGID_6_">
		<use xlink:href="#SVGID_5_"  overflow="visible"/>
	</clipPath>
	<path clip-path="url(#SVGID_6_)" fill="#FFFFFF" d="M82.646,68.181c-2.026,0-3.669,1.643-3.669,3.669
		c0,2.027,1.643,3.67,3.669,3.67s3.669-1.643,3.669-3.67C86.314,69.824,84.671,68.181,82.646,68.181"/>
	<path clip-path="url(#SVGID_6_)" fill="#FFFFFF" d="M99.163,68.181c-2.026,0-3.669,1.643-3.669,3.669
		c0,2.027,1.643,3.67,3.669,3.67s3.669-1.643,3.669-3.67C102.832,69.824,101.189,68.181,99.163,68.181"/>
	<path clip-path="url(#SVGID_6_)" fill="#FFFFFF" d="M90.938,89.692c3.129,0,5.665-3.192,5.665-5.192h-11.33
		C85.272,86.5,87.809,89.692,90.938,89.692"/>
	<path clip-path="url(#SVGID_6_)" fill="#FFFFFF" d="M114.984,59.245l-19.13-39.842c2.54-1.631,4.225-4.48,4.225-7.724
		c0-5.067-4.107-9.175-9.175-9.175s-9.175,4.108-9.175,9.175c0,3.245,1.686,6.094,4.228,7.725L67.109,59.321
		c-3.797-1.217-9.381-3.01-15.747-5.415C53.066,70.949,64.979,82.5,64.979,82.5h0.023c3.837,9,14.042,17.996,26.032,17.996
		c12.1,0,22.378-7.72,26.133-18.41c1.833-1.885,11.78-12.78,13.326-28.24C124.26,56.2,118.774,58.027,114.984,59.245 M63.471,70.829
		c-1.353-2.183-2.733-4.79-3.864-7.739c1.893,0.647,3.599,1.212,5.074,1.69C64.057,66.712,63.645,68.737,63.471,70.829
		 M90.904,8.403c1.807,0,3.275,1.47,3.275,3.276c0,1.807-1.469,3.276-3.275,3.276c-1.806,0-3.276-1.469-3.276-3.276
		C87.628,9.873,89.098,8.403,90.904,8.403 M90.908,22.692L101.388,44.5H80.605L90.908,22.692z M78.19,49.5h25.654l2.529,5.361
		l-30.687-0.012L78.19,49.5z M91.034,94.516c-11.999,0-21.761-9.612-21.761-21.427c0-4.535,1.442-8.742,3.893-12.209l8.306-0.009
		l-2.803,4.389l8.3-2.934L86.363,67l12.251-6.146l10.259-0.011c2.467,3.474,3.922,7.695,3.922,12.246
		C112.795,84.904,103.033,94.516,91.034,94.516 M117.368,64.717c1.43-0.464,3.069-1.008,4.88-1.627
		c-1.078,2.812-2.383,5.311-3.675,7.429C118.383,68.514,117.973,66.573,117.368,64.717"/>
</g>
<g>
	<defs>
		<rect id="SVGID_7_" width="180" height="180"/>
	</defs>
	<clipPath id="SVGID_8_">
		<use xlink:href="#SVGID_7_"  overflow="visible"/>
	</clipPath>
	<path clip-path="url(#SVGID_8_)" fill="#FFFFFF" d="M121.103,162.077c-0.08,0-0.16-0.015-0.238-0.046
		c-8.199-3.246-18.913-5.034-30.17-5.034c-0.357,0-0.647-0.29-0.647-0.647c0-0.358,0.29-0.648,0.647-0.648
		c11.416,0,22.3,1.82,30.646,5.125c0.333,0.132,0.496,0.508,0.364,0.841C121.604,161.922,121.36,162.077,121.103,162.077"/>
	<path clip-path="url(#SVGID_8_)" fill="#FFFFFF" d="M60.445,162.077c-0.258,0-0.502-0.155-0.603-0.41
		c-0.132-0.333,0.031-0.709,0.364-0.841c8.347-3.305,19.231-5.125,30.647-5.125c0.357,0,0.647,0.29,0.647,0.648
		c0,0.357-0.29,0.647-0.647,0.647c-11.257,0-21.971,1.788-30.17,5.034C60.605,162.063,60.524,162.077,60.445,162.077"/>
	<rect x="4" y="78.5" clip-path="url(#SVGID_8_)" fill="#FFFFFF" width="173.25" height="26"/>
	<path clip-path="url(#SVGID_8_)" fill="#9C182F" d="M18.603,84.36c1.637,0,5.272,0.571,5.272,2.703v1.826H21.61v-1.046
		c0-1.009-1.789-1.351-2.893-1.351c-2.608,0-4.511,1.827-4.511,4.682c0,3.045,1.979,5.026,4.645,5.026
		c0.818,0,2.931-0.267,2.931-1.334v-1.047h2.265v1.846c0,2.019-3.483,2.665-5.348,2.665c-4.093,0-7.062-3.103-7.062-7.042
		C11.637,87.29,14.682,84.36,18.603,84.36"/>
	<polygon clip-path="url(#SVGID_8_)" fill="#9C182F" points="25.948,96.237 27.566,96.237 27.566,86.473 25.948,86.473 
		25.948,84.589 31.695,84.589 31.695,86.473 30.059,86.473 30.059,90.374 36.206,90.374 36.206,86.473 34.57,86.473 34.57,84.589 
		40.317,84.589 40.317,86.473 38.701,86.473 38.701,96.237 40.317,96.237 40.317,98.104 34.57,98.104 34.57,96.237 36.206,96.237 
		36.206,92.372 30.059,92.372 30.059,96.237 31.695,96.237 31.695,98.104 25.948,98.104 	"/>
	<path clip-path="url(#SVGID_8_)" fill="#9C182F" d="M42.22,96.237h1.618v-9.766H42.22v-1.883h5.957c0.99,0,1.808,0.057,2.569,0.285
		c1.503,0.495,2.494,1.713,2.494,3.616c0,1.884-0.99,3.217-2.55,3.75v0.037c0,0,0.4,0.209,0.666,0.705l1.562,2.817
		c0.19,0.342,0.457,0.438,0.914,0.438h0.438v1.866h-1.581c-1.123,0-1.464-0.23-1.883-1.011l-1.923-3.481
		c-0.285-0.516-0.532-0.687-1.313-0.687h-1.237v3.313h1.56v1.866H42.22V96.237z M48.577,90.927c1.314,0,2.169-0.78,2.169-2.228
		c0-0.875-0.323-1.56-1.066-1.865c-0.38-0.17-0.895-0.248-1.522-0.248h-1.827v4.34H48.577z"/>
	<polygon clip-path="url(#SVGID_8_)" fill="#9C182F" points="55.771,96.237 57.388,96.237 57.388,86.473 55.771,86.473 
		55.771,84.589 61.518,84.589 61.518,86.473 59.881,86.473 59.881,96.237 61.518,96.237 61.518,98.104 55.771,98.104 	"/>
	<path clip-path="url(#SVGID_8_)" fill="#9C182F" d="M65.667,93.744v1.008c0,0.875,1.104,1.39,2.379,1.39
		c1.371,0,2.341-0.59,2.341-1.674c0-1.371-1.542-1.81-3.102-2.418c-1.808-0.686-3.579-1.504-3.579-3.92
		c0-2.724,2.208-3.769,4.53-3.769c2.131,0,4.282,0.818,4.282,2.378v1.77h-2.264v-0.913c0-0.685-1.009-1.047-2.018-1.047
		c-1.104,0-2.017,0.457-2.017,1.484c0,1.236,1.256,1.674,2.664,2.209c2.018,0.722,4.035,1.521,4.035,4.053
		c0,2.76-2.321,4.035-4.872,4.035c-2.246,0-4.644-1.009-4.644-3.046v-1.54H65.667z"/>
	<polygon clip-path="url(#SVGID_8_)" fill="#9C182F" points="77.371,96.237 78.988,96.237 78.988,86.587 76.438,86.587 
		76.438,88.625 74.326,88.625 74.326,84.589 86.164,84.589 86.164,88.625 84.051,88.625 84.051,86.587 81.481,86.587 81.481,96.237 
		83.119,96.237 83.119,98.104 77.371,98.104 	"/>
	<path clip-path="url(#SVGID_8_)" fill="#9C182F" d="M87.4,96.237h1.599l0.799-9.765h-1.637v-1.884h4.397l3.007,7.632
		c0.228,0.667,0.323,1.123,0.323,1.123h0.039c0,0,0.096-0.456,0.341-1.123l2.988-7.632h4.396v1.884h-1.618l0.781,9.765h1.599v1.866
		h-5.539v-1.866h1.505l-0.495-6.813c-0.037-0.476,0.058-1.258,0.058-1.258h-0.058c0,0-0.152,0.742-0.323,1.2l-2.589,6.225h-2.133
		l-2.588-6.225c-0.17-0.458-0.305-1.2-0.305-1.2h-0.075c0,0,0.095,0.782,0.057,1.258l-0.495,6.813h1.522v1.866H87.4V96.237z"/>
	<path clip-path="url(#SVGID_8_)" fill="#9C182F" d="M105.365,96.237h1.237l4.054-11.649h2.837l4.053,11.649h1.237v1.865h-5.082
		v-1.865h1.334l-0.838-2.531h-4.264l-0.837,2.531h1.332v1.865h-5.063V96.237z M113.625,91.764l-1.274-3.825
		c-0.209-0.667-0.247-1.181-0.247-1.181h-0.057c0,0-0.059,0.514-0.249,1.181l-1.294,3.825H113.625z"/>
	<path clip-path="url(#SVGID_8_)" fill="#9C182F" d="M122.189,93.744v1.008c0,0.875,1.103,1.39,2.38,1.39
		c1.37,0,2.34-0.59,2.34-1.674c0-1.371-1.542-1.81-3.103-2.418c-1.809-0.686-3.578-1.504-3.578-3.92c0-2.724,2.209-3.769,4.53-3.769
		c2.132,0,4.282,0.818,4.282,2.378v1.77h-2.265v-0.913c0-0.685-1.01-1.047-2.018-1.047c-1.104,0-2.019,0.457-2.019,1.484
		c0,1.236,1.257,1.674,2.665,2.209c2.019,0.722,4.036,1.521,4.036,4.053c0,2.76-2.323,4.035-4.872,4.035
		c-2.247,0-4.645-1.009-4.645-3.046v-1.54H122.189z"/>
	<polygon clip-path="url(#SVGID_8_)" fill="#9C182F" points="136.044,96.237 137.662,96.237 137.662,86.473 136.044,86.473 
		136.044,84.589 146.074,84.589 146.074,88.072 143.942,88.072 143.942,86.587 140.154,86.587 140.154,90.299 144.608,90.299 
		144.608,92.297 140.154,92.297 140.154,96.103 144.228,96.103 144.228,94.581 146.36,94.581 146.36,98.104 136.044,98.104 	"/>
	<polygon clip-path="url(#SVGID_8_)" fill="#9C182F" points="148.243,96.237 149.861,96.237 149.861,86.587 148.243,86.587 
		148.243,84.589 153.99,84.589 153.99,86.587 152.353,86.587 152.353,96.103 156.351,96.103 156.351,94.01 158.482,94.01 
		158.482,98.104 148.243,98.104 	"/>
	<polygon clip-path="url(#SVGID_8_)" fill="#9C182F" points="159.908,96.237 161.526,96.237 161.526,86.473 159.908,86.473 
		159.908,84.589 169.558,84.589 169.558,88.09 167.427,88.09 167.427,86.701 164.021,86.701 164.021,90.583 168.418,90.583 
		168.418,92.582 164.021,92.582 164.021,96.237 165.809,96.237 165.809,98.104 159.908,98.104 	"/>
</g>
</svg>
