<svg xmlns="http://www.w3.org/2000/svg" xmlns:xlink="http://www.w3.org/1999/xlink" width="180" height="180" viewBox="0 0 180 180"><defs><path id="a" d="M0 0h180v180h-180z"/></defs><clipPath id="b"><use xlink:href="#a" overflow="visible"/></clipPath><path clip-path="url(#b)" fill="#9C182F" d="M173.373 104.5c-.107 0-.204 1.318-.288 1.633-.92 3.438-1.165 7.349-1.402 10.818-.326 4.762-.634 9.42-2.61 12.834-2.015 3.482-5.789 6.088-9.785 8.761-2.86 1.915-5.82 3.937-8.294 6.41-2.479 2.477-4.461 5.462-6.378 8.329-2.668 3.987-5.188 7.763-8.673 9.779-3.415 1.977-7.912 2.288-12.674 2.614-3.469.237-7.055.486-10.493 1.404-3.293.881-6.436 2.433-9.475 3.932-4.346 2.145-8.445 4.168-12.606 4.168-4.162 0-8.268-2.025-12.616-4.171-3.037-1.499-6.172-3.046-9.466-3.926-3.435-.918-7.017-1.164-10.482-1.401-4.773-.326-9.268-.634-12.685-2.61-3.488-2.02-6.009-5.789-8.678-9.779-1.919-2.868-3.9-5.829-6.373-8.3-2.472-2.473-5.44-4.459-8.311-6.379-3.987-2.669-7.753-5.189-9.768-8.67-1.973-3.412-2.282-7.915-2.61-12.685-.239-3.474-.485-7.696-1.402-11.129-.084-.314-.18-1.633-.288-1.633h-2.22c.168 0 .307 1.723.421 2.149.863 3.232 1.102 7.054 1.333 10.422.346 5.023.673 9.94 2.896 13.786 2.267 3.915 6.234 6.655 10.437 9.469 2.783 1.862 5.661 3.831 7.985 6.155 2.324 2.321 4.246 5.216 6.105 7.994 2.812 4.205 5.468 8.188 9.391 10.458 3.851 2.229 8.596 2.559 13.619 2.901 3.362.23 6.838.471 10.072 1.336 3.087.825 6.128 2.326 9.069 3.778 4.58 2.259 8.905 4.394 13.571 4.394 4.665 0 8.987-2.132 13.565-4.391 2.943-1.452 5.988-2.954 9.072-3.779 3.237-.865 6.719-1.103 10.084-1.334 5.019-.343 9.759-.667 13.608-2.895 3.92-2.269 6.575-6.238 9.387-10.44 1.859-2.78 3.781-5.655 6.11-7.982 2.323-2.324 5.193-4.247 7.969-6.105 4.21-2.816 8.187-5.482 10.452-9.399 2.228-3.849 2.552-8.6 2.896-13.618.229-3.367.469-7.558 1.335-10.796.113-.425.251-2.103.417-2.103h-2.217z"/><path clip-path="url(#b)" fill="#266141" d="M9.139 105.869c.939 3.517 1.188 7.486 1.428 10.992.322 4.679.625 9.242 2.496 12.48 1.915 3.308 5.6 5.859 9.501 8.47 2.909 1.946 5.91 3.997 8.441 6.529 2.535 2.532 4.541 5.552 6.481 8.452 2.613 3.907 5.078 7.604 8.393 9.523 3.239 1.873 7.638 2.182 12.296 2.5 3.511.24 7.14.49 10.661 1.432 3.372.902 6.549 2.47 9.62 3.985 4.26 2.102 8.276 4.085 12.239 4.085 3.96 0 7.973-1.98 12.223-4.077 3.077-1.519 6.259-3.087 9.634-3.99 3.52-.94 7.148-1.189 10.658-1.429 4.66-.319 9.06-.621 12.3-2.496 3.311-1.915 5.776-5.601 8.387-9.502 1.94-2.902 3.948-5.902 6.485-8.439 2.532-2.532 5.528-4.538 8.425-6.477 3.915-2.618 7.604-5.086 9.519-8.396 1.875-3.239 2.176-7.641 2.495-12.299.24-3.514.489-7.829 1.431-11.345.061-.23.131-1.369.199-1.369h-163.512c.069.002.139 1.141.2 1.371"/><path clip-path="url(#b)" fill="#fff" d="M84.141 151.752l3.99-5.231h-2.418l3.348-4.375h-1.844l3.477-4.826 3.477 4.826h-1.845l3.349 4.375h-2.418l3.989 5.231h-13.105zm11.803-6.697l.87-1.145 1.966 3.149h-1.552l2.864 4.635h-1.61l.813 1.065h2.751l-2.877-4.636h1.542l-3.842-6.225-1.604 2.268.679.889zm.117 11.254h1.619v-2.829h-1.619v2.829zm-9.94-12.142l-1.604-2.268-3.841 6.225h1.542l-2.877 4.636h2.751l.812-1.065h-1.61l2.864-4.635h-1.552l1.966-3.149.87 1.145.679-.889zm-.795 9.312h-1.619v2.829h1.619v-2.829zm6.418-.802h-2.102v3.673h2.102v-3.673zm-1.628-17.931l-1.309.182.953.916-.233 1.301 1.166-.624 1.165.624-.232-1.301.952-.916-1.309-.182-.576-1.188-.577 1.188zM56.499 116.685v.441c0 .51.631.804 1.331.804.787 0 1.357-.389 1.357-1.098 0-.795-.734-1.072-1.521-1.366-.795-.302-1.625-.622-1.625-1.686s.856-1.583 1.85-1.583c.864 0 1.755.339 1.755.951v.649h-.579v-.45c0-.389-.632-.596-1.176-.596-.692 0-1.228.337-1.228.984 0 .735.657.969 1.392 1.254.882.328 1.755.665 1.755 1.781 0 1.071-.856 1.711-1.98 1.711-.873 0-1.91-.389-1.91-1.219v-.579h.579zM62.03 117.878h.795v-5.058h-1.703v.986h-.544v-1.504h5.1v1.504h-.553v-.986h-1.695v5.058h.796v.501h-2.196zM65.582 117.878h.623l2.048-5.576h.666l2.049 5.576h.622v.501h-1.945v-.501h.7l-.579-1.564h-2.368l-.571 1.564h.7v.501h-1.945v-.501zm4.02-2.075l-.908-2.489c-.069-.199-.095-.39-.095-.39h-.026s-.017.19-.086.39l-.925 2.489h2.04zM72.15 117.877h.795v-5.073h-.795v-.502h2.602c.415 0 .744.025 1.081.139.596.216.985.717.985 1.521 0 .908-.518 1.574-1.348 1.722v.017s.112.077.207.251l1.012 1.729c.095.173.207.198.432.198h.173v.503h-.329c-.527 0-.622-.078-.838-.46l-1.02-1.745c-.165-.294-.286-.371-.683-.371h-.873v2.073h.786v.503h-2.187v-.505zm2.827-2.593c.735 0 1.228-.502 1.228-1.279 0-.554-.242-.907-.666-1.071-.208-.078-.493-.113-.804-.113h-1.184v2.464h1.426zM79.264 117.878h.795v-5.058h-1.704v.986h-.543v-1.504h5.1v1.504h-.554v-.986h-1.694v5.058h.795v.501h-2.195zM85.443 117.878h.622l2.049-5.576h.665l2.049 5.576h.623v.501h-1.946v-.501h.701l-.579-1.564h-2.369l-.571 1.564h.701v.501h-1.945v-.501zm4.019-2.075l-.908-2.489c-.069-.199-.094-.39-.094-.39h-.026s-.018.19-.087.39l-.925 2.489h2.04zM94.172 117.878h.795v-5.074h-.795v-.502h4.089v1.297h-.545v-.761h-2.144v2.291h2.222v.518h-2.222v2.231h.848v.501h-2.248zM98.32 117.878h.623l2.049-5.576h.665l2.049 5.576h.623v.501h-1.946v-.501h.701l-.579-1.564h-2.369l-.57 1.564h.699v.501h-1.945v-.501zm4.02-2.075l-.908-2.489c-.068-.199-.095-.39-.095-.39h-.025s-.018.19-.087.39l-.925 2.489h2.04zM104.733 117.878h.795l.407-5.074h-.805v-.502h1.461l1.764 3.977.121.354h.018l.129-.354 1.764-3.977h1.452v.502h-.795l.397 5.074h.796v.501h-2.17v-.501h.777l-.328-4.193c-.009-.155.018-.432.018-.432h-.018s-.069.26-.13.406l-1.616 3.562h-.563l-1.625-3.562c-.061-.146-.121-.406-.121-.406h-.025s.025.276.018.432l-.329 4.193h.778v.501h-2.17v-.501zM113.021 117.878h.795v-5.074h-.795v-.502h2.197v.502h-.795v5.074h.795v.501h-2.197zM116.15 117.878h.795v-5.058h-.795v-.518h2.197v.518h-.796v5.04h2.428v-1.011h.554v1.53h-4.383zM122.097 117.878h.795v-2.109l-1.789-2.965h-.597v-.502h1.919v.502h-.674l1.313 2.213.121.233h.019l.12-.233 1.322-2.213h-.674v-.502h1.91v.502h-.596l-1.79 2.965v2.109h.796v.501h-2.196v-.501zM50.803 128.249h.795v-5.057h-1.703v.985h-.544v-1.504h5.1v1.504h-.553v-.985h-1.695v5.057h.796v.501h-2.196zM55.193 128.249h.795v-5.074h-.795v-.502h2.602c.415 0 .744.026 1.081.139.596.216.985.717.985 1.521 0 .908-.518 1.574-1.348 1.721v.017s.112.077.207.252l1.012 1.729c.095.172.207.198.432.198h.173v.502h-.329c-.527 0-.622-.078-.838-.459l-1.02-1.746c-.165-.294-.286-.371-.683-.371h-.873v2.074h.786v.502h-2.187v-.503zm2.827-2.593c.735 0 1.228-.503 1.228-1.28 0-.553-.242-.907-.666-1.071-.208-.079-.493-.113-.804-.113h-1.184v2.465h1.426zM60.75 128.249h.623l2.048-5.575h.666l2.049 5.575h.622v.501h-1.945v-.501h.7l-.579-1.564h-2.368l-.571 1.564h.7v.501h-1.945v-.501zm4.02-2.074l-.908-2.49c-.069-.199-.095-.39-.095-.39h-.026s-.017.19-.086.39l-.925 2.49h2.04zM67.318 128.249h.796v-5.074h-.796v-.502h2.568c.519 0 .89.035 1.297.156 1.149.372 1.876 1.418 1.876 2.887 0 1.496-.744 2.523-1.954 2.888-.381.121-.77.147-1.219.147h-2.568v-.502zm2.516-.018c.406 0 .744-.035 1.081-.146.925-.303 1.512-1.142 1.512-2.369 0-1.21-.561-2.066-1.469-2.386-.355-.12-.7-.139-1.124-.139h-1.115v5.04h1.115zM73.965 128.249h.795v-5.074h-.795v-.502h2.196v.502h-.796v5.074h.796v.501h-2.196zM78.356 128.249h.795v-5.057h-1.703v.985h-.544v-1.504h5.1v1.504h-.553v-.985h-1.695v5.057h.796v.501h-2.196zM82.746 128.249h.795v-5.074h-.795v-.502h2.196v.502h-.796v5.074h.796v.501h-2.196zM88.91 122.57c1.729 0 3.103 1.356 3.103 3.103 0 1.781-1.374 3.181-3.103 3.181-1.72 0-3.095-1.399-3.095-3.181-.001-1.746 1.374-3.103 3.095-3.103m0 5.731c1.366 0 2.472-1.141 2.472-2.628 0-1.452-1.106-2.55-2.472-2.55-1.357 0-2.464 1.098-2.464 2.55-.001 1.487 1.107 2.628 2.464 2.628"/><path clip-path="url(#b)" fill="#fff" d="M92.885 128.249h.795v-5.074h-.795v-.502h1.383l3.406 4.798c.086.139.181.372.181.372h.018s-.035-.26-.025-.424v-4.244h-.805v-.502h2.204v.502h-.795v5.575h-.588l-3.406-4.797c-.086-.139-.181-.372-.181-.372h-.018s.034.259.025.415v4.253h.805v.501h-2.204v-.501zM103.507 128.249h.795v-5.057h-1.703v.985h-.544v-1.504h5.099v1.504h-.552v-.985h-1.695v5.057h.795v.501h-2.195zM110.991 122.57c1.729 0 3.103 1.356 3.103 3.103 0 1.781-1.374 3.181-3.103 3.181-1.72 0-3.095-1.399-3.095-3.181 0-1.746 1.375-3.103 3.095-3.103m0 5.731c1.366 0 2.473-1.141 2.473-2.628 0-1.452-1.106-2.55-2.473-2.55-1.357 0-2.464 1.098-2.464 2.55 0 1.487 1.107 2.628 2.464 2.628"/><path clip-path="url(#b)" fill="#fff" d="M114.966 128.249h.795v-5.074h-.795v-.502h2.568c.519 0 .89.035 1.296.156 1.15.372 1.877 1.418 1.877 2.887 0 1.496-.744 2.523-1.954 2.888-.381.121-.77.147-1.219.147h-2.568v-.502zm2.516-.018c.405 0 .744-.035 1.08-.146.925-.303 1.513-1.142 1.513-2.369 0-1.21-.562-2.066-1.469-2.386-.355-.12-.7-.139-1.124-.139h-1.115v5.04h1.115zM121.146 128.249h.622l2.049-5.575h.666l2.049 5.575h.622v.501h-1.944v-.501h.7l-.579-1.564h-2.369l-.57 1.564h.7v.501h-1.945v-.501zm4.02-2.074l-.908-2.49c-.069-.199-.095-.39-.095-.39h-.026s-.017.19-.086.39l-.925 2.49h2.04zM128.432 128.249h.795v-2.109l-1.788-2.965h-.598v-.502h1.919v.502h-.674l1.314 2.213.121.233h.018l.12-.233 1.323-2.213h-.675v-.502h1.91v.502h-.596l-1.79 2.965v2.109h.796v.501h-2.196v-.501z"/><path clip-path="url(#b)" fill="#9C182F" d="M112.773 15.619c3.436.918 7.017 1.164 10.482 1.401 4.772.327 9.268.634 12.685 2.61 3.489 2.02 6.009 5.789 8.678 9.78 1.919 2.868 3.9 5.829 6.373 8.299 2.473 2.473 5.44 4.46 8.312 6.38 3.986 2.668 7.753 5.189 9.768 8.67 1.974 3.411 2.282 7.915 2.611 12.683.238 3.475.483 7.887 1.4 11.318.077.29.165 1.74.264 1.74h2.245c-.168-2-.308-1.871-.42-2.297-.864-3.232-1.104-7.128-1.334-10.496-.347-5.024-.674-9.977-2.896-13.822-2.266-3.915-6.234-6.675-10.437-9.487-2.783-1.863-5.661-3.841-7.985-6.165-2.324-2.322-4.246-5.221-6.105-8-2.812-4.204-5.468-8.189-9.391-10.46-3.851-2.228-8.596-2.559-13.619-2.902-3.362-.23-6.838-.472-10.072-1.336-3.087-.825-6.127-2.327-9.068-3.779-1.796-.886-3.554-1.752-5.309-2.478.47.856.804 1.795.98 2.789 1.111.511 2.234 1.064 3.373 1.626 3.037 1.499 6.172 3.046 9.465 3.926M9.704 65.432c.326-4.762.634-9.259 2.61-12.673 2.015-3.483 5.789-6.007 9.785-8.68 2.862-1.915 5.821-3.896 8.294-6.37 2.479-2.478 4.461-5.442 6.379-8.308 2.667-3.988 5.187-7.753 8.672-9.77 3.415-1.976 7.912-2.284 12.674-2.61 3.469-.237 7.055-.483 10.493-1.402 3.293-.881 6.436-2.431 9.475-3.93 1.295-.639 2.568-1.266 3.828-1.834.206-1.005.577-1.95 1.08-2.808-1.94.769-3.879 1.725-5.867 2.706-2.944 1.452-5.989 2.954-9.073 3.779-3.237.865-6.718 1.104-10.084 1.334-5.018.343-9.758.667-13.608 2.895-3.92 2.269-6.575 6.238-9.387 10.441-1.859 2.779-3.781 5.655-6.11 7.982-2.323 2.324-5.193 4.247-7.968 6.105-4.21 2.816-8.187 5.482-10.453 9.399-2.228 3.849-2.552 8.6-2.896 13.62-.23 3.367-.469 7.703-1.335 10.941-.113.426-.252.251-.418 2.251h2.243c.097 0 .185-1.45.262-1.739.921-3.438 1.166-7.859 1.404-11.329"/><path clip-path="url(#b)" fill="#266141" d="M67.109 59.321l18.848-39.917c-2.542-1.631-4.228-4.481-4.228-7.725 0-.273.017-.542.041-.808-1.087.5-2.186 1.042-3.302 1.592-3.077 1.518-6.259 3.088-9.634 3.991-3.519.94-7.148 1.189-10.658 1.429-4.66.319-9.06.621-12.299 2.496-3.311 1.915-5.777 5.6-8.388 9.502-1.94 2.901-3.948 5.902-6.485 8.439-2.532 2.532-5.527 4.537-8.425 6.477-3.915 2.618-7.603 5.086-9.518 8.395-1.875 3.24-2.176 7.641-2.495 12.299-.241 3.514-.49 7.977-1.431 11.493-.061.229-.131 1.516-.199 1.516h51.407c-3.546-5-7.99-13.872-8.981-23.785 6.366 2.405 11.95 3.389 15.747 4.606M108.873 60.843l-10.259.011-12.251 6.146.606-4.674-8.3 2.934 2.803-4.389-8.306.009c-2.451 3.467-3.893 8.507-3.893 13.042 0 1.278.12 2.578.339 4.578h42.844c.219-2 .339-3.3.339-4.578 0-4.552-1.455-9.605-3.922-13.079m-26.228 14.677c-2.026 0-3.669-1.643-3.669-3.669 0-2.027 1.643-3.67 3.669-3.67 2.027 0 3.67 1.643 3.67 3.67 0 2.025-1.643 3.669-3.67 3.669m16.518 0c-2.027 0-3.669-1.643-3.669-3.669 0-2.027 1.642-3.67 3.669-3.67 2.026 0 3.669 1.643 3.669 3.67 0 2.025-1.643 3.669-3.669 3.669M95.854 19.403l19.13 39.842c3.79-1.219 9.276-2.218 15.509-4.573-.995 9.959-5.475 18.828-9.028 23.828h50.982c-.067 0-.138-1.287-.198-1.516-.94-3.517-1.188-7.56-1.43-11.066-.321-4.679-.624-9.28-2.496-12.517-1.915-3.308-5.599-5.878-9.501-8.489-2.907-1.946-5.91-4.007-8.44-6.539-2.534-2.532-4.54-5.557-6.481-8.456-2.612-3.907-5.078-7.607-8.392-9.525-3.239-1.874-7.639-2.183-12.296-2.502-3.512-.24-7.142-.491-10.661-1.433-3.373-.901-6.549-2.469-9.62-3.985-.973-.479-1.932-.952-2.882-1.398.013.201.031.401.031.605-.001 3.244-1.686 6.092-4.227 7.724M90.904 14.955c1.806 0 3.276-1.47 3.276-3.276 0-1.806-1.471-3.276-3.276-3.276-1.806 0-3.276 1.47-3.276 3.276 0 1.806 1.47 3.276 3.276 3.276M122.248 63.09c-1.811.619-3.45 1.162-4.88 1.627.604 1.855 1.015 3.797 1.205 5.802 1.292-2.119 2.597-4.618 3.675-7.429"/><path clip-path="url(#b)" fill="#266141" d="M90.907 22.692l-10.302 21.808h20.783zM63.471 70.828c.174-2.092.586-4.117 1.211-6.048-1.476-.478-3.182-1.043-5.075-1.69 1.131 2.948 2.511 5.556 3.864 7.738"/><path clip-path="url(#b)" fill="#266141" d="M103.845 49.5h-25.655l-2.503 5.376 30.686-.043z"/><path clip-path="url(#b)" fill="#fff" d="M121.103 162.077l-.238-.046c-8.199-3.246-18.913-5.034-30.17-5.034-.357 0-.647-.29-.647-.647 0-.358.29-.648.647-.648 11.416 0 22.3 1.82 30.646 5.125.333.132.496.508.364.841-.101.254-.345.409-.602.409M60.445 162.077c-.258 0-.502-.155-.603-.41-.132-.333.031-.709.364-.841 8.347-3.305 19.231-5.125 30.647-5.125.357 0 .647.29.647.648 0 .357-.29.647-.647.647-11.257 0-21.971 1.788-30.17 5.034-.078.033-.159.047-.238.047"/><path clip-path="url(#b)" fill="#9C182F" d="M7.403 95.343h1.286v-7.669h-2.027v1.619h-1.679v-3.207h9.408v3.207h-1.679v-1.619h-2.042v7.669h1.301v1.483h-4.568zM15.555 95.343h1.286v-7.76h-1.286v-1.497h4.568v1.497h-1.301v3.101h4.886v-3.101h-1.301v-1.497h4.568v1.497h-1.285v7.76h1.285v1.483h-4.568v-1.483h1.301v-3.072h-4.886v3.072h1.301v1.483h-4.568zM28.486 95.343h1.286v-7.76h-1.286v-1.497h7.972v2.768h-1.694v-1.18h-3.011v2.95h3.54v1.588h-3.54v3.024h3.237v-1.21h1.696v2.8h-8.2zM47.378 85.904c1.301 0 4.19.454 4.19 2.148v1.452h-1.8v-.832c0-.802-1.422-1.074-2.299-1.074-2.073 0-3.585 1.452-3.585 3.721 0 2.42 1.573 3.994 3.691 3.994.65 0 2.329-.212 2.329-1.06v-.832h1.8v1.467c0 1.604-2.768 2.118-4.25 2.118-3.252 0-5.612-2.466-5.612-5.597 0-3.176 2.42-5.505 5.536-5.505"/><path clip-path="url(#b)" fill="#9C182F" d="M53.215 95.343h1.286v-7.76h-1.286v-1.497h4.568v1.497h-1.301v3.101h4.886v-3.101h-1.301v-1.497h4.568v1.497h-1.284v7.76h1.284v1.483h-4.568v-1.483h1.301v-3.072h-4.886v3.072h1.301v1.483h-4.568zM66.147 95.343h1.286v-7.76h-1.286v-1.497h4.734c.787 0 1.437.045 2.042.227 1.195.393 1.982 1.361 1.982 2.874 0 1.497-.787 2.557-2.027 2.98v.029s.318.166.529.561l1.241 2.238c.151.272.363.348.726.348h.348v1.483h-1.256c-.892 0-1.164-.183-1.497-.803l-1.528-2.768c-.227-.409-.423-.545-1.044-.545h-.983v2.632h1.24v1.483h-4.507v-1.482zm5.052-4.22c1.044 0 1.724-.62 1.724-1.771 0-.696-.257-1.24-.847-1.482-.302-.136-.711-.197-1.21-.197h-1.452v3.449h1.785zM76.916 95.343h1.286v-7.76h-1.286v-1.497h4.568v1.497h-1.301v7.76h1.301v1.483h-4.568zM84.781 93.361v.802c0 .695.877 1.104 1.891 1.104 1.089 0 1.86-.469 1.86-1.331 0-1.089-1.225-1.438-2.465-1.921-1.437-.545-2.844-1.195-2.844-3.116 0-2.164 1.755-2.995 3.6-2.995 1.694 0 3.403.65 3.403 1.89v1.407h-1.799v-.726c0-.544-.802-.832-1.604-.832-.877 0-1.603.363-1.603 1.18 0 .983.998 1.331 2.117 1.755 1.604.574 3.207 1.21 3.207 3.222 0 2.193-1.845 3.207-3.872 3.207-1.785 0-3.691-.802-3.691-2.421v-1.225h1.8zM94.083 95.343h1.285v-7.669h-2.026v1.619h-1.679v-3.207h9.408v3.207h-1.679v-1.619h-2.042v7.669h1.301v1.483h-4.568zM102.053 95.343h1.271l.635-7.76h-1.301v-1.497h3.494l2.39 6.065c.182.529.258.893.258.893h.03s.076-.363.271-.893l2.375-6.065h3.494v1.497h-1.286l.621 7.76h1.271v1.483h-4.402v-1.483h1.195l-.394-5.415c-.029-.378.046-.999.046-.999h-.046s-.12.59-.257.953l-2.057 4.947h-1.695l-2.057-4.947c-.136-.363-.242-.953-.242-.953h-.06s.075.621.045.999l-.394 5.415h1.21v1.483h-4.417v-1.483zM116.331 95.343h.983l3.222-9.258h2.254l3.222 9.258h.983v1.482h-4.039v-1.482h1.06l-.666-2.012h-3.389l-.665 2.012h1.059v1.482h-4.023v-1.482zm6.565-3.555l-1.013-3.04c-.167-.53-.197-.938-.197-.938h-.045s-.046.408-.197.938l-1.028 3.04h2.48zM129.701 93.361v.802c0 .695.877 1.104 1.892 1.104 1.089 0 1.859-.469 1.859-1.331 0-1.089-1.225-1.438-2.466-1.921-1.437-.545-2.843-1.195-2.843-3.116 0-2.164 1.755-2.995 3.6-2.995 1.694 0 3.403.65 3.403 1.89v1.407h-1.8v-.726c0-.544-.802-.832-1.604-.832-.877 0-1.604.363-1.604 1.18 0 .983.999 1.331 2.118 1.755 1.604.574 3.207 1.21 3.207 3.222 0 2.193-1.846 3.207-3.872 3.207-1.785 0-3.691-.802-3.691-2.421v-1.225h1.801zM140.712 95.343h1.286v-7.76h-1.286v-1.497h7.972v2.768h-1.695v-1.18h-3.01v2.95h3.54v1.588h-3.54v3.024h3.237v-1.21h1.695v2.8h-8.199zM150.407 95.343h1.286v-7.669h-1.286v-1.588h4.568v1.588h-1.301v7.562h3.177v-1.663h1.694v3.253h-8.138zM159.678 95.343h1.286v-7.76h-1.286v-1.497h7.669v2.783h-1.694v-1.104h-2.707v3.085h3.494v1.588h-3.494v2.905h1.421v1.483h-4.689zM170.342 93.361v.802c0 .695.877 1.104 1.891 1.104 1.089 0 1.86-.469 1.86-1.331 0-1.089-1.226-1.438-2.465-1.921-1.438-.545-2.845-1.195-2.845-3.116 0-2.164 1.755-2.995 3.601-2.995 1.693 0 3.403.65 3.403 1.89v1.407h-1.8v-.726c0-.544-.802-.832-1.604-.832-.877 0-1.604.363-1.604 1.18 0 .983.998 1.331 2.118 1.755 1.604.574 3.206 1.21 3.206 3.222 0 2.193-1.845 3.207-3.872 3.207-1.785 0-3.691-.802-3.691-2.421v-1.225h1.802z"/><defs><path id="c" d="M0 0h180v180h-180z"/></defs><clipPath id="d"><use xlink:href="#c" overflow="visible"/></clipPath><path clip-path="url(#d)" fill="#9C182F" d="M6.216 106.649c.863 3.232 1.102 7.054 1.334 10.422.345 5.024.672 9.94 2.895 13.786 2.267 3.915 6.235 6.656 10.437 9.468 2.783 1.863 5.661 3.831 7.985 6.156 2.324 2.322 4.246 5.216 6.105 7.995 2.812 4.204 5.468 8.186 9.392 10.458 3.85 2.227 8.596 2.557 13.619 2.9 3.361.23 6.838.472 10.071 1.335 3.087.825 6.128 2.327 9.069 3.778 4.58 2.26 8.906 4.396 13.571 4.396 4.666 0 8.986-2.133 13.565-4.392 2.944-1.453 5.988-2.954 9.073-3.778 3.236-.865 6.717-1.104 10.083-1.335 5.019-.343 9.759-.667 13.608-2.896 3.921-2.268 6.575-6.237 9.387-10.44 1.859-2.778 3.782-5.654 6.111-7.982 2.322-2.323 5.191-4.247 7.968-6.104 4.21-2.816 8.187-5.481 10.453-9.398 2.227-3.85 2.552-8.601 2.895-13.62.231-3.367.469-7.556 1.335-10.794.114-.425.251-2.104.417-2.104h-169.793c.167 0 .306 1.724.42 2.149"/><path clip-path="url(#d)" fill="#fff" d="M7.672 104.753c.26.747.467 1.409.632 2.024.916 3.432 1.162 7.011 1.401 10.485.328 4.768.638 9.271 2.61 12.683 2.016 3.482 5.781 6.002 9.768 8.67 2.871 1.921 5.839 3.907 8.311 6.38 2.473 2.471 4.455 5.433 6.374 8.3 2.668 3.99 5.189 7.76 8.678 9.779 3.416 1.978 7.911 2.284 12.684 2.61 3.465.238 7.047.482 10.482 1.4 3.294.882 6.429 2.429 9.467 3.928 4.347 2.145 8.453 4.171 12.615 4.171 4.161 0 8.261-2.023 12.605-4.167 3.04-1.499 6.183-3.05 9.476-3.932 3.438-.918 7.023-1.163 10.494-1.401 4.761-.325 9.258-.633 12.673-2.609 3.485-2.017 6.005-5.783 8.673-9.77 1.917-2.866 3.9-5.831 6.378-8.31 2.473-2.473 5.433-4.454 8.294-6.369 3.996-2.673 7.771-5.197 9.785-8.681 1.976-3.414 2.284-7.911 2.61-12.672.237-3.47.483-7.058 1.403-10.497.163-.611.369-1.273.63-2.023h-166.043z"/><path clip-path="url(#d)" fill="#266141" d="M9.139 105.869c.939 3.517 1.188 7.486 1.428 10.992.322 4.679.625 9.242 2.496 12.48 1.915 3.308 5.6 5.859 9.501 8.47 2.909 1.946 5.91 3.997 8.441 6.529 2.535 2.532 4.541 5.552 6.481 8.452 2.613 3.907 5.078 7.604 8.393 9.523 3.239 1.873 7.638 2.182 12.296 2.5 3.511.24 7.14.49 10.661 1.432 3.372.902 6.549 2.47 9.62 3.985 4.26 2.102 8.276 4.085 12.239 4.085 3.96 0 7.973-1.98 12.223-4.077 3.077-1.519 6.259-3.087 9.634-3.99 3.52-.94 7.148-1.189 10.658-1.429 4.66-.319 9.06-.621 12.3-2.496 3.311-1.915 5.776-5.601 8.387-9.502 1.94-2.902 3.948-5.902 6.485-8.439 2.532-2.532 5.528-4.538 8.425-6.477 3.915-2.618 7.604-5.086 9.519-8.396 1.875-3.239 2.176-7.641 2.495-12.299.24-3.514.489-7.829 1.431-11.345.061-.23.131-1.369.199-1.369h-163.512c.069.002.139 1.141.2 1.371"/><path clip-path="url(#d)" fill="#fff" d="M84.141 151.752l3.99-5.231h-2.418l3.348-4.375h-1.844l3.477-4.826 3.477 4.826h-1.845l3.349 4.375h-2.418l3.989 5.231h-13.105zm11.803-6.697l.87-1.145 1.966 3.149h-1.552l2.864 4.635h-1.61l.813 1.065h2.751l-2.877-4.636h1.542l-3.842-6.225-1.604 2.268.679.889zm.117 11.254h1.619v-2.829h-1.619v2.829zm-9.94-12.142l-1.604-2.268-3.841 6.225h1.542l-2.877 4.636h2.751l.812-1.065h-1.61l2.864-4.635h-1.552l1.966-3.149.87 1.145.679-.889zm-.795 9.312h-1.619v2.829h1.619v-2.829zm6.418-.802h-2.102v3.673h2.102v-3.673zm-1.628-17.931l-1.309.182.953.916-.233 1.301 1.166-.624 1.165.624-.232-1.301.952-.916-1.309-.182-.576-1.188-.577 1.188zM56.499 116.685v.441c0 .51.631.804 1.331.804.787 0 1.357-.389 1.357-1.098 0-.795-.734-1.072-1.521-1.366-.795-.302-1.625-.622-1.625-1.686s.856-1.583 1.85-1.583c.864 0 1.755.339 1.755.951v.649h-.579v-.45c0-.389-.632-.596-1.176-.596-.692 0-1.228.337-1.228.984 0 .735.657.969 1.392 1.254.882.328 1.755.665 1.755 1.781 0 1.071-.856 1.711-1.98 1.711-.873 0-1.91-.389-1.91-1.219v-.579h.579zM62.03 117.878h.795v-5.058h-1.703v.986h-.544v-1.504h5.1v1.504h-.553v-.986h-1.695v5.058h.796v.501h-2.196zM65.582 117.878h.623l2.048-5.576h.666l2.049 5.576h.622v.501h-1.945v-.501h.7l-.579-1.564h-2.368l-.571 1.564h.7v.501h-1.945v-.501zm4.02-2.075l-.908-2.489c-.069-.199-.095-.39-.095-.39h-.026s-.017.19-.086.39l-.925 2.489h2.04zM72.15 117.877h.795v-5.073h-.795v-.502h2.602c.415 0 .744.025 1.081.139.596.216.985.717.985 1.521 0 .908-.518 1.574-1.348 1.722v.017s.112.077.207.251l1.012 1.729c.095.173.207.198.432.198h.173v.503h-.329c-.527 0-.622-.078-.838-.46l-1.02-1.745c-.165-.294-.286-.371-.683-.371h-.873v2.073h.786v.503h-2.187v-.505zm2.827-2.593c.735 0 1.228-.502 1.228-1.279 0-.554-.242-.907-.666-1.071-.208-.078-.493-.113-.804-.113h-1.184v2.464h1.426zM79.264 117.878h.795v-5.058h-1.704v.986h-.543v-1.504h5.1v1.504h-.554v-.986h-1.694v5.058h.795v.501h-2.195zM85.443 117.878h.622l2.049-5.576h.665l2.049 5.576h.623v.501h-1.946v-.501h.701l-.579-1.564h-2.369l-.571 1.564h.701v.501h-1.945v-.501zm4.019-2.075l-.908-2.489c-.069-.199-.094-.39-.094-.39h-.026s-.018.19-.087.39l-.925 2.489h2.04zM94.172 117.878h.795v-5.074h-.795v-.502h4.089v1.297h-.545v-.761h-2.144v2.291h2.222v.518h-2.222v2.231h.848v.501h-2.248zM98.32 117.878h.623l2.049-5.576h.665l2.049 5.576h.623v.501h-1.946v-.501h.701l-.579-1.564h-2.369l-.57 1.564h.699v.501h-1.945v-.501zm4.02-2.075l-.908-2.489c-.068-.199-.095-.39-.095-.39h-.025s-.018.19-.087.39l-.925 2.489h2.04zM104.733 117.878h.795l.407-5.074h-.805v-.502h1.461l1.764 3.977.121.354h.018l.129-.354 1.764-3.977h1.452v.502h-.795l.397 5.074h.796v.501h-2.17v-.501h.777l-.328-4.193c-.009-.155.018-.432.018-.432h-.018s-.069.26-.13.406l-1.616 3.562h-.563l-1.625-3.562c-.061-.146-.121-.406-.121-.406h-.025s.025.276.018.432l-.329 4.193h.778v.501h-2.17v-.501zM113.021 117.878h.795v-5.074h-.795v-.502h2.197v.502h-.795v5.074h.795v.501h-2.197zM116.15 117.878h.795v-5.058h-.795v-.518h2.197v.518h-.796v5.04h2.428v-1.011h.554v1.53h-4.383zM122.097 117.878h.795v-2.109l-1.789-2.965h-.597v-.502h1.919v.502h-.674l1.313 2.213.121.233h.019l.12-.233 1.322-2.213h-.674v-.502h1.91v.502h-.596l-1.79 2.965v2.109h.796v.501h-2.196v-.501zM50.803 128.249h.795v-5.057h-1.703v.985h-.544v-1.504h5.1v1.504h-.553v-.985h-1.695v5.057h.796v.501h-2.196zM55.193 128.249h.795v-5.074h-.795v-.502h2.602c.415 0 .744.026 1.081.139.596.216.985.717.985 1.521 0 .908-.518 1.574-1.348 1.721v.017s.112.077.207.252l1.012 1.729c.095.172.207.198.432.198h.173v.502h-.329c-.527 0-.622-.078-.838-.459l-1.02-1.746c-.165-.294-.286-.371-.683-.371h-.873v2.074h.786v.502h-2.187v-.503zm2.827-2.593c.735 0 1.228-.503 1.228-1.28 0-.553-.242-.907-.666-1.071-.208-.079-.493-.113-.804-.113h-1.184v2.465h1.426zM60.75 128.249h.623l2.048-5.575h.666l2.049 5.575h.622v.501h-1.945v-.501h.7l-.579-1.564h-2.368l-.571 1.564h.7v.501h-1.945v-.501zm4.02-2.074l-.908-2.49c-.069-.199-.095-.39-.095-.39h-.026s-.017.19-.086.39l-.925 2.49h2.04zM67.318 128.249h.796v-5.074h-.796v-.502h2.568c.519 0 .89.035 1.297.156 1.149.372 1.876 1.418 1.876 2.887 0 1.496-.744 2.523-1.954 2.888-.381.121-.77.147-1.219.147h-2.568v-.502zm2.516-.018c.406 0 .744-.035 1.081-.146.925-.303 1.512-1.142 1.512-2.369 0-1.21-.561-2.066-1.469-2.386-.355-.12-.7-.139-1.124-.139h-1.115v5.04h1.115zM73.965 128.249h.795v-5.074h-.795v-.502h2.196v.502h-.796v5.074h.796v.501h-2.196zM78.356 128.249h.795v-5.057h-1.703v.985h-.544v-1.504h5.1v1.504h-.553v-.985h-1.695v5.057h.796v.501h-2.196zM82.746 128.249h.795v-5.074h-.795v-.502h2.196v.502h-.796v5.074h.796v.501h-2.196zM88.91 122.57c1.729 0 3.103 1.356 3.103 3.103 0 1.781-1.374 3.181-3.103 3.181-1.72 0-3.095-1.399-3.095-3.181-.001-1.746 1.374-3.103 3.095-3.103m0 5.731c1.366 0 2.472-1.141 2.472-2.628 0-1.452-1.106-2.55-2.472-2.55-1.357 0-2.464 1.098-2.464 2.55-.001 1.487 1.107 2.628 2.464 2.628"/><path clip-path="url(#d)" fill="#fff" d="M92.885 128.249h.795v-5.074h-.795v-.502h1.383l3.406 4.798c.086.139.181.372.181.372h.018s-.035-.26-.025-.424v-4.244h-.805v-.502h2.204v.502h-.795v5.575h-.588l-3.406-4.797c-.086-.139-.181-.372-.181-.372h-.018s.034.259.025.415v4.253h.805v.501h-2.204v-.501zM103.507 128.249h.795v-5.057h-1.703v.985h-.544v-1.504h5.099v1.504h-.552v-.985h-1.695v5.057h.795v.501h-2.195zM110.991 122.57c1.729 0 3.103 1.356 3.103 3.103 0 1.781-1.374 3.181-3.103 3.181-1.72 0-3.095-1.399-3.095-3.181 0-1.746 1.375-3.103 3.095-3.103m0 5.731c1.366 0 2.473-1.141 2.473-2.628 0-1.452-1.106-2.55-2.473-2.55-1.357 0-2.464 1.098-2.464 2.55 0 1.487 1.107 2.628 2.464 2.628"/><path clip-path="url(#d)" fill="#fff" d="M114.966 128.249h.795v-5.074h-.795v-.502h2.568c.519 0 .89.035 1.296.156 1.15.372 1.877 1.418 1.877 2.887 0 1.496-.744 2.523-1.954 2.888-.381.121-.77.147-1.219.147h-2.568v-.502zm2.516-.018c.405 0 .744-.035 1.08-.146.925-.303 1.513-1.142 1.513-2.369 0-1.21-.562-2.066-1.469-2.386-.355-.12-.7-.139-1.124-.139h-1.115v5.04h1.115zM121.146 128.249h.622l2.049-5.575h.666l2.049 5.575h.622v.501h-1.944v-.501h.7l-.579-1.564h-2.369l-.57 1.564h.7v.501h-1.945v-.501zm4.02-2.074l-.908-2.49c-.069-.199-.095-.39-.095-.39h-.026s-.017.19-.086.39l-.925 2.49h2.04zM128.432 128.249h.795v-2.109l-1.788-2.965h-.598v-.502h1.919v.502h-.674l1.314 2.213.121.233h.018l.12-.233 1.323-2.213h-.675v-.502h1.91v.502h-.596l-1.79 2.965v2.109h.796v.501h-2.196v-.501z"/><path clip-path="url(#d)" fill="#9C182F" d="M175.17 76.203c-.863-3.232-1.102-7.128-1.334-10.495-.345-5.024-.672-9.978-2.895-13.823-2.268-3.915-6.235-6.675-10.438-9.487-2.783-1.863-5.661-3.841-7.984-6.165-2.324-2.322-4.246-5.221-6.105-7.999-2.812-4.205-5.468-8.19-9.392-10.461-3.851-2.227-8.597-2.558-13.619-2.902-3.361-.23-6.838-.472-10.071-1.336-3.087-.825-6.128-2.327-9.069-3.778-4.579-2.26-8.905-4.395-13.57-4.395-4.667 0-8.987 2.132-13.566 4.391-2.944 1.452-5.988 2.954-9.073 3.779-3.236.865-6.717 1.103-10.083 1.334-5.019.343-9.759.667-13.608 2.895-3.921 2.268-6.576 6.238-9.387 10.44-1.86 2.78-3.782 5.655-6.111 7.983-2.323 2.324-5.192 4.247-7.968 6.105-4.21 2.816-8.187 5.482-10.453 9.399-2.227 3.848-2.552 8.6-2.895 13.619-.231 3.367-.469 7.704-1.335 10.942-.115.425-.253.251-.418 2.251h169.794c-.167-2-.306-1.871-.42-2.297"/><path clip-path="url(#d)" fill="#fff" d="M173.714 77.952c-.26-.747-.467-1.409-.632-2.024-.916-3.432-1.162-7.011-1.401-10.485-.328-4.768-.638-9.272-2.609-12.683-2.017-3.482-5.782-6.002-9.769-8.67-2.871-1.921-5.839-3.907-8.311-6.38-2.474-2.47-4.455-5.432-6.374-8.3-2.668-3.99-5.189-7.759-8.678-9.779-3.416-1.976-7.911-2.284-12.685-2.61-3.465-.238-7.047-.483-10.481-1.401-3.294-.881-6.43-2.428-9.468-3.927-4.347-2.145-8.453-4.171-12.614-4.171s-8.261 2.023-12.606 4.167c-3.04 1.499-6.182 3.05-9.475 3.931-3.438.918-7.024 1.164-10.494 1.402-4.761.325-9.258.633-12.673 2.609-3.486 2.017-6.005 5.783-8.673 9.77-1.917 2.866-3.9 5.831-6.378 8.309-2.473 2.473-5.433 4.454-8.294 6.369-3.996 2.673-7.771 5.198-9.785 8.681-1.976 3.414-2.284 7.911-2.61 12.672-.238 3.47-.484 7.058-1.404 10.497-.163.611-.369 1.273-.63 2.023h166.044z"/><path clip-path="url(#d)" fill="#266141" d="M172.247 76.983c-.938-3.517-1.188-7.559-1.428-11.065-.322-4.68-.625-9.281-2.496-12.518-1.915-3.308-5.6-5.878-9.501-8.489-2.909-1.946-5.91-4.006-8.441-6.538-2.535-2.532-4.541-5.557-6.48-8.457-2.613-3.907-5.078-7.606-8.394-9.525-3.238-1.873-7.638-2.183-12.296-2.502-3.511-.24-7.14-.491-10.661-1.432-3.372-.902-6.549-2.47-9.619-3.985-4.261-2.102-8.276-4.086-12.239-4.086-3.96 0-7.973 1.98-12.223 4.077-3.077 1.518-6.259 3.088-9.634 3.991-3.519.94-7.148 1.188-10.658 1.429-4.66.319-9.06.62-12.3 2.495-3.31 1.916-5.776 5.6-8.387 9.502-1.94 2.902-3.948 5.903-6.485 8.44-2.532 2.532-5.528 4.537-8.425 6.476-3.915 2.619-7.603 5.087-9.518 8.396-1.875 3.24-2.176 7.64-2.496 12.298-.24 3.515-.489 7.977-1.43 11.493-.062.23-.132 1.517-.2 1.517h163.511c-.069 0-.138-1.287-.2-1.517"/><defs><path id="e" d="M46.598 0h85.999v78.5h-85.999z"/></defs><clipPath id="f"><use xlink:href="#e" overflow="visible"/></clipPath><path clip-path="url(#f)" fill="#fff" d="M82.646 68.181c-2.026 0-3.669 1.643-3.669 3.669 0 2.027 1.643 3.67 3.669 3.67s3.669-1.643 3.669-3.67c-.001-2.026-1.644-3.669-3.669-3.669M99.163 68.181c-2.026 0-3.669 1.643-3.669 3.669 0 2.027 1.643 3.67 3.669 3.67s3.669-1.643 3.669-3.67c0-2.026-1.643-3.669-3.669-3.669M90.938 89.692c3.129 0 5.665-3.192 5.665-5.192h-11.33c-.001 2 2.536 5.192 5.665 5.192M114.984 59.245l-19.13-39.842c2.54-1.631 4.225-4.48 4.225-7.724 0-5.067-4.107-9.175-9.175-9.175s-9.175 4.108-9.175 9.175c0 3.245 1.686 6.094 4.228 7.725l-18.848 39.917c-3.797-1.217-9.381-3.01-15.747-5.415 1.704 17.043 13.617 28.594 13.617 28.594h.023c3.837 9 14.042 17.996 26.032 17.996 12.1 0 22.378-7.72 26.133-18.41 1.833-1.885 11.78-12.78 13.326-28.24-6.233 2.354-11.719 4.181-15.509 5.399m-51.513 11.584c-1.353-2.183-2.733-4.79-3.864-7.739 1.893.647 3.599 1.212 5.074 1.69-.624 1.932-1.036 3.957-1.21 6.049m27.433-62.426c1.807 0 3.275 1.47 3.275 3.276 0 1.807-1.469 3.276-3.275 3.276-1.806 0-3.276-1.469-3.276-3.276 0-1.806 1.47-3.276 3.276-3.276m.004 14.289l10.48 21.808h-20.783l10.303-21.808zm-12.718 26.808h25.654l2.529 5.361-30.687-.012 2.504-5.349zm12.844 45.016c-11.999 0-21.761-9.612-21.761-21.427 0-4.535 1.442-8.742 3.893-12.209l8.306-.009-2.803 4.389 8.3-2.934-.606 4.674 12.251-6.146 10.259-.011c2.467 3.474 3.922 7.695 3.922 12.246 0 11.815-9.762 21.427-21.761 21.427m26.334-29.799c1.43-.464 3.069-1.008 4.88-1.627-1.078 2.812-2.383 5.311-3.675 7.429-.19-2.005-.6-3.946-1.205-5.802"/><defs><path id="g" d="M0 0h180v180h-180z"/></defs><clipPath id="h"><use xlink:href="#g" overflow="visible"/></clipPath><path clip-path="url(#h)" fill="#fff" d="M121.103 162.077l-.238-.046c-8.199-3.246-18.913-5.034-30.17-5.034-.357 0-.647-.29-.647-.647 0-.358.29-.648.647-.648 11.416 0 22.3 1.82 30.646 5.125.333.132.496.508.364.841-.101.254-.345.409-.602.409M60.445 162.077c-.258 0-.502-.155-.603-.41-.132-.333.031-.709.364-.841 8.347-3.305 19.231-5.125 30.647-5.125.357 0 .647.29.647.648 0 .357-.29.647-.647.647-11.257 0-21.971 1.788-30.17 5.034-.078.033-.159.047-.238.047"/><path clip-path="url(#h)" fill="#fff" d="M4 78.5h173.25v26h-173.25z"/><path clip-path="url(#h)" fill="#9C182F" d="M18.603 84.36c1.637 0 5.272.571 5.272 2.703v1.826h-2.265v-1.046c0-1.009-1.789-1.351-2.893-1.351-2.608 0-4.511 1.827-4.511 4.682 0 3.045 1.979 5.026 4.645 5.026.818 0 2.931-.267 2.931-1.334v-1.047h2.265v1.846c0 2.019-3.483 2.665-5.348 2.665-4.093 0-7.062-3.103-7.062-7.042 0-3.998 3.045-6.928 6.966-6.928"/><path clip-path="url(#h)" fill="#9C182F" d="M25.948 96.237h1.618v-9.764h-1.618v-1.884h5.747v1.884h-1.636v3.901h6.147v-3.901h-1.636v-1.884h5.747v1.884h-1.616v9.764h1.616v1.867h-5.747v-1.867h1.636v-3.865h-6.147v3.865h1.636v1.867h-5.747zM42.22 96.237h1.618v-9.766h-1.618v-1.883h5.957c.99 0 1.808.057 2.569.285 1.503.495 2.494 1.713 2.494 3.616 0 1.884-.99 3.217-2.55 3.75v.037s.4.209.666.705l1.562 2.817c.19.342.457.438.914.438h.438v1.866h-1.581c-1.123 0-1.464-.23-1.883-1.011l-1.923-3.481c-.285-.516-.532-.687-1.313-.687h-1.237v3.313h1.56v1.866h-5.673v-1.865zm6.357-5.31c1.314 0 2.169-.78 2.169-2.228 0-.875-.323-1.56-1.066-1.865-.38-.17-.895-.248-1.522-.248h-1.827v4.34h2.246zM55.771 96.237h1.617v-9.764h-1.617v-1.884h5.747v1.884h-1.637v9.764h1.637v1.867h-5.747zM65.667 93.744v1.008c0 .875 1.104 1.39 2.379 1.39 1.371 0 2.341-.59 2.341-1.674 0-1.371-1.542-1.81-3.102-2.418-1.808-.686-3.579-1.504-3.579-3.92 0-2.724 2.208-3.769 4.53-3.769 2.131 0 4.282.818 4.282 2.378v1.77h-2.264v-.913c0-.685-1.009-1.047-2.018-1.047-1.104 0-2.017.457-2.017 1.484 0 1.236 1.256 1.674 2.664 2.209 2.018.722 4.035 1.521 4.035 4.053 0 2.76-2.321 4.035-4.872 4.035-2.246 0-4.644-1.009-4.644-3.046v-1.54h2.265zM77.371 96.237h1.617v-9.65h-2.55v2.038h-2.112v-4.036h11.838v4.036h-2.113v-2.038h-2.57v9.65h1.638v1.867h-5.748zM87.4 96.237h1.599l.799-9.765h-1.637v-1.884h4.397l3.007 7.632c.228.667.323 1.123.323 1.123h.039s.096-.456.341-1.123l2.988-7.632h4.396v1.884h-1.618l.781 9.765h1.599v1.866h-5.539v-1.866h1.505l-.495-6.813c-.037-.476.058-1.258.058-1.258h-.058s-.152.742-.323 1.2l-2.589 6.225h-2.133l-2.588-6.225c-.17-.458-.305-1.2-.305-1.2h-.075s.095.782.057 1.258l-.495 6.813h1.522v1.866h-5.556v-1.866zM105.365 96.237h1.237l4.054-11.649h2.837l4.053 11.649h1.237v1.865h-5.082v-1.865h1.334l-.838-2.531h-4.264l-.837 2.531h1.332v1.865h-5.063v-1.865zm8.26-4.473l-1.274-3.825c-.209-.667-.247-1.181-.247-1.181h-.057s-.059.514-.249 1.181l-1.294 3.825h3.121zM122.189 93.744v1.008c0 .875 1.103 1.39 2.38 1.39 1.37 0 2.34-.59 2.34-1.674 0-1.371-1.542-1.81-3.103-2.418-1.809-.686-3.578-1.504-3.578-3.92 0-2.724 2.209-3.769 4.53-3.769 2.132 0 4.282.818 4.282 2.378v1.77h-2.265v-.913c0-.685-1.01-1.047-2.018-1.047-1.104 0-2.019.457-2.019 1.484 0 1.236 1.257 1.674 2.665 2.209 2.019.722 4.036 1.521 4.036 4.053 0 2.76-2.323 4.035-4.872 4.035-2.247 0-4.645-1.009-4.645-3.046v-1.54h2.267zM136.044 96.237h1.618v-9.764h-1.618v-1.884h10.03v3.483h-2.132v-1.485h-3.788v3.712h4.454v1.998h-4.454v3.806h4.074v-1.522h2.132v3.523h-10.316zM148.243 96.237h1.618v-9.65h-1.618v-1.998h5.747v1.998h-1.637v9.516h3.998v-2.093h2.131v4.094h-10.239zM159.908 96.237h1.618v-9.764h-1.618v-1.884h9.65v3.501h-2.131v-1.389h-3.406v3.882h4.397v1.999h-4.397v3.655h1.788v1.867h-5.901z"/></svg>