<svg xmlns="http://www.w3.org/2000/svg" xmlns:xlink="http://www.w3.org/1999/xlink" width="166" height="166" viewBox="0 0 166 166"><defs><path id="a" d="M0 0h166v166h-166z"/></defs><clipPath id="b"><use xlink:href="#a" overflow="visible"/></clipPath><path clip-path="url(#b)" fill="#9C182F" d="M159.9 96.4c-.1 0-.2 1.2-.3 1.5-.8 3.2-1.1 6.8-1.3 10-.3 4.4-.6 8.7-2.4 11.8-1.9 3.2-5.3 5.6-9 8.1-2.6 1.8-5.4 3.6-7.6 5.9-2.3 2.3-4.1 5-5.9 7.7-2.5 3.7-4.8 7.2-8 9-3.1 1.8-7.3 2.1-11.7 2.4-3.2.2-6.5.4-9.7 1.3-3 .8-5.9 2.2-8.7 3.6-4 2-7.8 3.8-11.6 3.8s-7.6-1.9-11.6-3.8c-2.8-1.4-5.7-2.8-8.7-3.6-3.2-.8-6.5-1.1-9.7-1.3-4.4-.3-8.5-.6-11.7-2.4-3.2-1.9-5.5-5.3-8-9-1.8-2.6-3.6-5.4-5.9-7.7-2.3-2.3-5-4.1-7.7-5.9-3.7-2.5-7.1-4.8-9-8-1.8-3.1-2.1-7.3-2.4-11.7-.2-3.2-.4-7.1-1.3-10.3-.1-.3-.2-1.5-.3-1.5h-2c.2 0 .3 1.6.4 2 .8 3 1 6.5 1.2 9.6.3 4.6.6 9.2 2.7 12.7 2.1 3.6 5.7 6.1 9.6 8.7 2.6 1.7 5.2 3.5 7.4 5.7 2.1 2.1 3.9 4.8 5.6 7.4 2.6 3.9 5 7.6 8.7 9.6 3.6 2.1 7.9 2.4 12.6 2.7 3.1.2 6.3.4 9.3 1.2 2.8.8 5.7 2.1 8.4 3.5 4.2 2.1 8.2 4.1 12.5 4.1 4.3 0 8.3-2 12.5-4 2.7-1.3 5.5-2.7 8.4-3.5 3-.8 6.2-1 9.3-1.2 4.6-.3 9-.6 12.5-2.7 3.6-2.1 6.1-5.8 8.7-9.6 1.7-2.6 3.5-5.2 5.6-7.4 2.1-2.1 4.8-3.9 7.3-5.6 3.9-2.6 7.5-5.1 9.6-8.7 2.1-3.5 2.4-7.9 2.7-12.6.2-3.1.4-7 1.2-10 .1-.4.2-1.9.4-1.9h-2.1z"/><path clip-path="url(#b)" fill="#266141" d="M8.4 97.6c.9 3.2 1.1 6.9 1.3 10.1.3 4.3.6 8.5 2.3 11.5 1.8 3 5.2 5.4 8.8 7.8 2.7 1.8 5.5 3.7 7.8 6s4.2 5.1 6 7.8c2.4 3.6 4.7 7 7.7 8.8 3 1.7 7 2 11.3 2.3 3.2.2 6.6.5 9.8 1.3 3.1.8 6 2.3 8.9 3.7 3.9 1.9 7.6 3.8 11.3 3.8 3.7 0 7.4-1.8 11.3-3.8 2.8-1.4 5.8-2.8 8.9-3.7 3.2-.9 6.6-1.1 9.8-1.3 4.3-.3 8.4-.6 11.3-2.3 3.1-1.8 5.3-5.2 7.7-8.8 1.8-2.7 3.6-5.4 6-7.8 2.3-2.3 5.1-4.2 7.8-6 3.6-2.4 7-4.7 8.8-7.7 1.7-3 2-7 2.3-11.3.2-3.2.5-7.2 1.3-10.5.1-.2.1-1.3.2-1.3h-150.8c.1.2.2 1.2.2 1.4"/><path clip-path="url(#b)" fill="#fff" d="M77.6 139.9l3.7-4.8h-2.3l3.1-4h-1.7l3.2-4.5 3.2 4.5h-1.7l3.1 4h-2.2l3.7 4.8h-12.1zm10.9-6.1l.8-1.1 1.8 2.9h-1.4l2.6 4.3h-1.5l.8 1h2.5l-2.7-4.3h1.4l-3.5-5.7-1.5 2.1.7.8zm.1 10.4h1.5v-2.6h-1.5v2.6zm-9.2-11.2l-1.5-2.1-3.5 5.7h1.4l-2.7 4.3h2.5l.7-1h-1.3l2.6-4.3h-1.4l1.8-2.9.8 1.1.6-.8zm-.7 8.5h-1.5v2.6h1.5v-2.6zm5.9-.7h-1.9v3.4h1.9v-3.4zm-1.5-16.5l-1.2.2.9.8-.2 1.2 1.1-.6 1.1.6-.2-1.2.9-.8-1.2-.2-.5-1.1-.7 1.1zM52.1 107.6v.4c0 .5.6.7 1.2.7.7 0 1.3-.4 1.3-1 0-.7-.7-1-1.4-1.3-.7-.3-1.5-.6-1.5-1.6s.8-1.5 1.7-1.5c.8 0 1.6.3 1.6.9v.6h-.5v-.4c0-.4-.6-.5-1.1-.5-.6 0-1.1.3-1.1.9 0 .7.6.9 1.3 1.2.8.3 1.6.6 1.6 1.6s-.8 1.6-1.8 1.6c-.8 0-1.8-.4-1.8-1.1v-.5h.5zM57.2 108.7h.7v-4.7h-1.5v1h-.5v-1.4h4.7v1.4h-.5v-1h-1.6v4.7h.7v.5h-2zM60.5 108.7h.6l1.9-5.1h.6l1.9 5.1h.5v.5h-1.8v-.5h.6l-.5-1.4h-2.2l-.5 1.4h.6v.5h-1.8v-.5zm3.7-1.9l-.8-2.3c-.1-.2-.1-.4-.1-.4s0 .2-.1.4l-.9 2.3h1.9zM66.5 108.7h.7v-4.7h-.7v-.5h2.4c.4 0 .7 0 1 .1.5.2.9.7.9 1.4 0 .8-.5 1.5-1.2 1.6l.2.2.9 1.6c.1.2.2.2.4.2h.2v.5h-.3c-.5 0-.6-.1-.8-.4l-.9-1.6c-.2-.3-.3-.3-.6-.3h-.8v1.9h.7v.5h-2v-.5zm2.6-2.4c.7 0 1.1-.5 1.1-1.2 0-.5-.2-.8-.6-1-.2-.1-.5-.1-.7-.1h-1.1v2.3h1.3zM73.1 108.7h.7v-4.7h-1.5v1h-.5v-1.4h4.7v1.4h-.5v-1h-1.6v4.7h.7v.5h-2zM78.8 108.7h.6l1.9-5.1h.6l1.9 5.1h.6v.5h-1.8v-.5h.6l-.5-1.4h-2.2l-.5 1.4h.6v.5h-1.8v-.5zm3.7-1.9l-.8-2.3c-.1-.2-.1-.4-.1-.4s0 .2-.1.4l-.9 2.3h1.9zM86.8 108.7h.8v-4.7h-.8v-.4h3.8v1.2h-.5v-.7h-2v2.1h2.1v.5h-2.1v2h.8v.5h-2.1zM90.7 108.7h.6l1.9-5.1h.6l1.9 5.1h.6v.5h-1.8v-.5h.6l-.5-1.4h-2.2l-.5 1.4h.6v.5h-1.8v-.5zm3.7-1.9l-.8-2.3c-.1-.2-.1-.4-.1-.4s0 .2-.1.4l-.9 2.3h1.9zM96.6 108.7h.7l.4-4.7h-.7v-.5h1.3l1.6 3.7c.1.2.1.3.1.3s0-.1.1-.3l1.6-3.7h1.3v.5h-.7l.4 4.7h.7v.5h-2v-.5h.7l-.3-3.9v-.4s-.1.2-.1.4l-1.5 3.3h-.5l-1.5-3.3c-.1-.1-.1-.4-.1-.4v.4l-.3 3.9h.7v.5h-2v-.5zM104.2 108.7h.8v-4.7h-.8v-.4h2.1v.4h-.8v4.7h.8v.5h-2.1zM107.1 108.7h.7v-4.7h-.7v-.4h2v.4h-.7v4.7h2.2v-.9h.6v1.4h-4.1zM112.6 108.7h.7v-1.9l-1.6-2.7h-.6v-.5h1.8v.5h-.6l1.2 2c.1.1.1.2.1.2s0-.1.1-.2l1.2-2h-.6v-.5h1.8v.5h-.5l-1.7 2.7v1.9h.7v.5h-2v-.5zM46.9 118.3h.7v-4.7h-1.6v.9h-.5v-1.4h4.7v1.4h-.5v-.9h-1.6v4.7h.8v.4h-2zM50.9 118.3h.7v-4.7h-.7v-.5h2.4c.4 0 .7 0 1 .1.5.2.9.7.9 1.4 0 .8-.5 1.5-1.2 1.6l.2.2.9 1.6c.1.2.2.2.4.2h.2v.5h-.3c-.5 0-.6-.1-.8-.4l-.9-1.6c-.2-.3-.3-.3-.6-.3h-.8v1.9h.7v.5h-2v-.5zm2.6-2.4c.7 0 1.1-.5 1.1-1.2 0-.5-.2-.8-.6-1-.2-.1-.5-.1-.7-.1h-1.1v2.3h1.3zM56 118.3h.6l1.9-5.1h.6l1.9 5.1h.6v.5h-1.8v-.5h.6l-.5-1.4h-2.2l-.5 1.4h.6v.5h-1.8v-.5zm3.7-1.9l-.8-2.3c-.1-.2-.1-.4-.1-.4s0 .2-.1.4l-.9 2.3h1.9zM62.1 118.3h.7v-4.7h-.7v-.5h2.4c.5 0 .8 0 1.2.1 1.1.3 1.7 1.3 1.7 2.7 0 1.4-.7 2.3-1.8 2.7-.4.1-.7.1-1.1.1h-2.4v-.4zm2.3 0c.4 0 .7 0 1-.1.9-.3 1.4-1.1 1.4-2.2s-.5-1.9-1.4-2.2c-.3-.1-.6-.1-1-.1h-1v4.6h1zM68.2 118.3h.7v-4.7h-.7v-.5h2v.5h-.7v4.7h.7v.4h-2zM72.3 118.3h.7v-4.7h-1.6v.9h-.5v-1.4h4.7v1.4h-.5v-.9h-1.5v4.7h.7v.4h-2zM76.3 118.3h.7v-4.7h-.7v-.5h2v.5h-.7v4.7h.7v.4h-2zM82 113c1.6 0 2.9 1.3 2.9 2.9 0 1.6-1.3 2.9-2.9 2.9-1.6 0-2.9-1.3-2.9-2.9 0-1.6 1.3-2.9 2.9-2.9m0 5.3c1.3 0 2.3-1.1 2.3-2.4 0-1.3-1-2.4-2.3-2.4-1.3 0-2.3 1-2.3 2.4s1 2.4 2.3 2.4"/><path clip-path="url(#b)" fill="#fff" d="M85.7 118.3h.7v-4.7h-.7v-.5h1.3l3.1 4.4c.1.1.2.3.2.3v-4.3h-.7v-.5h2v.5h-.7v5.1h-.5l-3.1-4.4c-.1-.1-.2-.3-.2-.3v4.3h.7v.5h-2v-.4zM95.5 118.3h.7v-4.7h-1.6v.9h-.5v-1.4h4.7v1.4h-.5v-.9h-1.6v4.7h.8v.4h-2zM102.4 113c1.6 0 2.9 1.3 2.9 2.9 0 1.6-1.3 2.9-2.9 2.9-1.6 0-2.9-1.3-2.9-2.9 0-1.6 1.3-2.9 2.9-2.9m0 5.3c1.3 0 2.3-1.1 2.3-2.4 0-1.3-1-2.4-2.3-2.4-1.3 0-2.3 1-2.3 2.4s1 2.4 2.3 2.4"/><path clip-path="url(#b)" fill="#fff" d="M106 118.3h.7v-4.7h-.7v-.5h2.4c.5 0 .8 0 1.2.1 1.1.3 1.7 1.3 1.7 2.7 0 1.4-.7 2.3-1.8 2.7-.4.1-.7.1-1.1.1h-2.4v-.4zm2.3 0c.4 0 .7 0 1-.1.9-.3 1.4-1.1 1.4-2.2s-.5-1.9-1.4-2.2c-.3-.1-.6-.1-1-.1h-1v4.6h1zM111.7 118.3h.6l1.9-5.1h.6l1.9 5.1h.6v.5h-1.8v-.5h.6l-.5-1.4h-2.2l-.5 1.4h.6v.5h-1.8v-.5zm3.7-1.9l-.8-2.3c-.1-.2-.1-.4-.1-.4s0 .2-.1.4l-.9 2.3h1.9zM118.4 118.3h.7v-1.9l-1.6-2.7h-.5v-.5h1.8v.5h-.6l1.2 2c.1.1.1.2.1.2s0-.1.1-.2l1.2-2h-.6v-.5h1.8v.5h-.5l-1.7 2.7v1.9h.7v.5h-2v-.5z"/><path clip-path="url(#b)" fill="#9C182F" d="M104 14.4c3.2.8 6.5 1.1 9.7 1.3 4.4.3 8.5.6 11.7 2.4 3.2 1.9 5.5 5.3 8 9 1.8 2.6 3.6 5.4 5.9 7.7 2.3 2.3 5 4.1 7.7 5.9 3.7 2.5 7.2 4.8 9 8 1.8 3.1 2.1 7.3 2.4 11.7.2 3.2.4 7.3 1.3 10.4.1.3.2 1.6.2 1.6h2.1c-.2-1.8-.3-1.7-.4-2.1-.8-3-1-6.6-1.2-9.7-.3-4.6-.6-9.2-2.7-12.7-2.1-3.6-5.8-6.2-9.6-8.7-2.6-1.7-5.2-3.5-7.4-5.7-2.1-2.1-3.9-4.8-5.6-7.4-2.6-3.9-5-7.6-8.7-9.6-3.6-2.1-7.9-2.4-12.6-2.7-3.1-.2-6.3-.4-9.3-1.2-2.8-.8-5.7-2.1-8.4-3.5-1.7-.8-3.3-1.6-4.9-2.3.4.8.7 1.7.9 2.6l3.1 1.5c2.9 1.3 5.8 2.7 8.8 3.5M8.9 60.3c.3-4.4.6-8.5 2.4-11.7 1.9-3.2 5.3-5.5 9-8 2.6-1.8 5.4-3.6 7.6-5.9 2.3-2.3 4.1-5 5.9-7.7 2.5-3.7 4.8-7.1 8-9 3.1-1.8 7.3-2.1 11.7-2.4 3.2-.2 6.5-.4 9.7-1.3 3-.8 5.9-2.2 8.7-3.6 1.2-.6 2.4-1.2 3.5-1.7.2-.9.5-1.8 1-2.6l-5.3 2.6c-2.7 1.3-5.5 2.7-8.4 3.5-3 .8-6.2 1-9.3 1.2-4.6.3-9 .6-12.5 2.7-3.6 2.1-6.1 5.8-8.7 9.6-1.7 2.6-3.5 5.2-5.6 7.4-2.1 2.1-4.8 3.9-7.3 5.6-3.9 2.6-7.5 5.1-9.6 8.7-2.1 3.5-2.4 7.9-2.7 12.5-.2 3.1-.4 7.1-1.2 10.1-.1.4-.2.2-.4 2.1h2.1c.1 0 .2-1.3.2-1.6.8-3.2 1-7.3 1.2-10.5"/><path clip-path="url(#b)" fill="#266141" d="M61.9 54.7l17.4-36.8c-2.3-1.5-3.9-4.1-3.9-7.1v-.7l-3 1.5c-2.8 1.4-5.8 2.8-8.9 3.7-3.2.9-6.6 1.1-9.8 1.3-4.3.3-8.4.6-11.3 2.3-3.1 1.8-5.3 5.2-7.7 8.8-1.8 2.7-3.6 5.4-6 7.8-2.3 2.3-5.1 4.2-7.8 6-3.6 2.4-7 4.7-8.8 7.7-1.7 3-2 7-2.3 11.3-.3 3.1-.5 7.3-1.4 10.5-.1.2-.1 1.4-.2 1.4h47.4c-3.3-4.6-7.4-12.8-8.3-21.9 5.9 2.2 11.1 3.1 14.6 4.2M100.4 56.1h-9.5l-11.3 5.7.6-4.3-7.7 2.7 2.6-4h-7.7c-2.3 3.2-3.6 7.8-3.6 12 0 1.2.1 2.4.3 4.2h39.5c.2-1.8.3-3 .3-4.2.1-4.2-1.2-8.9-3.5-12.1m-24.2 13.5c-1.9 0-3.4-1.5-3.4-3.4s1.5-3.4 3.4-3.4 3.4 1.5 3.4 3.4-1.5 3.4-3.4 3.4m15.3 0c-1.9 0-3.4-1.5-3.4-3.4s1.5-3.4 3.4-3.4 3.4 1.5 3.4 3.4c-.1 1.9-1.6 3.4-3.4 3.4M88.4 17.9l17.6 36.7c3.5-1.1 8.6-2 14.3-4.2-.9 9.2-5 17.4-8.3 22h47c-.1 0-.1-1.2-.2-1.4-.9-3.2-1.1-7-1.3-10.2-.3-4.3-.6-8.6-2.3-11.5-1.8-3.1-5.2-5.4-8.8-7.8-2.7-1.8-5.5-3.7-7.8-6s-4.2-5.1-6-7.8c-2.4-3.6-4.7-7-7.7-8.8-3-1.7-7-2-11.3-2.3-3.2-.2-6.6-.5-9.8-1.3-3.1-.8-6-2.3-8.9-3.7l-2.7-1.3v.6c.1 2.9-1.5 5.5-3.8 7M83.8 13.8c1.7 0 3-1.4 3-3 0-1.7-1.4-3-3-3-1.7 0-3 1.4-3 3s1.4 3 3 3M112.7 58.2c-1.7.6-3.2 1.1-4.5 1.5.6 1.7.9 3.5 1.1 5.4 1.2-2 2.4-4.3 3.4-6.9"/><path clip-path="url(#b)" fill="#266141" d="M83.8 20.9l-9.5 20.1h19.2zM58.5 65.3c.2-1.9.5-3.8 1.1-5.6-1.4-.4-2.9-1-4.7-1.6 1.1 2.8 2.4 5.2 3.6 7.2"/><path clip-path="url(#b)" fill="#266141" d="M95.8 45.6h-23.7l-2.3 5h28.3z"/><path clip-path="url(#b)" fill="#fff" d="M111.7 149.5h-.2c-7.6-3-17.4-4.6-27.8-4.6-.3 0-.6-.3-.6-.6s.3-.6.6-.6c10.5 0 20.6 1.7 28.3 4.7.3.1.5.5.3.8-.2.1-.4.3-.6.3M55.7 149.5c-.2 0-.5-.1-.6-.4-.1-.3 0-.7.3-.8 7.7-3 17.7-4.7 28.3-4.7.3 0 .6.3.6.6s-.3.6-.6.6c-10.4 0-20.3 1.6-27.8 4.6 0 .1-.1.1-.2.1"/><path clip-path="url(#b)" fill="#9C182F" d="M6.8 87.9h1.2v-7h-1.9v1.4h-1.5v-2.9h8.7v2.9h-1.6v-1.4h-1.9v7h1.2v1.4h-4.2zM14.3 87.9h1.2v-7.1h-1.2v-1.4h4.3v1.4h-1.2v2.8h4.5v-2.8h-1.2v-1.4h4.2v1.4h-1.2v7.1h1.2v1.4h-4.2v-1.4h1.2v-2.8h-4.5v2.8h1.2v1.4h-4.3zM26.3 87.9h1.2v-7.1h-1.2v-1.4h7.3v2.5h-1.5v-1h-2.8v2.7h3.2v1.4h-3.2v2.8h3v-1.1h1.5v2.6h-7.5zM43.7 79.2c1.2 0 3.9.4 3.9 2v1.3h-1.7v-.8c0-.7-1.3-1-2.1-1-1.9 0-3.3 1.3-3.3 3.4 0 2.2 1.5 3.7 3.4 3.7.6 0 2.1-.2 2.1-1v-.8h1.7v1.4c0 1.5-2.6 2-3.9 2-3 0-5.2-2.3-5.2-5.2 0-2.8 2.2-5 5.1-5"/><path clip-path="url(#b)" fill="#9C182F" d="M49.1 87.9h1.2v-7.1h-1.2v-1.4h4.2v1.4h-1.2v2.8h4.5v-2.8h-1.2v-1.4h4.2v1.4h-1.2v7.1h1.2v1.4h-4.2v-1.4h1.2v-2.8h-4.5v2.8h1.2v1.4h-4.2zM61 87.9h1.2v-7.2h-1.2v-1.4h4.4c.7 0 1.3 0 1.9.2 1.1.4 1.8 1.3 1.8 2.7 0 1.4-.7 2.4-1.9 2.7 0 0 .3.2.5.5l1.1 2.1c.1.3.3.3.7.3h.3v1.4h-1.2c-.8 0-1.1-.2-1.4-.7l-1.3-2.5c-.2-.4-.4-.5-1-.5h-.9v2.4h1.1v1.4h-4.1v-1.4zm4.7-3.9c1 0 1.6-.6 1.6-1.6 0-.6-.2-1.1-.8-1.4-.3-.1-.7-.2-1.1-.2h-1.4v3.2h1.7zM70.9 87.9h1.2v-7.1h-1.2v-1.4h4.2v1.4h-1.2v7.1h1.2v1.4h-4.2zM78.2 86.1v.7c0 .6.8 1 1.7 1 1 0 1.7-.4 1.7-1.2 0-1-1.1-1.3-2.3-1.8-1.3-.5-2.6-1.1-2.6-2.9 0-2 1.6-2.8 3.3-2.8 1.6 0 3.1.6 3.1 1.7v1.3h-1.7v-.7c0-.5-.7-.8-1.5-.8s-1.5.3-1.5 1.1c0 .9.9 1.2 2 1.6 1.5.5 3 1.1 3 3 0 2-1.7 3-3.6 3-1.6 0-3.4-.7-3.4-2.2v-1.1h1.8zM86.8 87.9h1.2v-7h-1.9v1.4h-1.6v-2.9h8.7v2.9h-1.5v-1.4h-1.9v7h1.2v1.4h-4.2zM94.1 87.9h1.2l.6-7.2h-1.2v-1.4h3.2l2.2 5.6c.2.5.2.8.2.8s.1-.3.3-.8l2.2-5.6h3.2v1.4h-1.2l.6 7.2h1.2v1.4h-4.1v-1.4h1.1l-.4-5v-.9s-.1.5-.2.9l-1.9 4.6h-1.6l-1.9-4.6c-.1-.3-.2-.9-.2-.9h-.1s.1.6 0 .9l-.4 5h1.1v1.4h-4.1v-1.4zM107.3 87.9h.9l3-8.5h2.1l3 8.5h.9v1.4h-3.7v-1.4h1l-.6-1.9h-3.1l-.6 1.9h1v1.4h-3.7v-1.4zm6-3.3l-.9-2.8c-.2-.5-.2-.9-.2-.9s0 .4-.2.9l-.9 2.8h2.2zM119.6 86.1v.7c0 .6.8 1 1.7 1 1 0 1.7-.4 1.7-1.2 0-1-1.1-1.3-2.3-1.8-1.3-.5-2.6-1.1-2.6-2.9 0-2 1.6-2.8 3.3-2.8 1.6 0 3.1.6 3.1 1.7v1.3h-1.5v-.7c0-.5-.7-.8-1.5-.8s-1.5.3-1.5 1.1c0 .9.9 1.2 2 1.6 1.5.5 3 1.1 3 3 0 2-1.7 3-3.6 3-1.6 0-3.4-.7-3.4-2.2v-1.1h1.6zM129.8 87.9h1.2v-7.1h-1.2v-1.4h7.3v2.5h-1.5v-1h-2.8v2.7h3.2v1.4h-3.2v2.8h3v-1.1h1.5v2.6h-7.5zM138.7 87.9h1.2v-7h-1.2v-1.5h4.2v1.5h-1.2v6.9h3v-1.5h1.5v3h-7.5zM147.3 87.9h1.1v-7.1h-1.1v-1.4h7v2.6h-1.5v-1.1h-2.5v2.9h3.2v1.4h-3.2v2.7h1.3v1.4h-4.3zM157.1 86.1v.7c0 .6.8 1 1.7 1 1 0 1.7-.4 1.7-1.2 0-1-1.1-1.3-2.3-1.8-1.3-.5-2.6-1.1-2.6-2.9 0-2 1.6-2.8 3.3-2.8 1.6 0 3.1.6 3.1 1.7v1.3h-1.7v-.7c0-.5-.7-.8-1.5-.8s-1.5.3-1.5 1.1c0 .9.9 1.2 2 1.6 1.5.5 3 1.1 3 3 0 2-1.7 3-3.6 3-1.6 0-3.4-.7-3.4-2.2v-1.1h1.8z"/><defs><path id="c" d="M0 0h166v166h-166z"/></defs><clipPath id="d"><use xlink:href="#c" overflow="visible"/></clipPath><path clip-path="url(#d)" fill="#9C182F" d="M5.7 98.4c.8 3 1 6.5 1.2 9.6.3 4.6.6 9.2 2.7 12.7 2.1 3.6 5.8 6.1 9.6 8.7 2.6 1.7 5.2 3.5 7.4 5.7 2.1 2.1 3.9 4.8 5.6 7.4 2.6 3.9 5 7.5 8.7 9.6 3.6 2.1 7.9 2.4 12.6 2.7 3.1.2 6.3.4 9.3 1.2 2.8.8 5.7 2.1 8.4 3.5 4.2 2.1 8.2 4.1 12.5 4.1 4.3 0 8.3-2 12.5-4.1 2.7-1.3 5.5-2.7 8.4-3.5 3-.8 6.2-1 9.3-1.2 4.6-.3 9-.6 12.5-2.7 3.6-2.1 6.1-5.8 8.7-9.6 1.7-2.6 3.5-5.2 5.6-7.4 2.1-2.1 4.8-3.9 7.3-5.6 3.9-2.6 7.5-5.1 9.6-8.7 2.1-3.5 2.4-7.9 2.7-12.6.2-3.1.4-7 1.2-10 .1-.4.2-1.9.4-1.9h-156.6c.2.1.3 1.7.4 2.1"/><path clip-path="url(#d)" fill="#fff" d="M7.1 96.6c.2.7.4 1.3.6 1.9.8 3.2 1.1 6.5 1.3 9.7.3 4.4.6 8.5 2.4 11.7 1.9 3.2 5.3 5.5 9 8 2.6 1.8 5.4 3.6 7.7 5.9 2.3 2.3 4.1 5 5.9 7.7 2.5 3.7 4.8 7.2 8 9 3.2 1.8 7.3 2.1 11.7 2.4 3.2.2 6.5.4 9.7 1.3 3 .8 5.9 2.2 8.7 3.6 4 2 7.8 3.8 11.6 3.8s7.6-1.9 11.6-3.8c2.8-1.4 5.7-2.8 8.7-3.6 3.2-.8 6.5-1.1 9.7-1.3 4.4-.3 8.5-.6 11.7-2.4 3.2-1.9 5.5-5.3 8-9 1.8-2.6 3.6-5.4 5.9-7.7 2.3-2.3 5-4.1 7.6-5.9 3.7-2.5 7.2-4.8 9-8 1.8-3.1 2.1-7.3 2.4-11.7.2-3.2.4-6.5 1.3-9.7.2-.6.3-1.2.6-1.9h-153.1z"/><path clip-path="url(#d)" fill="#266141" d="M8.4 97.6c.9 3.2 1.1 6.9 1.3 10.1.3 4.3.6 8.5 2.3 11.5 1.8 3 5.2 5.4 8.8 7.8 2.7 1.8 5.5 3.7 7.8 6s4.2 5.1 6 7.8c2.4 3.6 4.7 7 7.7 8.8 3 1.7 7 2 11.3 2.3 3.2.2 6.6.5 9.8 1.3 3.1.8 6 2.3 8.9 3.7 3.9 1.9 7.6 3.8 11.3 3.8 3.7 0 7.4-1.8 11.3-3.8 2.8-1.4 5.8-2.8 8.9-3.7 3.2-.9 6.6-1.1 9.8-1.3 4.3-.3 8.4-.6 11.3-2.3 3.1-1.8 5.3-5.2 7.7-8.8 1.8-2.7 3.6-5.4 6-7.8 2.3-2.3 5.1-4.2 7.8-6 3.6-2.4 7-4.7 8.8-7.7 1.7-3 2-7 2.3-11.3.2-3.2.5-7.2 1.3-10.5.1-.2.1-1.3.2-1.3h-150.8c.1.2.2 1.2.2 1.4"/><path clip-path="url(#d)" fill="#fff" d="M77.6 139.9l3.7-4.8h-2.3l3.1-4h-1.7l3.2-4.5 3.2 4.5h-1.7l3.1 4h-2.2l3.7 4.8h-12.1zm10.9-6.1l.8-1.1 1.8 2.9h-1.4l2.6 4.3h-1.5l.8 1h2.5l-2.7-4.3h1.4l-3.5-5.7-1.5 2.1.7.8zm.1 10.4h1.5v-2.6h-1.5v2.6zm-9.2-11.2l-1.5-2.1-3.5 5.7h1.4l-2.7 4.3h2.5l.7-1h-1.3l2.6-4.3h-1.4l1.8-2.9.8 1.1.6-.8zm-.7 8.5h-1.5v2.6h1.5v-2.6zm5.9-.7h-1.9v3.4h1.9v-3.4zm-1.5-16.5l-1.2.2.9.8-.2 1.2 1.1-.6 1.1.6-.2-1.2.9-.8-1.2-.2-.5-1.1-.7 1.1zM52.1 107.6v.4c0 .5.6.7 1.2.7.7 0 1.3-.4 1.3-1 0-.7-.7-1-1.4-1.3-.7-.3-1.5-.6-1.5-1.6s.8-1.5 1.7-1.5c.8 0 1.6.3 1.6.9v.6h-.5v-.4c0-.4-.6-.5-1.1-.5-.6 0-1.1.3-1.1.9 0 .7.6.9 1.3 1.2.8.3 1.6.6 1.6 1.6s-.8 1.6-1.8 1.6c-.8 0-1.8-.4-1.8-1.1v-.5h.5zM57.2 108.7h.7v-4.7h-1.5v1h-.5v-1.4h4.7v1.4h-.5v-1h-1.6v4.7h.7v.5h-2zM60.5 108.7h.6l1.9-5.1h.6l1.9 5.1h.5v.5h-1.8v-.5h.6l-.5-1.4h-2.2l-.5 1.4h.6v.5h-1.8v-.5zm3.7-1.9l-.8-2.3c-.1-.2-.1-.4-.1-.4s0 .2-.1.4l-.9 2.3h1.9zM66.5 108.7h.7v-4.7h-.7v-.5h2.4c.4 0 .7 0 1 .1.5.2.9.7.9 1.4 0 .8-.5 1.5-1.2 1.6l.2.2.9 1.6c.1.2.2.2.4.2h.2v.5h-.3c-.5 0-.6-.1-.8-.4l-.9-1.6c-.2-.3-.3-.3-.6-.3h-.8v1.9h.7v.5h-2v-.5zm2.6-2.4c.7 0 1.1-.5 1.1-1.2 0-.5-.2-.8-.6-1-.2-.1-.5-.1-.7-.1h-1.1v2.3h1.3zM73.1 108.7h.7v-4.7h-1.5v1h-.5v-1.4h4.7v1.4h-.5v-1h-1.6v4.7h.7v.5h-2zM78.8 108.7h.6l1.9-5.1h.6l1.9 5.1h.6v.5h-1.8v-.5h.6l-.5-1.4h-2.2l-.5 1.4h.6v.5h-1.8v-.5zm3.7-1.9l-.8-2.3c-.1-.2-.1-.4-.1-.4s0 .2-.1.4l-.9 2.3h1.9zM86.8 108.7h.8v-4.7h-.8v-.4h3.8v1.2h-.5v-.7h-2v2.1h2.1v.5h-2.1v2h.8v.5h-2.1zM90.7 108.7h.6l1.9-5.1h.6l1.9 5.1h.6v.5h-1.8v-.5h.6l-.5-1.4h-2.2l-.5 1.4h.6v.5h-1.8v-.5zm3.7-1.9l-.8-2.3c-.1-.2-.1-.4-.1-.4s0 .2-.1.4l-.9 2.3h1.9zM96.6 108.7h.7l.4-4.7h-.7v-.5h1.3l1.6 3.7c.1.2.1.3.1.3s0-.1.1-.3l1.6-3.7h1.3v.5h-.7l.4 4.7h.7v.5h-2v-.5h.7l-.3-3.9v-.4s-.1.2-.1.4l-1.5 3.3h-.5l-1.5-3.3c-.1-.1-.1-.4-.1-.4v.4l-.3 3.9h.7v.5h-2v-.5zM104.2 108.7h.8v-4.7h-.8v-.4h2.1v.4h-.8v4.7h.8v.5h-2.1zM107.1 108.7h.7v-4.7h-.7v-.4h2v.4h-.7v4.7h2.2v-.9h.6v1.4h-4.1zM112.6 108.7h.7v-1.9l-1.6-2.7h-.6v-.5h1.8v.5h-.6l1.2 2c.1.1.1.2.1.2s0-.1.1-.2l1.2-2h-.6v-.5h1.8v.5h-.5l-1.7 2.7v1.9h.7v.5h-2v-.5zM46.9 118.3h.7v-4.7h-1.6v.9h-.5v-1.4h4.7v1.4h-.5v-.9h-1.6v4.7h.8v.4h-2zM50.9 118.3h.7v-4.7h-.7v-.5h2.4c.4 0 .7 0 1 .1.5.2.9.7.9 1.4 0 .8-.5 1.5-1.2 1.6l.2.2.9 1.6c.1.2.2.2.4.2h.2v.5h-.3c-.5 0-.6-.1-.8-.4l-.9-1.6c-.2-.3-.3-.3-.6-.3h-.8v1.9h.7v.5h-2v-.5zm2.6-2.4c.7 0 1.1-.5 1.1-1.2 0-.5-.2-.8-.6-1-.2-.1-.5-.1-.7-.1h-1.1v2.3h1.3zM56 118.3h.6l1.9-5.1h.6l1.9 5.1h.6v.5h-1.8v-.5h.6l-.5-1.4h-2.2l-.5 1.4h.6v.5h-1.8v-.5zm3.7-1.9l-.8-2.3c-.1-.2-.1-.4-.1-.4s0 .2-.1.4l-.9 2.3h1.9zM62.1 118.3h.7v-4.7h-.7v-.5h2.4c.5 0 .8 0 1.2.1 1.1.3 1.7 1.3 1.7 2.7 0 1.4-.7 2.3-1.8 2.7-.4.1-.7.1-1.1.1h-2.4v-.4zm2.3 0c.4 0 .7 0 1-.1.9-.3 1.4-1.1 1.4-2.2s-.5-1.9-1.4-2.2c-.3-.1-.6-.1-1-.1h-1v4.6h1zM68.2 118.3h.7v-4.7h-.7v-.5h2v.5h-.7v4.7h.7v.4h-2zM72.3 118.3h.7v-4.7h-1.6v.9h-.5v-1.4h4.7v1.4h-.5v-.9h-1.5v4.7h.7v.4h-2zM76.3 118.3h.7v-4.7h-.7v-.5h2v.5h-.7v4.7h.7v.4h-2zM82 113c1.6 0 2.9 1.3 2.9 2.9 0 1.6-1.3 2.9-2.9 2.9-1.6 0-2.9-1.3-2.9-2.9 0-1.6 1.3-2.9 2.9-2.9m0 5.3c1.3 0 2.3-1.1 2.3-2.4 0-1.3-1-2.4-2.3-2.4-1.3 0-2.3 1-2.3 2.4s1 2.4 2.3 2.4"/><path clip-path="url(#d)" fill="#fff" d="M85.7 118.3h.7v-4.7h-.7v-.5h1.3l3.1 4.4c.1.1.2.3.2.3v-4.3h-.7v-.5h2v.5h-.7v5.1h-.5l-3.1-4.4c-.1-.1-.2-.3-.2-.3v4.3h.7v.5h-2v-.4zM95.5 118.3h.7v-4.7h-1.6v.9h-.5v-1.4h4.7v1.4h-.5v-.9h-1.6v4.7h.8v.4h-2zM102.4 113c1.6 0 2.9 1.3 2.9 2.9 0 1.6-1.3 2.9-2.9 2.9-1.6 0-2.9-1.3-2.9-2.9 0-1.6 1.3-2.9 2.9-2.9m0 5.3c1.3 0 2.3-1.1 2.3-2.4 0-1.3-1-2.4-2.3-2.4-1.3 0-2.3 1-2.3 2.4s1 2.4 2.3 2.4"/><path clip-path="url(#d)" fill="#fff" d="M106 118.3h.7v-4.7h-.7v-.5h2.4c.5 0 .8 0 1.2.1 1.1.3 1.7 1.3 1.7 2.7 0 1.4-.7 2.3-1.8 2.7-.4.1-.7.1-1.1.1h-2.4v-.4zm2.3 0c.4 0 .7 0 1-.1.9-.3 1.4-1.1 1.4-2.2s-.5-1.9-1.4-2.2c-.3-.1-.6-.1-1-.1h-1v4.6h1zM111.7 118.3h.6l1.9-5.1h.6l1.9 5.1h.6v.5h-1.8v-.5h.6l-.5-1.4h-2.2l-.5 1.4h.6v.5h-1.8v-.5zm3.7-1.9l-.8-2.3c-.1-.2-.1-.4-.1-.4s0 .2-.1.4l-.9 2.3h1.9zM118.4 118.3h.7v-1.9l-1.6-2.7h-.5v-.5h1.8v.5h-.6l1.2 2c.1.1.1.2.1.2s0-.1.1-.2l1.2-2h-.6v-.5h1.8v.5h-.5l-1.7 2.7v1.9h.7v.5h-2v-.5z"/><path clip-path="url(#d)" fill="#9C182F" d="M161.5 70.3c-.8-3-1-6.6-1.2-9.7-.3-4.6-.6-9.2-2.7-12.7-2.1-3.6-5.8-6.2-9.6-8.7-2.6-1.7-5.2-3.5-7.4-5.7-2.1-2.1-3.9-4.8-5.6-7.4-2.6-3.9-5-7.6-8.7-9.6-3.6-2.1-7.9-2.4-12.6-2.7-3.1-.2-6.3-.4-9.3-1.2-2.8-.8-5.7-2.1-8.4-3.5-4.2-2.1-8.2-4.1-12.5-4.1-4.3 0-8.3 2-12.5 4-2.7 1.3-5.5 2.7-8.4 3.5-3 .8-6.2 1-9.3 1.2-4.6.3-9 .6-12.5 2.7-3.6 2.1-6.1 5.8-8.7 9.6-1.7 2.6-3.5 5.2-5.6 7.4-2.1 2.1-4.8 3.9-7.3 5.6-3.9 2.6-7.5 5.1-9.6 8.7-2 3.5-2.3 7.9-2.6 12.5-.2 3.1-.4 7.1-1.2 10.1-.1.4-.2.2-.4 2.1h156.6c-.2-1.9-.3-1.7-.5-2.1"/><path clip-path="url(#d)" fill="#fff" d="M160.2 71.9c-.2-.7-.4-1.3-.6-1.9-.8-3.2-1.1-6.5-1.3-9.7-.3-4.4-.6-8.6-2.4-11.7-1.9-3.2-5.3-5.5-9-8-2.6-1.8-5.4-3.6-7.7-5.9-2.3-2.3-4.1-5-5.9-7.7-2.5-3.7-4.8-7.2-8-9-3.2-1.8-7.3-2.1-11.7-2.4-3.2-.2-6.5-.4-9.7-1.3-3-.8-5.9-2.2-8.7-3.6-4-2-7.8-3.8-11.6-3.8s-7.6 1.9-11.6 3.9c-2.8 1.4-5.7 2.8-8.7 3.6-3.2.8-6.5 1.1-9.7 1.3-4.4.3-8.5.6-11.7 2.4-3.2 1.9-5.5 5.3-8 9-1.8 2.6-3.6 5.4-5.9 7.7-2.3 2.3-5 4.1-7.6 5.9-3.7 2.5-7.2 4.8-9 8-1.9 3.1-2.2 7.3-2.5 11.6-.2 3.2-.4 6.5-1.3 9.7-.1.6-.3 1.2-.6 1.9h153.2z"/><path clip-path="url(#d)" fill="#266141" d="M158.8 71c-.9-3.2-1.1-7-1.3-10.2-.3-4.3-.6-8.6-2.3-11.5-1.8-3.1-5.2-5.4-8.8-7.8-2.7-1.8-5.5-3.7-7.8-6s-4.2-5.1-6-7.8c-2.4-3.6-4.7-7-7.7-8.8-3-1.7-7-2-11.3-2.3-3.2-.2-6.6-.5-9.8-1.3-3.1-.8-6-2.3-8.9-3.7-3.9-2-7.6-3.9-11.3-3.9-3.7 0-7.4 1.8-11.3 3.8-2.8 1.4-5.8 2.8-8.9 3.7-3.2.9-6.6 1.1-9.8 1.3-4.3.3-8.4.6-11.3 2.3-3.1 1.8-5.3 5.2-7.7 8.8-1.8 2.7-3.6 5.4-6 7.8-2.3 2.3-5.1 4.2-7.8 6-3.6 2.4-7 4.7-8.8 7.7-1.7 3-2 7-2.3 11.3-.2 3.2-.4 7.4-1.3 10.6-.1.2-.1 1.4-.2 1.4h150.8s-.1-1.2-.2-1.4"/><defs><path id="e" d="M43 0h79.3v72.4h-79.3z"/></defs><clipPath id="f"><use xlink:href="#e" overflow="visible"/></clipPath><path clip-path="url(#f)" fill="#fff" d="M76.2 62.9c-1.9 0-3.4 1.5-3.4 3.4s1.5 3.4 3.4 3.4 3.4-1.5 3.4-3.4-1.5-3.4-3.4-3.4M91.5 62.9c-1.9 0-3.4 1.5-3.4 3.4s1.5 3.4 3.4 3.4 3.4-1.5 3.4-3.4c-.1-1.9-1.6-3.4-3.4-3.4M83.9 82.7c2.9 0 5.2-2.9 5.2-4.8h-10.5c0 1.9 2.4 4.8 5.3 4.8M106 54.6l-17.6-36.7c2.3-1.5 3.9-4.1 3.9-7.1 0-4.7-3.8-8.5-8.5-8.5s-8.5 3.8-8.5 8.5c0 3 1.6 5.6 3.9 7.1l-17.3 36.8c-3.5-1.1-8.7-2.8-14.5-5 1.6 15.7 12.6 26.4 12.6 26.4 3.5 8.3 12.9 16.6 24 16.6 11.2 0 20.6-7.1 24.1-17 1.7-1.7 10.9-11.8 12.3-26-5.8 2.1-10.9 3.8-14.4 4.9m-47.5 10.7c-1.2-2-2.5-4.4-3.6-7.1l4.7 1.6c-.5 1.7-.9 3.6-1.1 5.5m25.3-57.6c1.7 0 3 1.4 3 3 0 1.7-1.4 3-3 3-1.7 0-3-1.4-3-3s1.4-3 3-3m0 13.2l9.7 20.1h-19.2l9.5-20.1zm-11.7 24.7h23.7l2.3 4.9h-28.3l2.3-4.9zm11.9 41.6c-11.1 0-20.1-8.9-20.1-19.8 0-4.2 1.3-8.1 3.6-11.3h7.7l-2.6 4 7.7-2.7-.6 4.3 11.3-5.7h9.5c2.3 3.2 3.6 7.1 3.6 11.3-.1 11-9.1 19.9-20.1 19.9m24.2-27.5c1.3-.4 2.8-.9 4.5-1.5-1 2.6-2.2 4.9-3.4 6.9-.1-1.9-.5-3.7-1.1-5.4"/><defs><path id="g" d="M0 0h166v166h-166z"/></defs><clipPath id="h"><use xlink:href="#g" overflow="visible"/></clipPath><path clip-path="url(#h)" fill="#fff" d="M111.7 149.5h-.2c-7.6-3-17.4-4.6-27.8-4.6-.3 0-.6-.3-.6-.6s.3-.6.6-.6c10.5 0 20.6 1.7 28.3 4.7.3.1.5.5.3.8-.2.1-.4.3-.6.3M55.7 149.5c-.2 0-.5-.1-.6-.4-.1-.3 0-.7.3-.8 7.7-3 17.7-4.7 28.3-4.7.3 0 .6.3.6.6s-.3.6-.6.6c-10.4 0-20.3 1.6-27.8 4.6 0 .1-.1.1-.2.1"/><path clip-path="url(#h)" fill="#fff" d="M.6 72.4h165.1v24h-165.1z"/><path clip-path="url(#h)" fill="#9C182F" d="M6.8 87.9h1.2v-7h-1.9v1.4h-1.5v-2.9h8.7v2.9h-1.6v-1.4h-1.9v7h1.2v1.4h-4.2zM14.3 87.9h1.2v-7.1h-1.2v-1.4h4.3v1.4h-1.2v2.8h4.5v-2.8h-1.2v-1.4h4.2v1.4h-1.2v7.1h1.2v1.4h-4.2v-1.4h1.2v-2.8h-4.5v2.8h1.2v1.4h-4.3zM26.3 87.9h1.2v-7.1h-1.2v-1.4h7.3v2.5h-1.5v-1h-2.8v2.7h3.2v1.4h-3.2v2.8h3v-1.1h1.5v2.6h-7.5zM43.7 79.2c1.2 0 3.9.4 3.9 2v1.3h-1.7v-.8c0-.7-1.3-1-2.1-1-1.9 0-3.3 1.3-3.3 3.4 0 2.2 1.5 3.7 3.4 3.7.6 0 2.1-.2 2.1-1v-.8h1.7v1.4c0 1.5-2.6 2-3.9 2-3 0-5.2-2.3-5.2-5.2 0-2.8 2.2-5 5.1-5"/><path clip-path="url(#h)" fill="#9C182F" d="M49.1 87.9h1.2v-7.1h-1.2v-1.4h4.2v1.4h-1.2v2.8h4.5v-2.8h-1.2v-1.4h4.2v1.4h-1.2v7.1h1.2v1.4h-4.2v-1.4h1.2v-2.8h-4.5v2.8h1.2v1.4h-4.2zM61 87.9h1.2v-7.2h-1.2v-1.4h4.4c.7 0 1.3 0 1.9.2 1.1.4 1.8 1.3 1.8 2.7 0 1.4-.7 2.4-1.9 2.7 0 0 .3.2.5.5l1.1 2.1c.1.3.3.3.7.3h.3v1.4h-1.2c-.8 0-1.1-.2-1.4-.7l-1.3-2.5c-.2-.4-.4-.5-1-.5h-.9v2.4h1.1v1.4h-4.1v-1.4zm4.7-3.9c1 0 1.6-.6 1.6-1.6 0-.6-.2-1.1-.8-1.4-.3-.1-.7-.2-1.1-.2h-1.4v3.2h1.7zM70.9 87.9h1.2v-7.1h-1.2v-1.4h4.2v1.4h-1.2v7.1h1.2v1.4h-4.2zM78.2 86.1v.7c0 .6.8 1 1.7 1 1 0 1.7-.4 1.7-1.2 0-1-1.1-1.3-2.3-1.8-1.3-.5-2.6-1.1-2.6-2.9 0-2 1.6-2.8 3.3-2.8 1.6 0 3.1.6 3.1 1.7v1.3h-1.7v-.7c0-.5-.7-.8-1.5-.8s-1.5.3-1.5 1.1c0 .9.9 1.2 2 1.6 1.5.5 3 1.1 3 3 0 2-1.7 3-3.6 3-1.6 0-3.4-.7-3.4-2.2v-1.1h1.8zM86.8 87.9h1.2v-7h-1.9v1.4h-1.6v-2.9h8.7v2.9h-1.5v-1.4h-1.9v7h1.2v1.4h-4.2zM94.1 87.9h1.2l.6-7.2h-1.2v-1.4h3.2l2.2 5.6c.2.5.2.8.2.8s.1-.3.3-.8l2.2-5.6h3.2v1.4h-1.2l.6 7.2h1.2v1.4h-4.1v-1.4h1.1l-.4-5v-.9s-.1.5-.2.9l-1.9 4.6h-1.6l-1.9-4.6c-.1-.3-.2-.9-.2-.9h-.1s.1.6 0 .9l-.4 5h1.1v1.4h-4.1v-1.4zM107.3 87.9h.9l3-8.5h2.1l3 8.5h.9v1.4h-3.7v-1.4h1l-.6-1.9h-3.1l-.6 1.9h1v1.4h-3.7v-1.4zm6-3.3l-.9-2.8c-.2-.5-.2-.9-.2-.9s0 .4-.2.9l-.9 2.8h2.2zM119.6 86.1v.7c0 .6.8 1 1.7 1 1 0 1.7-.4 1.7-1.2 0-1-1.1-1.3-2.3-1.8-1.3-.5-2.6-1.1-2.6-2.9 0-2 1.6-2.8 3.3-2.8 1.6 0 3.1.6 3.1 1.7v1.3h-1.5v-.7c0-.5-.7-.8-1.5-.8s-1.5.3-1.5 1.1c0 .9.9 1.2 2 1.6 1.5.5 3 1.1 3 3 0 2-1.7 3-3.6 3-1.6 0-3.4-.7-3.4-2.2v-1.1h1.6zM129.8 87.9h1.2v-7.1h-1.2v-1.4h7.3v2.5h-1.5v-1h-2.8v2.7h3.2v1.4h-3.2v2.8h3v-1.1h1.5v2.6h-7.5zM138.7 87.9h1.2v-7h-1.2v-1.5h4.2v1.5h-1.2v6.9h3v-1.5h1.5v3h-7.5zM147.3 87.9h1.1v-7.1h-1.1v-1.4h7v2.6h-1.5v-1.1h-2.5v2.9h3.2v1.4h-3.2v2.7h1.3v1.4h-4.3zM157.1 86.1v.7c0 .6.8 1 1.7 1 1 0 1.7-.4 1.7-1.2 0-1-1.1-1.3-2.3-1.8-1.3-.5-2.6-1.1-2.6-2.9 0-2 1.6-2.8 3.3-2.8 1.6 0 3.1.6 3.1 1.7v1.3h-1.7v-.7c0-.5-.7-.8-1.5-.8s-1.5.3-1.5 1.1c0 .9.9 1.2 2 1.6 1.5.5 3 1.1 3 3 0 2-1.7 3-3.6 3-1.6 0-3.4-.7-3.4-2.2v-1.1h1.8z"/></svg>